<?xml version="1.0" standalone="no"?>
<!DOCTYPE svg PUBLIC "-//W3C//DTD SVG 1.1//EN" "http://www.w3.org/Graphics/SVG/1.1/DTD/svg11.dtd" >
<svg xmlns="http://www.w3.org/2000/svg">
<metadata></metadata>
<defs>
<font id="p22_cezanne_regularregular" horiz-adv-x="1288" >
<font-face units-per-em="2048" ascent="1638" descent="-410" />
<missing-glyph horiz-adv-x="614" />
<glyph horiz-adv-x="0" />
<glyph unicode="&#xd;" horiz-adv-x="1024" />
<glyph unicode=" "  horiz-adv-x="614" />
<glyph unicode="&#x09;" horiz-adv-x="614" />
<glyph unicode="&#xa0;" horiz-adv-x="614" />
<glyph unicode="!" horiz-adv-x="559" d="M156 -25q0 33 22 78q25 53 51 53q8 0 13 -2q25 4 24 -30q0 -10 -8 -27q4 -2 14.5 -3t18.5 -13q20 -31 20 -66q0 -96 -92 -96q-63 0 -63 106zM377 346q0 20 61 125q76 131 78 137q41 90 129 262q53 94 191 287q41 76 129 221q104 152 211 324q18 35 39.5 71.5t56.5 36.5 q41 1 41 -28q0 -4 -10 -25q-74 -104 -224 -356q-117 -184 -338 -561q-29 -68 -90 -199q-47 -96 -92 -192q-78 -152 -113 -152q-16 0 -26 14h-6q-37 -4 -37 35z" />
<glyph unicode="&#x22;" horiz-adv-x="753" d="M160 1176q0 2 39 56t43 62q18 37 57 113q12 29 41 88q12 25 44 52.5t54 27.5q27 0 27 -31q0 -23 -49 -86q-68 -82 -68 -84q-33 -53 -67 -108q-41 -59 -84 -92q-10 -8 -21 -9q-16 0 -16 11zM297 1038q0 6 4 11q86 111 188 305q29 61 60 125q41 70 98 88h6q8 0 11 -6 q10 -8 10 -35q0 -35 -64 -119q-45 -57 -90 -117q-43 -70 -86 -139q-53 -78 -108 -123q-8 -4 -13 -4q-16 0 -16 14z" />
<glyph unicode="#" horiz-adv-x="899" d="M139 285q0 27 51 34q35 2 70 7q25 4 31 4q37 78 47 121h-12q-8 -2 -13 -2q-43 0 -88 14q-57 20 -57 55q0 31 33 31q27 0 77 -9.5t74 -9.5q10 66 21 132q14 76 37 126q10 25 30 25q29 0 29 -35q0 18 -16 -94q-6 -43 -33 -158h33q-12 0 88 15q49 98 88 98q35 0 35 -31 q0 -12 -11 -28q-16 -25 -18 -29q59 6 115 6q55 0 55 -31q0 -20 -25 -28q-35 -10 -174 -21q-14 -33 -41 -117q129 -20 129 -67q0 -33 -30 -33q-23 0 -109 14q0 -29 -14.5 -107.5t-24.5 -103t-27 -24.5q-31 0 -30 35q0 90 30 207q-18 2 -55 2q-25 0 -74 -9q-45 -135 -100 -135 q-35 0 -35 31q0 14 33 88q-20 -4 -63 -4q-55 0 -56 31zM379 340q20 4 61 9t62 7q4 20 10 58.5t10 56.5q-39 -2 -119 -12q-4 -18 -12 -58.5t-12 -60.5z" />
<glyph unicode="$" horiz-adv-x="1263" d="M113 -281l49 97q25 55 74 168q-96 78 -97 206q0 178 185 228q10 2 19 -7.5t9 -21.5q0 -16 -71.5 -77.5t-71.5 -100.5q0 -57 70 -143q47 88 90 143q33 43 88 137q16 41 40.5 66.5t51 53.5t67.5 88t64 87q-66 88 -66 164q0 10 4 41q10 80 38 115.5t102 74.5q113 59 184 52 q100 252 150 251q29 0 28 -28q0 -10 -10 -23q-94 -121 -115 -221q-2 -10 2 -10q2 0 43 33q6 6 58 94q45 82 57 82q31 0 31 -29q-4 -23 -25 -63q-16 -16 -30.5 -33t-19.5 -42.5t-34 -49.5q-37 -33 -43 -41q0 -14 18.5 -33t22.5 -27q2 -27 10 -76q6 -29 -20 -34 q-16 -4 -32.5 6t-20.5 26q-2 10 -15.5 35t-13.5 39q-63 -98 -205 -287q150 -195 150 -385q0 -143 -152 -264q-145 -113 -293 -112q-68 -272 -98 -273q-31 0 -31 29q0 25 31 119q37 109 41 131q-43 20 -139 51q-113 -264 -146 -264q-29 0 -28 28zM334 25q35 -27 108 -45 q6 25 27 88q27 100 88 251q35 50 123 222l-35 -13q-20 -39 -88 -137q-23 -27 -33 -57q-18 -43 -24 -55q-18 -35 -68.5 -100.5t-71.5 -102.5q-8 -16 -26 -51zM508 -35q59 2 81.5 10.5t76.5 47.5q90 66 125 104q65 69 65 143q0 70 -36 161t-83 147q-20 -45 -82 -162 q-37 -70 -71 -189q-45 -158 -54.5 -177t-17.5 -42q-4 -8 -4 -43zM676 842q0 -78 55 -133q18 35 59 99t58.5 99l50.5 101q-14 2 -41 2q-51 0 -116.5 -59.5t-65.5 -108.5z" />
<glyph unicode="%" horiz-adv-x="1089" d="M131 684q0 63 62.5 124.5t128.5 61.5q25 0 24 -10q0 -16 -65.5 -84.5t-65.5 -105.5q0 -23 25.5 -40.5t50.5 -17.5q43 0 113.5 57.5t80.5 100.5q6 23 7 45q0 47 -39 64q-14 6 -72 14q-39 4 -39 22q0 25 25.5 47.5t50.5 22.5q74 0 128 -34.5t54 -104.5q0 -115 -113.5 -206 t-230.5 -91q-53 0 -89 41t-36 94zM254 -160q0 10 8 27q33 68 74 178q98 272 260 543q176 295 362 475q57 55 84 55q29 0 29 -31q0 -37 -84 -126q-57 -59 -115 -119q-201 -209 -421 -699q-63 -143 -117 -313q-25 -57 -37 -57t-27.5 26.5t-15.5 40.5zM563 63q0 63 62.5 125 t128.5 62q25 0 24 -10q0 -16 -66.5 -88t-60.5 -107h-2q14 -53 74 -53q41 0 112.5 58.5t82.5 99.5q6 23 6 45q0 47 -39 63q-14 6 -72 14q-39 4 -39 23q0 25 25.5 47.5t50.5 22.5q74 0 128 -35t54 -105q0 -115 -113.5 -206t-230.5 -91q-53 0 -89 41t-36 94z" />
<glyph unicode="&#x26;" horiz-adv-x="2050" d="M96 195q0 170 156 376q150 199 313 271q78 184 144 266q78 92 243 180q111 59 226 60q111 0 110 -140q0 -37 -16 -82q-20 -55 -51 -55q-70 0 -97.5 77t-105.5 77q-74 0 -155 -85t-83 -161l4 -4q18 0 52 14.5t53 14.5q55 0 74 -43q10 -27 10 -93q0 -80 -45 -118 q-31 -27 -100.5 -55.5t-108.5 -28.5q-23 0 -63 20.5t-52 38.5l-14 31q-12 25 -17 24q-80 0 -198 -219q-113 -207 -113 -299q0 -166 84 -299q98 -152 254 -151q16 0 135 32q252 70 447 408q47 84 47 104q0 16 -49 17q-125 0 -242 -25q-172 -39 -172 -110q0 -78 72 -78l6 4 q-29 47 -29 45q0 31 41 31t76 -29t35 -70q0 -43 -33 -75.5t-76 -32.5q-82 0 -140.5 56t-58.5 138q0 117 269 207q66 23 166 25q162 2 166 2l12 45q-2 8 -15 51q-8 31 -8 49q0 37 47 37q78 0 99 -172q117 23 189.5 68t137.5 139q18 20 38 45t20 43q0 8 4 28.5t2 30.5v9h-8 q-20 0 -54 -23t-47 -23q-43 0 -43 43q0 49 82 97q74 43 127 43q51 0 72 -13q24 -18 24 -69q0 -55 -47 -148q-43 -82 -88 -129q-51 -53 -141 -104q-72 -35 -141 -70q-113 -57 -125 -73q-182 -256 -223 -308q-131 -158 -263 -233q-162 -94 -368 -94q-156 0 -301.5 154.5 t-145.5 310.5zM694 788q0 -55 41 -55q31 0 81 44t50 75q0 49 -41 49q-33 0 -82 -40t-49 -73z" />
<glyph unicode="'" horiz-adv-x="661" d="M365 1219q0 8 8 24q51 78 143 242q14 29 39 28q20 0 27 -18q26 -10 26 -41q0 -25 -83 -137.5t-107 -124.5q-8 -6 -21 -6q-33 0 -32 33z" />
<glyph unicode="(" horiz-adv-x="555" d="M88 -178q0 113 27 217q0 2 63 207q49 160 74 223q47 113 117.5 206t232.5 320q29 43 96 123q113 127 338 377q39 45 127 125q109 78 135 78q21 0 21 -23q0 -33 -16 -71q-6 -16 -33 -49t-43.5 -39.5t-50.5 -22.5q-133 -68 -238 -201q-20 -33 -64 -92q-20 -23 -63 -67 q-145 -156 -416 -566q-33 -41 -90 -125q-51 -90 -92 -270q-39 -170 -39 -285q0 -33 12 -116q12 -92 23 -107q4 -4 45 -33q20 -14 20 -65q0 -27 -22 -27q-53 0 -86 41q-14 14 -51 86q-2 4 -7.5 13.5t-7.5 15.5q-12 31 -12 127z" />
<glyph unicode=")" horiz-adv-x="886" d="M-47 -442q0 25 4 34q18 47 96 82q154 68 273 260q14 29 47 82q20 23 63 73t101 132q90 127 280 453q29 41 82 129q100 201 100 454q0 41 -12 162q-16 131 -26 146q-16 16 -29.5 32.5t-13.5 47.5q0 68 45 67q29 0 53 -43q14 -33 28 -65q27 -59 33 -119q4 -43 4 -90 q0 -100 -67 -385q-39 -160 -62 -230q-41 -117 -104 -213q-113 -168 -215 -334q-68 -111 -195 -266q-104 -127 -209 -256q-66 -84 -120 -129q-25 -18 -74 -57q-39 -31 -51 -31q-31 0 -31 64z" />
<glyph unicode="*" horiz-adv-x="806" d="M61 1077q0 51 232 64q-20 94 -21 147q0 76 39 76h6q2 -2 5 -2q31 -6 61 -14q12 -8 12 -58q0 -70 21 -155l20 -5q43 86 88 173q70 121 123 120q39 0 39 -37q0 -16 -12 -55q-16 -51 -152 -213q10 -2 31 -2q27 0 80 6t80 6q25 0 48 -19t23 -42q0 -41 -77 -41q-27 0 -80.5 9 t-81.5 9q-25 0 -82 -4l-23 -30q18 -164 21 -172q18 -90 65 -160q10 -10 11 -23q0 -37 -31 -37q-16 0 -33 11q-33 -2 -72 125q-23 82 -43 161q-147 -178 -188 -178q-33 0 -33 37q0 14 88 109q55 59 109 116l-8 33q-94 -4 -99 -6q-49 -4 -100 -25q-10 -4 -18 -4q-18 0 -33 33 q-14 27 -15 47z" />
<glyph unicode="+" horiz-adv-x="899" d="M139 279q0 33 47 40q37 4 74 7l141 18q8 121 11 127q8 74 24 125q8 27 35 27q25 0 25 -31q0 4 -11 -96q-4 -47 -14 -144q35 6 70 6q47 0 92 -12q61 -18 61 -53q0 -33 -30 -33q-33 0 -100.5 11.5t-102.5 11.5q-4 -53 -8 -105q-6 -63 -23 -102q-33 -78 -72 -78 q-35 0 -34 33q0 18 18 55q23 51 25 55q16 49 32 140q-168 -25 -213 -25q-47 0 -47 23z" />
<glyph unicode="," horiz-adv-x="382" d="M39 -172q0 2 184 248q12 16 25 16q18 0 22 -18q21 -10 21 -33q0 -27 -101.5 -130.5t-128.5 -103.5q-23 0 -22 21z" />
<glyph unicode="-" horiz-adv-x="772" d="M72 285q0 18 26 28q14 6 191.5 26.5t206.5 20.5q49 0 92 -14q59 -18 59 -55q0 -31 -33 -31q-41 0 -121.5 11.5t-123.5 11.5q-39 0 -119 -13.5t-121 -13.5q-57 0 -57 29z" />
<glyph unicode="." horiz-adv-x="448" d="M111 41q0 8 57 52t70 46q2 1 45 -65q2 -18 -35 -68q-4 -25 -37 -24q-100 0 -100 59z" />
<glyph unicode="/" horiz-adv-x="833" d="M-145 -594q0 8 8 25q41 80 76 178q86 238 211 459q135 240 437 582.5t572 439.5q35 12 66 12q51 -1 51 -19q0 -14 -59 -28q-131 -29 -396 -277q-213 -201 -346 -372q-256 -328 -422 -699q-51 -117 -116 -313q-25 -57 -37 -58q-12 0 -28.5 29t-16.5 41z" />
<glyph unicode="0" horiz-adv-x="989" d="M45 184q0 76 231 324q293 315 392 315q23 0 22 -20q0 -6 -7 -19.5t-7 -25.5q0 -6 5 -21.5t5 -23.5q0 -84 -43 -123q-29 -27 -98 -45q-84 -20 -113 -37q-63 -35 -108 -109q-37 -66 -76 -133q0 -2 -43 -51q-27 -29 -27 -55q160 33 240 69q102 49 198 152q55 59 121 98 q35 78 35 119q0 18 -4 53t-4 51q0 33 9 43.5t42 10.5q47 0 84 -19q45 -24 45 -67q0 -104 -156 -213q-113 -231 -452 -342q-106 -35 -139 -35q-39 0 -60 26q-92 14 -92 78z" />
<glyph unicode="1" horiz-adv-x="1013" d="M53 256q0 20 56 41q37 14 73 27q61 31 160 94q119 78 158 100q61 35 182 141q115 100 170 162q20 29 33.5 42.5t46.5 13.5q31 -1 31 -46q0 -39 -23 -61q-8 -8 -45 -35q-88 -63 -238 -243q-39 -45 -69 -62q-61 -31 -129 -119q-88 -111 -107 -127q-59 -51 -164 -104 q-33 0 -32 33q0 43 69 86q106 66 185 202q-78 -55 -144 -82q-113 -49 -135 -59q-18 -27 -45 -29q-33 16 -33 25z" />
<glyph unicode="2" horiz-adv-x="1048" d="M61 90q0 88 140 174q127 78 221 78q39 0 84 -20q20 12 51 49q39 45 47 53q131 125 189 203q98 133 98 250q0 35 -29 34q-76 0 -237 -120q-166 -127 -166 -197q0 -37 47 -37q20 0 72 33q12 41 40 127q16 47 35 43q2 0 8.5 4t10.5 4q27 0 26 -47q0 -78 -62.5 -155 t-137.5 -77q-96 0 -97 109q0 78 72 162q66 76 143 112q20 8 60 27q51 31 104 64q63 35 113 34q96 1 96 -112q0 -221 -432 -604q14 -39 51 -113l17 -8q20 0 59 26q14 23 59 60t60 57q25 39 47 78q35 51 68 59q10 2 20 -8t10 -22q0 -49 -142 -189.5t-181 -140.5q-68 0 -93 47 q-14 49 -30 98q-35 -27 -67 -39t-132 -88q-72 -55 -168 -55q-74 0 -74 47zM152 129l6 -10q59 0 129 43q109 68 116 71q41 19 43 37q0 6 -43 6q-66 0 -138 -44t-113 -103z" />
<glyph unicode="3" horiz-adv-x="874" d="M41 201q0 47 22 47q63 0 92 -66.5t83 -66.5q84 0 196.5 119.5t112.5 201.5q0 41 -32 106.5t-32 86.5l4 14q0 2 -3 10.5t-3 10.5q0 35 56 63q82 41 81 41q141 119 142 168q0 39 -35 39q-57 0 -157.5 -49t-121.5 -97q-12 -57 -24 -116q-25 -80 -103 -80q-27 0 -30 35 q-14 33 -15 47q0 41 57.5 118.5t98.5 102.5q131 80 221 113q4 2 27 14q16 8 29 8q43 0 86 -40t43 -83q0 -70 -136.5 -209t-136.5 -145q0 -35 35 -89t35 -87q0 -164 -221 -350q-23 -10 -64 -35q-20 -18 -39.5 -37t-52.5 -19q-70 0 -109 37q-23 20 -64.5 91t-41.5 96z" />
<glyph unicode="4" horiz-adv-x="948" d="M72 459q0 18 18 18q29 0 74 -10t43 -10q68 0 285 239q225 252 233 256q14 0 28.5 -34.5t14.5 -53.5q0 -20 -45 -59q-27 -23 -80 -68q-39 -31 -121 -135q-72 -94 -123 -121.5t-51 -50.5q0 -10 53 -27q47 -14 64 -14q94 0 172 66q35 29 106 118q51 66 80 66q12 0 31.5 -35 t19.5 -49q0 -8 -16 -14q-23 -8 -22 -9q-23 -25 -66 -71q-31 -29 -86 -90q-14 -20 -37.5 -63.5t-40.5 -63.5q-29 -27 -76 -92q-29 -72 -73 -72q-16 20 -35 42.5t-16 43.5q2 29 46 62.5t44 64.5q0 14 -26 23.5t-42 9.5q-4 0 -112.5 26.5t-141.5 28.5t-84 10q-18 8 -18 68z" />
<glyph unicode="5" horiz-adv-x="1187" d="M53 -76q-12 90 2 107q12 111 72 162q16 12 35 12q27 0 28 -21q2 -25 -12 -43q-51 -66 -51 -164q0 -59 23 -59q8 0 43 19q92 49 186 143q16 12 45 41q18 25 82 188q16 31 39 92q12 59 -1.5 88t-88.5 41q-98 16 -107 21q-94 41 -94 100q0 29 43 76q31 35 92 107 q25 29 86 118q49 78 90 115q16 12 29 12q35 0 35 -37v-38q0 -61 20 -95q31 -47 86 -47q27 0 108 34t113 54q55 33 99.5 86.5t44.5 98.5v16q-2 12 -2 16q0 37 39 37q30 1 30 -67q0 -82 -55 -150q-74 -90 -242 -162q-96 -41 -141 -41q-100 0 -168 129q-27 -57 -110 -139 q-88 -88 -115 -133q-4 -8 12.5 -13t32.5 -10q10 -4 123 -26q72 -14 102 -66q16 -29 12 -129q-6 -156 -67 -247q-25 -25 -70 -76q-111 -143 -227 -221q-80 -53 -104 -54q-51 0 -74 39q-14 25 -23 86z" />
<glyph unicode="6" horiz-adv-x="1224" d="M80 266q0 150 100 285q59 82 217 221q39 39 123 105q78 45 246 100q4 2 188 72q154 59 174 59q19 0 19 -37q0 -39 -119 -86q-59 -16 -172 -61q-37 -31 -119 -86q-25 -12 -59 -17q-43 -2 -60 -8q-49 -16 -104 -78q-43 -49 -86 -100q-23 -25 -59 -57q-78 -66 -136 -164 q-66 -111 -65 -201q0 -115 65 -115q51 0 123 21q53 16 181 92q143 86 143 121t-99.5 59.5t-99.5 32.5q0 27 38 61.5t63 34.5q-4 0 96 -33q53 -18 91 -63t38 -100q0 -96 -195 -213q-182 -111 -286 -111q-246 0 -246 266z" />
<glyph unicode="7" horiz-adv-x="897" d="M-281 -248q0 10 86 105q76 86 234 249q203 176 407 351q297 266 314 383q-86 18 -172 34q-127 33 -127 84q0 43 39 43q23 0 35 -20q33 -57 149 -57q23 0 63.5 2t55.5 2q37 0 37 -35q0 -141 -178 -346q-33 -37 -289 -291q-49 -49 -165 -129t-165 -129q-57 -84 -117 -170 q-78 -113 -145 -113q-61 0 -62 37z" />
<glyph unicode="8" horiz-adv-x="1157" d="M43 186q0 84 90 236q37 63 109 117q20 14 55 43q6 20 6 61q0 104 69.5 189.5t172.5 85.5q55 0 55 -31q0 -27 -55 -27q-113 0 -166 -127q-16 -37 -8 -90l198 129q172 113 301 180q4 10 21 17q47 25 92 47q57 29 98 28q86 0 86 -47q0 -45 -55 -45q-6 0 -22 2h-23 q-37 0 -102 -20q-2 -10 -17 -19q-57 -25 -170 -79q-55 -31 -176 -111q-72 -59 -221 -168q14 -100 27 -164q68 -92 67 -198q0 -100 -47 -170q-53 -82 -149 -82q-94 0 -165 74.5t-71 168.5zM129 227q0 -63 39 -131q45 -76 104 -76q61 0 103 56q35 48 35 114q0 35 -25 93 q-29 70 -33 92q-47 63 -53 133q-94 -80 -117 -115q-12 -18 -32.5 -81.5t-20.5 -84.5z" />
<glyph unicode="9" horiz-adv-x="763" d="M-362 -317q0 39 51 90t92 63q29 6 86 37q25 29 74 86q35 37 94 88q86 70 100 82q55 49 131 133q109 117 127 137q57 47 166 146q-113 -66 -217 -66q-41 0 -73.5 21.5t-32.5 62.5q0 80 182 219.5t268 139.5q20 0 21 -21q0 -8 -8.5 -14t-10.5 -15q-14 -41 -99 -62.5 t-169 -92.5q-94 -80 -94 -154q0 -25 28 -24q6 0 70 26q137 57 184 90q84 59 125 166q6 18 19.5 51t46.5 33q65 0 65 -61q0 -29 -20 -56q-2 -2 -152 -157q-53 -68 -166 -197q-47 -43 -137 -131q-106 -121 -278 -307q-117 -109 -342 -334q-35 -37 -84 -37q-47 0 -47 58z" />
<glyph unicode=":" horiz-adv-x="475" d="M133 158q0 12 55.5 55t75.5 41q18 -8 26.5 -27t14.5 -37q-2 -25 -45 -88q-12 -6 -27 -6q-100 0 -100 62zM287 606q8 27 65 74l13 2q96 -19 96 -80q0 -14 -60.5 -42t-81.5 -28q-8 0 -11 3.5t-14 31t-7 39.5z" />
<glyph unicode=";" horiz-adv-x="440" d="M143 -141q0 6 9 18q37 53 122 258q10 23 27 23q10 0 28.5 -18.5t18.5 -28.5q0 -29 -76.5 -151t-99.5 -122q-29 0 -29 21zM324 494q25 92 82 92q18 0 40.5 -59.5t22.5 -84.5q0 -10 -2 -14q-59 -16 -72 -16q-10 0 -35.5 28.5t-33.5 42.5z" />
<glyph unicode="&#x3c;" horiz-adv-x="327" d="M49 -254q0 102 84 211q74 98 174 152q4 2 16.5 11t18.5 9q16 0 16 -12q0 -6 -6 -11q-20 -10 -57 -36q-74 -57 -137 -140q-82 -104 -82 -172q0 -10 6 -27.5t6 -25.5q0 -12 -6 -12q-8 0 -20.5 21.5t-12.5 31.5z" />
<glyph unicode="=" horiz-adv-x="899" d="M139 285q0 18 25 28q10 4 189 25.5t200 21.5q43 0 86 -14q55 -20 55 -53t-30 -33q-37 0 -113 11.5t-115 11.5q-41 0 -122 -13.5t-121 -13.5q-53 0 -54 29zM168 518q0 31 33 31q39 0 116.5 -11.5t116.5 -11.5h19q2 0 149 19q88 12 150 12q53 0 53 -31q0 -20 -25 -28 q-33 -4 -96 -13q-76 -6 -227 -18q-16 -2 -74 -10q-45 -6 -74 -6q-41 0 -84 14q-57 20 -57 53z" />
<glyph unicode="&#x3e;" horiz-adv-x="415" d="M-41 90q0 14 133 84q80 41 103 55q53 33 88 74q0 10 8 10q80 94 80 185q0 55 -46 99t-102 44q-6 0 -20.5 -4t-22.5 -4h-6q-6 0 -6 10q0 20 57 21q72 0 122 -42t50 -112q0 -139 -131 -260q-31 -29 -198 -121q-92 -51 -99 -51q-10 0 -10 12z" />
<glyph unicode="?" horiz-adv-x="1785" d="M309 -57q0 63 86 102q66 29 142 29q28 0 28 -72q0 -27 -14 -49q-14 -29 -39 -29q-12 0 -48 22.5t-56 22.5q-31 0 -68 -32l-23 -3zM309 1382q0 41 105 107q74 39 145 80q260 145 494 145q86 0 264 -52t252 -97q45 -29 67 -64q12 -23 37 -88q2 -4 25 -53q16 -30 16 -53 q0 -145 -88 -250q-41 -49 -205 -176q-33 -31 -100 -84q-14 -6 -39 -19q-43 -25 -133 -67q-100 -39 -199 -76q-158 -59 -174 -80q-12 -12 -82 -129q-57 -96 -88 -107.5t-43 -11.5q-20 0 -20 19q0 45 55 143q49 88 88 133q51 59 145 96q16 6 173 54q197 59 305 147 q291 236 290 393q0 27 -8 54q-27 82 -213 170q-150 70 -270 94q-31 6 -109 6q-96 0 -225 -60q-39 -16 -207 -108q-43 -23 -121 -82q-55 -41 -77 -41q-20 0 -40 18.5t-20 38.5z" />
<glyph unicode="@" horiz-adv-x="1792" d="M88 6q0 307 176 510q68 78 129 158q76 100 92 119q53 66 105 106q137 113 361.5 191.5t404.5 78.5q348 0 348 -276q0 -305 -96 -475q-68 -121 -269 -273q-41 -31 -79 -61q-49 -33 -95 -33q-98 0 -139 33q-20 16 -27 16q-27 0 -132 -94t-201 -94q-180 0 -181 117 q0 55 203 233q197 176 262 189q23 4 58 4q37 0 49 -51.5t22 -51.5q23 0 57.5 20.5t49.5 20.5q45 0 45 -22q0 -18 -58.5 -86t-58.5 -101q0 -80 80 -80q66 0 174 127q129 150 172 322q31 127 31 362q0 70 -57.5 127.5t-127.5 57.5q-258 0 -348 -43q-23 -10 -109.5 -67.5 t-262.5 -160.5q-102 -51 -160 -120q-37 -45 -76 -123q-63 -129 -65 -131q-145 -260 -146 -496q0 -111 51 -149q33 -25 107 -29t92 -23q6 -12 25 -32q12 -8 27.5 -18.5t15.5 -18.5q0 -31 -115 -31q-139 0 -236.5 103.5t-97.5 244.5zM659 59q0 -18 37 -18q14 0 43 5t43 5 q41 0 151.5 98.5t110.5 137.5q0 20 -11 51t-29 31q-16 0 -27.5 -2t-157 -125t-149.5 -136q-10 -25 -11 -47z" />
<glyph unicode="A" d="M92 94q0 12 23 39q10 12 161 121q68 49 101 74q70 53 86 80q12 12 24 36q4 27 -48 27t-52 57q0 37 49 160q57 143 76 172q49 80 143 117l25 6q33 0 77 -60.5t66 -60.5q12 0 331 395.5t353 395.5q27 0 27 -43q0 -88 -150 -396q-174 -356 -194 -426q-2 -10 -21.5 -46.5 t-19.5 -39.5q0 -20 10 -20q5 -1 10 -1q51 0 105 58q12 12 80 101q47 59 82 78q16 8 28 8q31 0 31 -35q0 -6 -6 -17q-35 -33 -64 -79q-49 -82 -51 -86q-49 -70 -102 -111q-43 -29 -133 -72q-25 -10 -74 -34q-10 -6 -72.5 -108.5t-70.5 -123.5q-25 -72 -35 -190 q-12 -164 -17 -193q-6 -41 -32 -96q-39 -88 -41 -94q-121 -319 -344 -482q-23 -16 -33 -16q-20 0 -31.5 16.5t-11.5 55.5q0 61 31 145q41 115 129 342q76 176 241 430q82 127 82 217q0 78 -67 78q-66 0 -140 -24q-29 -10 -223 -209q-180 -184 -266 -185q-72 0 -72 39z M494 610q0 -78 79 -78q20 0 97.5 88t77.5 111q0 14 -13.5 50t-23.5 36q-70 0 -143.5 -69.5t-73.5 -137.5zM504 -471q0 -90 55 -90q27 0 98 123q66 111 80 157q56 177 62 320q-2 2 -6 2q-12 0 -19.5 -15.5t-155.5 -252.5q-115 -182 -114 -244zM715 557q0 -41 45 -41 q57 0 57 49q0 59 -43 60q-25 0 -42 -21.5t-17 -46.5zM860 745q0 -59 14 -114q20 -80 60 -80q41 0 74 47q66 94 139 301q37 104 72 211q24 41 49 115l-15 14q-37 -14 -182 -213q-162 -223 -194 -256q-16 -16 -17 -25z" />
<glyph unicode="B" horiz-adv-x="1597" d="M88 -143q0 14 12 26q27 27 78 58q63 37 82 51q104 80 238 217q111 117 223 233q45 49 127 129l-27 -4q-27 -14 -135 -63q-117 -53 -127 -53q-41 0 -41 26q0 8 14.5 22.5t47.5 32.5q53 29 172 78q127 49 135 54q195 100 356 284q31 41 98 117q8 8 31 8q39 0 35 -35 q-6 -18 -14 -32q-68 -109 -213 -258q12 -2 37 -3q29 0 90 15.5t88 30.5q66 35 129 155.5t63 200.5q0 66 -53 86q-31 12 -111 12t-168 -33q-80 -35 -157 -69q24 -41 24 -106v-5q0 -119 -137 -232.5t-260 -113.5q-109 0 -109 92q0 68 127 199t127 141q0 12 -55 12 q-20 0 -61 -8t-62 -8q-55 0 -55 41q0 57 248 57q18 0 53 -8t51 -8q53 0 201.5 66.5t210.5 66.5q102 0 178 -29q104 -43 104 -129q0 -162 -82.5 -288.5t-230.5 -182.5l6 -6q47 -2 82 -145q27 -111 27 -187q0 -123 -57.5 -231t-161.5 -168q-129 -74 -152 -84q-76 -33 -170 -33 q-63 0 -94 7q-63 12 -123.5 84.5t-60.5 136.5q0 92 67 198q74 117 160 117q55 0 80 -70q2 -5 2 -10q0 -22 -39 -37q-27 -10 -31 31q-2 14 -35 4q-106 -80 -106 -174q0 -70 86 -121q74 -43 149 -43q74 0 172 56q86 47 146 110q69 73 69 291v6q0 182 -73 227q-16 29 -129 29 q-121 0 -353 -229q-154 -166 -307 -334q-43 -45 -194 -168q-166 -135 -193 -135q-49 0 -49 35zM707 780q0 -20 49 -20q31 0 112 47q74 41 103 70q39 39 39 135q0 61 -41 61q-51 0 -156.5 -119.5t-105.5 -173.5z" />
<glyph unicode="C" horiz-adv-x="1230" d="M-207 -459q0 18 168 180q180 172 203 207q-90 78 -90 207q0 66 28.5 174.5t64.5 164.5t122 128q96 88 190 174q117 104 207 158q100 55 297 168q8 49 59 160q55 127 84 127q35 0 35 -29q0 -8 -28 -72q-35 -78 -37 -82q90 70 196 121q129 63 217 64q72 0 121 -45t49 -115 q0 -217 -149 -381q-154 -170 -367 -170q-196 0 -196 290q0 26 2 54q-272 -154 -596 -465q-61 -59 -103 -113q-82 -106 -82 -198q0 -147 60 -223q49 39 172 161q106 102 180 154q49 43 152 125q49 45 98 88q59 53 115 53q14 0 42.5 -4t45.5 -4q143 0 143 -90q0 -49 -92 -178 q-74 -104 -137 -185q-94 -119 -266.5 -208t-319.5 -89q-80 0 -150 35q-27 -25 -61 -71q-41 -57 -59 -76q-35 -37 -142 -125q-119 -100 -141 -100q-35 0 -35 30zM285 -68q43 -12 88 -12q213 0 420 172q80 66 204 238q23 31 72 92q20 18 40.5 39.5t20.5 44.5q0 26 -62 26h-5 q-27 0 -133 -43q-129 -51 -510 -411q-43 -49 -135 -146zM1053 1010q0 -260 118 -260q154 0 293.5 123.5t139.5 275.5q0 37 -17 82q-18 57 -49 57q-100 0 -285 -92q-201 -100 -200 -186z" />
<glyph unicode="D" horiz-adv-x="2013" d="M88 -74q0 119 156 217q139 88 266 88q170 0 297 -59q51 76 266 336q-188 29 -223 47q-78 39 -131 182q-23 61 -23 109q0 104 103 233q55 72 170 129q100 53 200 74q70 4 207 21q39 6 176 6q162 0 324 -143.5t162 -301.5q0 -524 -535 -821q-209 -117 -319 -117 q-74 0 -189 54q-92 45 -182 90q-131 -102 -264 -205q-117 -70 -332 -70q-51 0 -90 40t-39 91zM174 -84q0 -41 59 -41q158 0 273 66q28 13 225 163q-80 27 -96 27q-344 0 -430 -137q-31 -49 -31 -78zM772 834q0 -131 121 -197q96 -51 240 -51q27 29 88 71.5t86 67.5 q135 135 196 225q25 45 51 88q35 53 80 54q33 0 33 -29q0 -12 -8 -37q39 23 55 23q63 0 64 -93q0 -186 -148 -286q-98 -68 -315 -121q-45 -16 -141 -41q-94 -125 -293 -375q152 -74 151 -74q90 -36 160 -36h4q84 0 201 69q25 14 180 123q59 39 170 131q51 55 84 115 q98 178 98 180q21 52 21 197q0 104 -14.5 139t-84.5 117q-12 12 -108 86q-23 16 -139 34q-102 14 -152 15q-197 0 -317 -31q-170 -43 -267 -158q-53 -63 -69 -94q-27 -49 -27 -112zM1317 635q174 59 248 102q143 86 143 205q0 23 -31 23q-20 0 -37 -17q-33 -37 -96 -110 q-113 -125 -227 -203z" />
<glyph unicode="E" horiz-adv-x="1368" d="M92 76q0 104 27 178q53 147 196 258q142 110 282 110q10 0 19 -1q-18 55 -18 112q0 82 36 180.5t91 157.5q-41 41 -74 152q-30 97 -30 166q0 18 11 32.5t23 14.5q18 0 35 -9q14 -43 55 -149q12 -53 41 -88q14 -16 31 -35q283 250 416 250q63 0 113 -27q61 -31 61 -90 q0 -37 -47 -112q-76 -119 -156 -179q-90 -63 -221 -79q-55 18 -110.5 36.5t-102.5 65.5q-49 -61 -70 -96q-6 -40 -6 -97.5t6 -132.5q4 -39 76 -164q10 -18 10 -45q0 -39 -43 -43q-14 4 -32 25l-29 29q-43 35 -166 41q-106 -45 -178 -115q-53 -55 -125 -172q-6 -37 -6 -72 q0 -59 14 -139q82 -109 160 -109q84 0 199 23q98 23 196 43q82 16 189 67q92 43 182 89q14 6 90 90q72 78 82 77q29 0 20 -18q-92 -213 -448 -360q-313 -131 -584 -131q-109 0 -166 79q-49 72 -49 187zM848 1098q86 -115 168 -115q74 0 189.5 95t115.5 167q0 33 -25.5 55.5 t-58.5 22.5q-51 0 -201 -92q-125 -78 -188 -133z" />
<glyph unicode="F" horiz-adv-x="1386" d="M10 -512q0 25 51 150q74 180 152 276q63 80 233 213q57 57 175 170q213 188 536 356q31 45 131 219q80 135 144 211q-41 0 -121 -14t-121 -14q-39 0 -119 5t-121 5q-160 0 -284 -68q-152 -82 -152 -227q0 -27 41 -58.5t70 -31.5q133 0 243 102q16 18 53 51t72 33 q27 0 27 -41q0 -70 -150.5 -176t-226.5 -106q-72 0 -135 86q-61 80 -62 153q0 74 41 152q72 137 154 180q74 39 236 39q53 0 160.5 2t160.5 2q37 0 108.5 9.5t106.5 9.5q55 0 107 18q94 117 196 192q111 74 221 150q82 59 99 59q30 0 30 -82q0 -27 -55 -104q-31 -47 -59 -94 q-35 -51 -80 -78q-111 -66 -318 -129q-195 -227 -292 -428q68 20 249 59q143 31 181 31q53 0 53 -41q0 -29 -58.5 -40t-177.5 -30q-66 -14 -196 -38q-49 -33 -142 -101q-63 -51 -194 -272q-150 -252 -391 -518q-315 -350 -496 -351q-35 0 -59 39q-20 33 -21 70zM165 -471h11 q135 8 295 195q113 150 227 299q51 47 148 149q37 45 84 127q58 102 78 133q-293 -193 -527 -389q-368 -314 -368 -476q0 -38 52 -38z" />
<glyph unicode="G" horiz-adv-x="1619" d="M-94 -756q0 37 28 76q25 31 52 64q43 70 139 200q41 47 119 105q104 78 127 96q61 68 200 184q311 209 623 361q49 88 176 243.5t174 243.5q-72 -43 -358 -266q-215 -168 -383 -225q-78 -27 -103 -27q-37 0 -63 53q-39 80 -39 129q0 51 33 103q33 45 63 90q14 31 43 90 q104 203 387 412q-14 33 -14 61q0 12 10 12q25 0 56 -37q182 123 299 123q12 0 34 2h35q121 0 121 -96q0 -98 -123 -174q-111 -68 -217 -68q-117 0 -156 82q-109 -72 -235 -211q-133 -145 -184 -254q-35 -72 -35 -180q0 -41 39 -41q6 0 84 23q98 29 206 110q6 4 185 152 q346 287 452 287q35 0 35 -43q0 -37 -164 -254q-104 -135 -209 -269q68 23 150 60q55 41 219 102q74 29 170 68q27 10 31 -17q0 -6 -15 -26q-25 -27 -106 -62q-53 -23 -106 -43l-13 -6q-31 -4 -86 -43q-70 -47 -92 -57q-82 -33 -244 -105q-31 -43 -70.5 -134t-67.5 -132 t-85 -104q-70 -78 -90 -105q-39 -49 -94 -106q-270 -274 -365 -350q-246 -197 -446 -197q-127 0 -127 100zM-18 -762q0 -22 33 -22h3q23 0 72 14q197 57 387 207q135 109 316 311q27 29 62.5 93.5t55.5 90.5q138 175 197 269q-205 -115 -254 -144q-141 -84 -246 -155 q-41 -29 -98 -86q-70 -74 -92 -92q-84 -59 -240 -197q-29 -31 -67 -94q-43 -70 -64.5 -94.5l-43 -49t-21.5 -51.5zM1235 1118q2 -41 76 -41q76 0 151 31q127 50 127 132q0 17 -104 17q-62 0 -62 2l4 1q-35 -2 -43 -23q-33 -72 -88 -88t-61 -31z" />
<glyph unicode="H" horiz-adv-x="1284" d="M57 111q0 14 21 118q25 129 31 148q27 74 92 119q74 49 241 49q-2 0 146 -6q94 129 198 317q131 240 132 332q0 25 -48 43q-39 14 -69 14q-74 0 -127 -35q-35 -20 -70 -63q-27 -35 -37 -35q-25 0 -24 29q0 100 80 155q70 51 174 52q8 0 23.5 6t23.5 6q53 0 109.5 -80 t56.5 -135q0 -57 -144 -299q-94 -156 -188 -314q31 -2 94 -2q207 0 293 74q25 20 39 64q25 68 24 69q27 57 171.5 272.5t160.5 231.5q88 100 240 150q51 16 72 16q88 0 88 -96q0 -47 -29 -101q-2 -4 -57 -88q-229 -356 -500 -495l-123 -64q-80 -96 -225 -297 q-37 -59 -82 -160q-57 -131 -76 -165q-27 -47 -78 -142q-35 -76 -98 -256q-72 -201 -72 -248q0 -33 8.5 -95t8.5 -93q0 -49 -8.5 -65.5t-45.5 -40.5q-6 -4 -14 -5q-43 0 -43 48q0 12 6 36.5t6 36.5q0 16 -4 50t-4 53q0 223 98 426q27 45 74 137q8 18 96 233q59 141 115 226 q63 82 182 247q-100 -33 -366 -59q-43 -80 -119 -172q-72 -78 -141 -156q-6 -8 -93 -110q-47 -57 -106 -58q-53 0 -86 64q-27 53 -27 113zM143 174q0 -96 70 -96q25 0 35 8q37 47 88 111q76 88 213 272h-88q-150 0 -204 -44t-99 -192q-14 -47 -15 -59zM1237 692 q233 125 471 469q61 88 61 133q0 29 -24 29q-10 0 -41 -29q-51 -39 -148 -125q-80 -88 -170 -231q-74 -123 -149 -246z" />
<glyph unicode="I" horiz-adv-x="1372" d="M29 -43q0 61 202 109q150 35 229 35q13 0 25 -1q131 236 459 613q41 47 160 227q33 41 86 131q-135 51 -270 103q-164 59 -283 59q-117 0 -117 -191q0 -80 37 -109.5t121 -29.5q41 0 117.5 27.5t115.5 27.5q25 0 25 -38q0 -27 -123 -87.5t-160 -60.5q-92 0 -167.5 92 t-75.5 187q0 94 35.5 150t121.5 99q57 29 90 29q84 0 207 -43q100 -39 201 -78q39 -14 195 -43q74 137 106 138q25 0 25 -37q0 -39 -45 -111q53 -6 102 -6q305 0 649 188q12 2 31.5 10.5t28.5 8.5q26 0 26 -37q0 -16 -20 -35q-102 -92 -373 -170q-250 -74 -410 -74 q-68 0 -108 13q-115 -207 -117 -213q-72 -121 -137 -203q-31 -33 -88 -100q-6 -8 -86 -144q-78 -111 -207 -307q696 -215 696 -578q0 -92 -53 -92q-14 0 -31 43q-113 268 -260 383q-156 119 -438 140q-100 -139 -131 -140q-10 0 -19 8l-8 23q2 10 41 113q-31 10 -86 10 q-98 0 -172 -23q-10 -4 -62.5 -27.5t-60.5 -23.5q-25 0 -24 35z" />
<glyph unicode="J" horiz-adv-x="1400" d="M45 -502q0 135 150 301q59 68 258 242q182 160 219 160q25 0 24 -31q0 -23 -94 -96q-59 -45 -119 -92q-88 -86 -170 -191q-112 -146 -112 -218q0 -21 10 -36q313 16 524 195q170 143 336 456q33 59 66 119q22 53 22 130v7q0 51 -12 151.5t-12 149.5q0 55 19.5 150.5 t41.5 138.5q18 25 53 74q16 31 35 59q10 16 53 50q6 4 80 88q49 57 99 57q16 0 16 -29q0 -23 -100 -121q-109 -111 -123 -135q-43 -76 -52 -252v-266q0 -135 -55 -330q-63 -213 -141 -295q-463 -483 -899 -483h-37q-80 0 -80 47z" />
<glyph unicode="K" horiz-adv-x="1361" d="M90 -6q0 154 60 344q63 207 155 307q51 55 82 64q20 -2 21 -31q0 -18 -62 -103q-78 -106 -117 -184q-61 -129 -61 -254q0 -27 12 -65q14 -47 35 -47q4 0 11 3t12 3q16 0 48.5 -4t49.5 -4q160 0 416 354q-98 47 -99 168q0 66 41 149q49 96 107 97q41 0 86 -39 q33 -37 65 -72q244 385 244 520q0 37 -45 37q-39 0 -118 -29.5t-103 -56.5q-10 -14 -23 -29q-16 -20 -28 -20q-33 0 -33 31q0 57 145 139q137 78 203 78q84 0 84 -93q0 -90 -111 -323q-16 -37 -163 -322q8 -14 23 -44.5t22 -47.5q385 233 731 828q137 236 155 235 q23 0 23 -29q0 -25 -62 -124q-41 -66 -81 -132q-172 -289 -320 -469q-195 -236 -418 -383q20 -55 37 -159q18 -117 31 -162q31 -70 86 -207q27 -76 69.5 -303t42.5 -301q0 -27 -14 -70q-18 -51 -39 -51q-18 0 -43 123q-12 76 -24 154q-106 561 -265 913q-55 -25 -122 -25 q-162 -213 -291 -315q-188 -152 -389 -152q-66 0 -66 103zM729 569q0 -94 82 -106l72 104q-18 35 -37 70q-27 43 -58 43q-59 0 -59 -111z" />
<glyph unicode="L" horiz-adv-x="1785" d="M92 -551q0 63 193 275q139 154 311 305q61 59 156 139q162 106 342 125l131 158q-23 29 -23 63q0 92 66 125q45 23 147 23q23 20 66 75q76 96 182 207l164 180q113 123 196 193q178 148 301 148q10 0 19 -1q51 -6 92 -38.5t41 -77.5q0 -98 -135 -242q-102 -104 -207 -209 q-117 -141 -500 -385q-203 -129 -326 -129q-17 0 -32 2l-51 -63q29 4 41 4q59 0 126.5 -29t106.5 -72q27 -31 40 -76t24 -88q41 -135 41 -170q0 -41 -19 -94q-25 -67 -56 -67h-1q-55 0 -78 125q-33 180 -61 235q-63 125 -224 125h-26q-92 -123 -314 -403 q-393 -479 -598 -480q-55 0 -95 32t-40 85zM180 -516q0 -23 21.5 -45.5t42.5 -22.5q51 0 104 37q43 35 88 72q197 158 367 379q70 99 211 289q-113 -27 -217 -93q-25 -14 -181 -159q-176 -162 -262 -254q-174 -184 -174 -203zM1280 518l55 64h-8q-31 0 -47 -64zM1360 485 q137 43 225 88q295 150 481 369q98 92 197 186q135 131 135 209q0 15 -16 31q-15 15 -30 14h-3q-166 -16 -285 -116q-78 -66 -188 -197q-139 -166 -156 -182q-90 -94 -172 -197q-63 -68 -188 -205z" />
<glyph unicode="M" horiz-adv-x="2693" d="M100 -260q0 39 33 84q121 168 238 272q162 127 483 355q147 98 418 260q49 27 139 59q100 37 139 55q86 39 189 123q76 61 104 103q43 61 43 139q0 223 -186 336q-156 94 -397 94q-115 0 -259 -68q-86 -41 -182 -112q-29 -29 -43 -29q-29 0 -28 29q0 45 55 119 q72 96 233 129q92 18 275 18q94 0 151 -14q33 -8 137 -52q174 -70 242 -122q121 -92 121 -230q0 -145 -70.5 -264t-197.5 -182q82 22 118 22h3q239 0 239 -235q0 -111 -61 -244q-18 -43 -119 -221q229 139 459 276q340 203 444 203q25 0 25 -18q0 -29 -33 -70 q-18 -23 -55 -47q-57 -41 -62 -43q-66 -53 -192 -199q-154 -176 -154 -237q0 -33 64 -33q80 0 194 82q66 47 94 47q18 0 27 -10q-80 -61 -184 -113q-127 -61 -205 -61q-94 0 -94 100q0 98 143 291q-123 -39 -342 -170q-172 -102 -287 -150q-12 -8 -20 -8q-98 0 -99 57 q0 31 78 84q90 61 172 227.5t82 278.5q0 119 -139 119q-84 0 -166 -29q-98 -111 -301 -329q-37 -39 -475 -449q-193 -180 -207 -192q-106 -94 -166 -121q-150 -66 -266 -66q-61 0 -106.5 47t-45.5 109zM211 -287q43 -22 88 -22h4q86 0 246 112q57 39 221 177 q420 348 653 657q-61 -12 -192 -82q-225 -119 -602 -391q-147 -106 -281 -252q-125 -137 -137 -199z" />
<glyph unicode="N" horiz-adv-x="1527" d="M92 -119q0 29 27.5 47.5t56.5 35t100 75.5q123 102 220 186q150 131 206 187q139 131 181 200q18 31 30 103q43 236 267 440q57 53 100 53q29 0 49.5 -19.5t20.5 -45.5q0 -72 -156 -277q-195 -254 -209 -280q-37 -68 -37 -195v-145q37 23 137 137q152 176 367 346 q225 178 625 377q203 100 333 141q170 51 361 51q289 0 289 -141q0 -57 -67.5 -144t-123.5 -87q-16 0 -16 12q0 31 69.5 89t69.5 108q0 96 -182 96q-436 0 -991 -348q-477 -299 -818 -695q-74 -86 -81 -98q-23 -41 -37 -125q-4 -33 -20.5 -96.5t-80.5 -159.5 q-73 -112 -122 -112h-1q-57 0 -57 67q0 102 68 211q61 94 125 186q67 115 67 233q0 112 -12 163q-100 -84 -330 -291q-119 -113 -368 -324q-12 -8 -25 -8q-35 0 -35 47zM682 -276q18 4 52 57.5t34 73.5q0 16 -18 22q-20 -3 -49 -75q-22 -53 -22 -71q0 -5 3 -7zM1042 836 q0 -33 21 -33q6 0 35 43q14 33 54 89t40 66q0 27 -27 27q-31 0 -55 -59q-33 -76 -41 -84q-27 -29 -27 -49z" />
<glyph unicode="O" horiz-adv-x="1574" d="M129 6q0 135 45 270q47 147 131 240q-51 35 -99 129t-48 156q0 55 41 55q12 0 24 -35q41 -119 47 -133q29 -59 86 -113q117 129 193 189q111 82 242 115q48 34 136 34h5q12 0 18 -2q127 -25 178 -51q92 -49 93 -145q0 -72 -27 -117q-16 -23 -82 -88q-90 -88 -161.5 -120 t-192.5 -32q-186 0 -355 97q-145 -242 -145 -496q0 -178 152 -178q258 0 389 55q260 109 403 232q166 141 273 370q135 293 135 477q0 70 -57.5 127.5t-127.5 57.5q-281 0 -346 -43q-4 -2 -44 -37t-48 -35q-26 0 -26 61q0 58 192 95q140 28 235 28h7q348 0 348 -276 q0 -254 -211 -555q-199 -283 -488 -477q-305 -203 -559 -203q-356 0 -356 348zM440 524q125 -49 297 -49q393 0 393 236q0 51 -67 82q-51 24 -108 24h-5q-16 0 -26 -2q-51 -14 -125 -21.5t-109 -19.5q-55 -18 -115 -72q-66 -59 -135 -178z" />
<glyph unicode="P" horiz-adv-x="1841" d="M90 664q0 121 92 280q98 170 230 234q94 45 321 75q41 6 166 37q102 27 166 27q57 0 172 -9.5t172 -9.5q193 0 377 -106q215 -125 215 -303q0 -188 -180 -424q-188 -246 -371 -246q-98 0 -202.5 63.5t-137.5 151.5q-84 -76 -168 -149q-98 -90 -156 -164q-31 -47 -96 -139 q-23 -27 -244 -212.5t-227 -185.5q-37 0 -37 41q0 37 11 64q18 47 90 92q96 63 112 78q39 41 117 118q72 66 213 197q70 66 161 171.5t345 316.5q57 53 182 149q41 25 82 47q51 33 72 60q25 43 50 87t83 44q41 0 41 -45q0 -53 -174 -170q-113 -76 -228 -152 q-47 -37 -161 -180q0 -72 102 -135q90 -55 168 -56q152 0 315 215q158 205 158 361q0 135 -195 231q-166 84 -317 84q-57 0 -171 11.5t-171 11.5q-63 0 -166 -27q-125 -31 -164 -37q-207 -29 -282 -63q-119 -55 -205 -203q-78 -133 -78 -229q0 -109 86 -168q76 -53 191 -54 q74 0 127 61.5t53 135.5q0 35 -37 35q-33 0 -59.5 -36t-43.5 -36q-40 0 -40 43q0 47 56 93t101 46q49 0 78 -35.5t29 -84.5q0 -117 -74 -211q-80 -100 -193 -101q-150 0 -247 78q-109 84 -109 232z" />
<glyph unicode="Q" horiz-adv-x="1642" d="M117 35q0 14 4 37q59 317 311 528q86 57 244 184q12 47 135 113q113 59 174 68q35 4 148 30q90 20 147 21q51 0 83 -39t32 -90q0 -37 -21 -78q-25 -47 -57 -47q-31 0 -31 31q0 4 9.5 26.5t9.5 36.5q0 47 -17 57q-16 10 -53 -2q-92 -29 -172 -43q-51 -8 -167 -51t-163 -69 q-172 -100 -305 -277q-149 -196 -149 -373q0 -90 116 -141q90 -39 195 -39q41 0 61 2q25 27 146 174q86 109 159 162q-16 -2 -114 -20q-70 -14 -115 -15q-20 0 -45 22.5t-25 43.5q0 31 25 52t55 21q10 0 44 -16t59 -16q113 0 161 28q66 43 129 84q219 111 254 111 q23 0 23 -43q0 -63 -64 -119l-114 -82q-39 -29 -84 -31q-53 -2 -76 -14q-10 -6 -55 -74q-51 -72 -64 -86q-68 -53 -196 -170q213 35 426 158q199 115 354 285q80 86 172 270q74 147 96 205q45 117 45 217q0 162 -137 162q-18 0 -54 -9.5t-57 -9.5q-43 0 -43 43q0 23 72 45 q61 18 94 19q29 0 73 -16.5t63 -34.5q49 -10 79 -86q23 -62 23 -123q0 -270 -229 -582q-182 -248 -453 -450q-98 -74 -295 -147t-317 -77q-104 -203 -105 -266q0 -133 170 -287q160 -141 301 -172q43 -10 90 -10q133 0 195 25q41 16 166 106q29 20 45 55q2 23 15 65t79 42 q27 0 54.5 -27.5t27.5 -56.5q0 -16 -25 -37q-35 -31 -34 -33l-62 -86q-29 -35 -91 -64.5t-208 -68.5q-152 -39 -211 -39q-70 0 -196 80q-96 59 -177 131q-225 201 -225 400q0 102 86 243q-156 4 -274 49q-170 61 -170 185z" />
<glyph unicode="R" horiz-adv-x="1329" d="M86 -229q0 12 55 67q66 66 72 74q37 53 115 156q111 111 313 346q-12 29 -12 57q-4 -2 -176 -74q-25 -12 -72 -35q-14 -6 -39 -6q-39 0 -39 41q0 25 18.5 40.5t57.5 21.5q123 23 196 61q123 66 314 283q31 37 102 104q37 27 47 27q29 0 29 -43q0 -14 -97.5 -149.5 t-99.5 -159.5l7 -15q-31 -43 -84 -123q67 -24 103 -24h3q78 0 166 69.5t104 145.5q18 84 19 174q0 129 -125 203q-104 61 -244 61q-119 0 -196 -49q-94 -57 -95 -170q29 -18 56 -18q23 0 50.5 29.5t47.5 29.5q33 0 33 -35q0 -37 -63.5 -87t-100.5 -50q-109 0 -109 135 q0 186 166 252q100 39 324 39q166 0 260 -82q100 -88 100 -250q0 -184 -114 -323q-121 -145 -304 -146q-51 0 -112 10q-12 -63 -12 -131q0 -197 96 -399q45 -94 141 -156q49 -29 193 -88q29 -12 88 -33q92 -8 184 -18q147 -18 147 -57q0 -45 -83 -45q-109 0 -275 51 q-227 70 -346 160q-152 113 -211 309q-35 115 -35 205q0 49 17 147q-104 -127 -271 -315q-229 -260 -254 -260q-31 0 -30 0q-25 8 -25 43z" />
<glyph unicode="S" horiz-adv-x="1183" d="M82 123q0 70 61 168q51 86 115 139q35 29 151.5 74t159.5 45q25 0 25 -29q0 -14 -76 -43q-47 -14 -94 -31q-123 -47 -198.5 -150t-75.5 -233q0 -53 71.5 -109t126.5 -56q72 0 109 2q172 10 303 233q102 176 139 385q6 61 23 180q33 229 178 437q59 84 248 190 q-86 80 -86 102q0 20 12 21q33 0 125 -92q213 133 342 133q104 0 151 -107q11 -22 11 -65q0 -66 -97 -98q-68 -23 -155 -23q-154 0 -260 92q-63 -41 -142 -125q-84 -88 -112 -149q-43 -90 -70 -260q-41 -258 -90 -402q-72 -211 -207 -352q-57 -59 -143 -111 q-100 -57 -168 -57q-180 0 -266 53q-111 68 -111 238zM1440 1321q100 -70 223 -70q188 0 188 76q0 31 -71 57q-61 23 -101 23q-96 0 -239 -86z" />
<glyph unicode="T" horiz-adv-x="993" d="M57 -31q0 121 111 273q94 121 190 239q35 55 107 166q68 102 201 248q143 162 227 215q6 4 70 35q33 18 63 37q39 22 69 22h3q26 1 26 -30q0 -12 -123 -103q-141 -104 -149 -113q-106 -98 -391 -487q-307 -418 -307 -500q0 -41 39 -41q92 0 227 72t184 148q20 31 41 149 q14 90 55 94q2 0 28 10.5t38 10.5q25 0 31 -13q2 -4 2 -32q0 -66 -103 -203q-90 -127 -157 -176q-39 -29 -201 -96q-41 -20 -82 -39q-49 -23 -86 -23q-113 0 -113 137zM268 1262q0 18 19 59q49 111 116.5 160t186.5 49q205 0 672 -139q160 -47 225 -64q119 -29 231 -39 q50 -4 96 -4q136 0 242 35q8 2 74 33q51 22 69 22h1q13 1 13 -9q0 -6 -5 -17q-14 -27 -115 -70q-170 -74 -328 -74q-109 0 -258 41q-127 39 -254 76q-262 70 -280 74q-162 37 -287 37q-94 0 -201 -35q-139 -47 -139 -119q0 -53 45 -53q74 0 110 41t62 41q25 0 25 -27 q0 -45 -69.5 -88t-119.5 -43q-45 0 -88 34t-43 79z" />
<glyph unicode="U" horiz-adv-x="1251" d="M72 -205q0 168 112 445q102 254 219 405q-20 0 -61 2h-63q-63 0 -64 31q0 37 76 37q12 0 34.5 -4t34.5 -4q25 0 107 14q20 25 61 72t60 69q14 49 120.5 134t155.5 85q88 0 88 -125q0 -102 -149 -208q-141 -100 -250 -101h-27q-18 -2 -28 -2q-53 -80 -156 -242 q-52 -94 -102 -264q-54 -184 -54 -280q0 -57 95 -58q141 0 165 27q250 100 547 578q72 109 142 217q82 129 122 227q23 66 48 133q29 78 61 125q6 6 16 27q10 35 23 71q18 49 45 49h2q25 0 25 -30q0 -68 -131 -330q-10 -20 -68 -158q-35 -82 -137 -233q-225 -330 -330 -455 q-227 -272 -422 -344q-94 -35 -209 -35q-109 0 -108 125zM582 748q260 71 260 233q0 8 -15 8h-6q-18 -2 -28 -8q-16 -8 -105.5 -108.5t-105.5 -124.5z" />
<glyph unicode="V" horiz-adv-x="1187" d="M100 -395q0 125 181 456q90 168 331 564q180 293 181 325q0 33 -37 33q-111 0 -336 -260q-190 -221 -264 -369q-4 -6 -10.5 -23.5t-13.5 -26.5t-21 -17l-9 28q8 135 360.5 516t487.5 381q45 0 45 -47q0 -92 -161 -344q-147 -223 -297 -446q-162 -252 -162 -346 q0 -20 16 -21q33 0 150 127q35 37 250 215q70 57 161 158q76 86 152 170q88 82 254 260q33 43 104 127q197 186 547 342q365 160 621 160q96 0 239 -19q160 -20 234 -47q23 -4 46 -9t23 -36q0 -27 -39 -26q6 0 -151.5 20t-415.5 20q-252 0 -424 -79q-207 -96 -506 -338 q-250 -201 -456 -414q-2 -2 -162 -174q-96 -106 -169 -164.5t-147 -116.5q-82 -70 -133 -129q-63 -74 -155 -207q-113 -162 -150 -210q-63 -82 -106 -82q-57 0 -58 49z" />
<glyph unicode="W" horiz-adv-x="1761" d="M98 -147q0 20 17 65q45 121 137 223q90 94 178 189q25 27 86 123l139 213q61 96 131 211q49 82 66 116q33 68 35 127q-121 -51 -271 -182q-129 -117 -223 -240q-72 -94 -86 -94q-10 0 -26.5 12.5t-16.5 22.5t43 43q31 23 68 78q43 63 61 82q221 231 363 295 q12 8 69.5 35.5t69.5 27.5q35 0 35 -55q0 -172 -324 -615q100 66 451 275q385 227 413 227q27 0 27 -28q0 -47 -233 -574q129 100 397 285q76 47 205 112q164 84 207 109q59 33 202 86q133 51 201 92q76 47 385 199q330 160 363 160q18 0 18 -23q0 -10 -12 -23 q-74 -78 -310 -167q-270 -102 -342 -150q-53 -41 -163 -119q-70 -45 -183 -88q-92 -37 -186 -74q-162 -70 -322 -147q-90 -43 -258 -205q-125 -121 -247 -241q-63 -43 -170 -142q-16 -23 -31 -63q-23 -59 -25 -66q-31 -70 -100 -147q-59 -66 -121 -131q-123 -141 -168 -187 q-111 -111 -194 -149q-4 0 -52.5 -18.5t-50.5 -18.5q-27 0 -26 31q0 92 208 350q68 98 207 293q61 82 181 172q197 150 198 151q39 96 128 282.5t126 283.5q-49 -18 -145 -62q-135 -72 -432 -299q-303 -236 -394 -340q-66 -100 -131 -201q-97 -151 -148 -151h-1 q-23 0 -23 29zM453 -561q61 25 161 125q61 57 177 178q74 86 153 231q67 123 133 246q-78 -90 -241 -262q-338 -334 -383 -518z" />
<glyph unicode="X" horiz-adv-x="1032" d="M98 -68q0 55 258 439q233 348 322 452q-10 180 -23 232q-33 155 -128 155h-1q-102 0 -161.5 -35.5t-106.5 -127.5q-18 -33 -39 -64q-23 -41 -22 -70q0 -69 55 -69h2q39 0 75 57t52 57q35 0 35 -30q0 -45 -59.5 -97.5t-104.5 -52.5q-57 0 -105.5 60.5t-48.5 119.5 q0 72 150 244q78 90 280 90q131 0 203 -108q59 -88 72 -230q92 86 332 275q281 223 317 223q14 0 27.5 -13.5t13.5 -27.5q0 -57 -82 -117q-63 -39 -129 -80q-37 -33 -115 -98q-72 -55 -184 -164q-127 -123 -180 -168q-20 -588 -21 -708q0 -82 31 -373q6 -61 47 -192 q45 -141 76 -177q14 -14 29 -26q18 -20 18 -35q0 -12 -21.5 -28.5t-33.5 -16.5q-14 0 -29 16q-98 111 -135 312q-20 170 -43 342q-39 258 -39 368q0 49 5 147.5t5 147.5q0 66 -6 129q-133 -113 -246 -293q-66 -106 -178 -340q-20 -49 -69 -141q-18 -27 -62 -27q-33 0 -33 43 z" />
<glyph unicode="Y" horiz-adv-x="1695" d="M-150 -952q0 43 50 145q72 150 112 213q70 115 154 184q113 94 428 232q98 43 348 90q219 201 477 573q-205 -133 -336 -133q-156 0 -155 64q0 80 102.5 231.5t102.5 284.5q0 43 -46 72q-37 22 -82 22h-4q-18 0 -58 -4t-60 -4q-80 0 -168 -68q-96 -70 -97 -147 q0 -35 44 -58q35 -18 71 -18q16 0 60.5 59.5t66.5 59.5q12 0 12 -19q0 -41 -45 -108q-47 -74 -86 -74q-61 0 -128.5 52.5t-67.5 111.5q0 70 88 162q121 127 344 127q280 0 280 -153q0 -69 -107 -237q-106 -167 -106 -204q0 -39 89 -39q150 0 329 176q152 152 238 328 q33 67 52 67h1q66 0 66 -28q0 -4 -2 -9q-14 -43 -58 -100q-57 -78 -67 -94q-78 -143 -246 -426q-59 -90 -170 -225q-141 -174 -174 -220q274 39 502 146q162 76 163 76q4 0 5 -9q0 -23 -56 -47q-78 -41 -233 -120q-102 -51 -205 -82q-41 -12 -307 -119q-186 -207 -502 -481 q-406 -354 -535 -355q-37 0 -60.5 34t-23.5 71zM-33 -950q209 137 445 338q225 194 344 333h-12q-144 0 -293 -90q-57 -33 -258 -188q-223 -172 -226 -393z" />
<glyph unicode="Z" horiz-adv-x="1406" d="M-215 -494q0 68 49 134q23 33 98 106q274 270 428 379q281 201 521 201q115 0 209 -52q33 121 32 138q0 76 -39 92q-14 6 -104 6q-39 0 -39 37q0 23 86 84q53 37 109 76q119 96 278 260q-162 -51 -489 -52q-178 0 -179 39q0 70 185 70q20 0 60 -2t61 -2q328 0 493 88 q27 14 35 14h2q27 0 27 -26q0 -53 -191 -234q-123 -119 -248 -219q72 -57 72 -143q0 -139 -70 -283q29 -29 67 -95.5t65 -92.5q29 -86 28 -115q0 -55 -51 -55q-72 0 -92 106q-27 143 -55 178q-55 -102 -72 -129q-43 -70 -86 -120t-197 -201q-113 -111 -329 -230 q-240 -131 -369 -131q-25 0 -62 15q-45 18 -61 22q-31 0 -88 10q-33 14 -58.5 52.5t-25.5 74.5zM-98 -459q0 -43 90 -88q156 0 250 21q117 25 235 96q199 121 350 272q183 185 242 365q-57 43 -149 43q-283 0 -678 -293q-92 -68 -203 -193q-137 -152 -137 -223z" />
<glyph unicode="[" horiz-adv-x="983" d="M84 -186q0 106 29 221q33 104 65 211q49 160 74 223q47 113 117 205q106 141 233 321q29 43 96 123q68 66 170 187q123 145 164 190t129 125q27 18 78 53q27 16 57 17q10 0 26.5 -3.5t25.5 -3.5q55 0 163.5 17.5t163.5 17.5q152 1 152 -65q0 -33 -51 -33q-37 0 -105.5 7 t-105.5 7q-227 0 -273 -20q-23 -10 -48 -49l-25 -39q-16 -14 -54 -41q-119 -70 -291 -285q-184 -229 -247 -311q-137 -176 -234 -322q-31 -41 -88 -125q-51 -90 -92 -268q-39 -170 -39 -280q0 -39 10 -119q10 -94 22.5 -110.5t41.5 -39.5q12 -4 78 -6q49 -2 147 -10 q49 -4 103.5 -8t93.5 -19q86 -33 86 -74q0 -43 -41 -43q-12 0 -123 39q-123 43 -299 43q-10 0 -30.5 -2t-31.5 -2q-14 0 -22 2q-31 8 -66 64q-29 45 -43 86q-16 51 -16 119z" />
<glyph unicode="\" horiz-adv-x="1187" d="M123 1128q0 39 20 39t70 -51q33 -33 66 -67q31 -25 86 -80q442 -477 647 -1043q35 -98 75 -178q9 -17 9 -27q0 -12 -16.5 -39.5t-28.5 -27.5q-16 0 -35 57q-53 176 -117 314q-293 639 -719 1019q-57 51 -57 84z" />
<glyph unicode="]" horiz-adv-x="1073" d="M-606 -457q0 12 10 15l25 2q33 4 96 10l147 18q131 16 148 17q45 0 86 -15q27 37 82 84q80 35 176 150q33 43 141 192q180 252 230 324q127 184 215 334q31 41 81 129q102 209 103 454q0 45 -12 123q-4 66 -9 131q-8 74 -53 115q-8 8 -90 47q-39 20 -121 53 q-74 12 -149 23q-111 23 -111 63q0 35 35 35q18 0 49 -8q41 -12 47 -14q43 -8 144 -35q49 -10 98 -21q57 -14 92 -34q10 -8 51 -21.5t88 -140.5q25 -66 25 -156q0 -109 -23.5 -209t-48.5 -198q-39 -164 -61 -230q-39 -117 -103 -213q-72 -113 -215 -334q-111 -168 -405 -522 q-37 -45 -119 -129q-27 -18 -73 -54t-52 -36q-14 0 -51 12q-43 16 -57 19q-55 10 -103 10q-43 0 -126 -15.5t-124 -15.5q-63 0 -63 41z" />
<glyph unicode="^" horiz-adv-x="1075" d="M178 1268q0 25 82 96q141 125 199 227q23 39 51 35q12 6 25 6q20 0 38 -14q53 -16 70 -119q35 -205 236 -434q20 -23 20 -37q0 -18 -16.5 -37.5t-34.5 -19.5q-12 0 -45 24q-240 184 -301 408q-78 -53 -226 -176q-23 -18 -36 -19q-23 0 -42.5 18.5t-19.5 41.5z" />
<glyph unicode="_" horiz-adv-x="1183" d="M-29 -188q0 27 54 28q-14 0 75 0q49 0 144.5 -6t142.5 -6q43 0 128 4t126 4q33 0 102.5 -4t104.5 -4q39 0 116.5 6t118.5 6q138 1 138 -24q0 -31 -84 -31q-37 0 -111 4t-113 4q-76 0 -231.5 -7t-232.5 -7q-33 0 -99.5 9t-101.5 9q-29 0 -81 -15t-73 -15q-12 0 -44 6 t-54 2q-25 16 -25 37z" />
<glyph unicode="`" horiz-adv-x="604" d="M182 1755q0 8 14.5 20.5t24.5 12.5q45 0 88 -94q57 -123 68 -135q2 -4 26 -27q19 -19 19 -25q0 -20 -21 -20q-45 0 -96 69q-2 4 -63 70q-43 45 -49 76q-10 49 -11 53z" />
<glyph unicode="a" horiz-adv-x="614" d="M-31 61q0 43 150.5 177.5t202.5 144.5q10 2 30 2q33 0 56.5 -16.5t33.5 -16.5q23 0 58 20.5t49 20.5q45 0 45 -22q0 -18 -59.5 -86t-59.5 -101q0 -80 80 -80q27 0 55 19q37 23 49 27l11 -9q-2 -20 -60.5 -55t-83.5 -35q-98 0 -137 33q-16 16 -27 16q-33 0 -110.5 -62.5 t-147.5 -62.5q-135 0 -135 86zM100 86q0 -35 45 -35q41 0 151 98.5t110 137.5q0 32 -41 32h-3q-16 0 -23 -2t-118.5 -95t-114.5 -99q-6 -20 -6 -37z" />
<glyph unicode="b" horiz-adv-x="497" d="M-51 80q2 6 9 15t28 20q33 14 73 53q55 51 68 59q16 31 102 150q33 49 107 141q29 16 80 60q111 119 223 237q131 139 242 217q49 35 118 35q25 0 50.5 -17t25.5 -40q0 -57 -31 -103q-12 -18 -77 -84q-16 -23 -56 -67q-100 -109 -280 -246q-27 -20 -90.5 -53t-91.5 -58 q31 -53 30 -82q0 -57 -58.5 -122.5t-58.5 -92.5q0 -4 5 -12h24q59 0 156 64q2 -10 -12 -31q-43 -66 -185 -66q-25 0 -37 2q-219 -219 -284 -219q-68 0 -68 43q0 29 41 107t41 129q-29 -20 -88 -43zM39 -70q-4 -7 -4 -11.5t4 -6.5t9.5 -2t12.5 2q39 0 66 37q46 22 109 110 l-31 -2q-4 2 -35 17q-20 10 -37 10q-33 0 -63.5 -59.5t-30.5 -94.5zM176 139q0 -35 27.5 -41t56.5 -10q25 18 66 73.5t41 80.5q0 35 -31 34q-27 0 -93.5 -56t-66.5 -81zM377 434l14 -10l17 4q197 141 268 199q143 117 237 231q52 64 52 80q0 20 -5.5 23.5t-29.5 3.5 q-43 0 -101 -52q-94 -84 -247 -241q-195 -199 -205 -238z" />
<glyph unicode="c" horiz-adv-x="724" d="M33 -61q0 147 192 299q184 145 336 145q55 0 55 -49q0 -35 -90 -74q-41 -18 -164 -18q-53 0 -158.5 -115t-105.5 -170q0 -66 88 -66q125 0 285 89q131 74 262 147q18 8 23 8q2 0 6 -2q-2 -8 -33 -31q-68 -49 -219 -129q-141 -76 -191 -90q-71 -22 -156 -22h-7 q-37 0 -76 20q-47 25 -47 58z" />
<glyph unicode="d" horiz-adv-x="620" d="M-530 1303q35 31 112 47q256 55 404 55q190 0 516 -84q72 -18 149 -76q66 -49 131 -100q90 -61 111 -168q4 -20 -2 -51q-6 -41 -6 -54q0 -10 2 -43q2 -29 0 -45h23q55 0 147 7q31 4 356 38q117 12 117 14l-4 1q22 -1 22 -13q0 -35 -145 -47q-168 -14 -342 -45 q-61 -4 -187 -22q-37 -72 -116 -213q-63 -104 -207 -271q-160 -188 -233.5 -230t-147.5 -50q-41 -47 -100 -47q-41 0 -64 47q-18 39 -18 84q0 53 90 149q82 86 141 117q33 16 68 39q23 14 30 14q39 0 39 -22q0 -27 -69 -70q-104 -63 -129 -86q-70 -59 -70 -125q0 -43 37 -43 q25 0 46.5 14.5t44 28t71.5 37.5q100 57 281.5 287.5t215.5 343.5q-57 4 -86 4q-55 0 -165.5 -5t-165.5 -5q-205 0 -377 45q-129 35 -355 131q-84 35 -127 90q-79 99 -79 208q0 77 41 114zM-467 1157q0 -213 438 -323q309 -80 619 -80h14q201 0 201 28q0 16 -2 50t-2 49 q0 143 -117 231q-133 100 -223 125q-113 33 -225 66q-129 34 -225 34h-5q-20 0 -53 -8q-45 -10 -55 -12q-111 -14 -222 -27q-143 -33 -143 -133z" />
<glyph unicode="e" horiz-adv-x="552" d="M-39 88q0 6 31 33q43 35 98 84q14 18 33 69q18 45 41 66q78 72 104 86q55 35 129 35q133 0 133 -78q0 -47 -98 -127q-84 -70 -143 -94q-45 -16 -129 -60q-4 -4 -4 -20q0 -20 34 -35q29 -12 54 -12q119 0 233 57q90 45 101 45q6 0 6 -8q0 -10 -23 -25q-31 -23 -35 -26.5 t-20 -11.5q-129 -86 -287 -86q-131 0 -139 180q-68 -68 -113 -76q-6 0 -6 4zM174 203q0 -8 16 -17q33 0 66 25q45 18 125 74q18 16 45 55q2 5 2 9q0 13 -12 23q-16 14 -37 13q-51 0 -85 -18.5t-77 -76t-43 -87.5z" />
<glyph unicode="f" horiz-adv-x="864" d="M-1116 -1348q0 33 20.5 74t155.5 178q90 90 180 183q154 147 457 446q96 100 293 295q47 39 137 123q18 18 18 39q0 63 -76.5 76.5t-76.5 48.5q0 61 104 112q90 43 162 43q8 0 23.5 -2t23.5 -2q68 0 150 49q66 45 131 91q29 12 82 40q115 74 227 146q178 113 217 119 l29 -37q-2 -14 -14.5 -36t-22.5 -22q-31 0 -146 -63q-154 -86 -311 -201q-227 -168 -227 -248q0 -67 107 -67h3q37 0 155 24.5t144 38.5q20 16 66 33l8 -14q-27 -31 -163 -72t-189 -41h-31q-20 -2 -31 -2q-12 0 -38.5 4t-40.5 4q-47 0 -101 -32q-43 -27 -92 -107 q-39 -61 -76 -125q-49 -59 -145 -178q-332 -428 -629 -676q-246 -207 -416 -268q-39 -14 -51 -15q-16 0 -16 41zM-944 -1227l14 -12q94 18 244 131q98 74 399 393q320 343 320 400q0 25 -25 24q-47 0 -239 -196q-178 -176 -537 -531q-72 -70 -160 -166q-8 -12 -16 -43z M166 111q0 -16 13.5 -30.5t27.5 -14.5q16 0 45 27.5t29 41.5q0 25 -48 25q-23 0 -45 -14.5t-22 -34.5z" />
<glyph unicode="g" horiz-adv-x="741" d="M-1155 -1354q0 39 119 189q238 299 592 586.5t694 459.5q82 41 82 101q-12 6 -29 6q-39 0 -112.5 -18.5t-112.5 -18.5q-33 0 -47 8q-4 16 -4 27q0 23 41 84q33 51 57 77q-27 -6 -88 -34q-74 -35 -78 -35l-6 2q8 16 24.5 31.5t42.5 29.5q37 20 101 41q90 27 100 31 q227 86 330 86q47 0 47 -18q0 -20 -45 -62.5t-70 -50.5q-61 -12 -123 -23q-84 -20 -84 -67l17 -17q27 0 81 13.5t83 13.5q16 0 24 -2q33 10 119 10q80 0 125 19q16 10 49 28q25 13 31 9q1 -1 1 -3q0 -6 -15 -22q-10 -10 -23 -16q-35 -25 -118 -51.5t-120 -57.5 q-72 -53 -213 -166q-340 -287 -632 -600q-70 -76 -217 -221q-66 -53 -185 -170q-20 -31 -67 -86q-16 -16 -91 -73.5t-90 -63.5q-53 -20 -133 -21q-14 0 -35.5 16.5t-21.5 28.5zM-1038 -1321q33 0 182 117q131 102 178 151q119 127 363 373q78 70 229 215q20 20 86 94 q72 82 72 88q0 8 -17 21q-137 -41 -428 -279q-236 -193 -407 -372q-51 -61 -154 -185q-149 -167 -149 -196q0 -27 45 -27z" />
<glyph unicode="h" horiz-adv-x="866" d="M-41 86q2 16 39 37q25 10 70 35q123 68 223 161q31 29 103.5 76t103.5 78q23 27 67 76q66 72 197 182q51 53 160 156q174 145 198 164q149 114 210 114h1h2q35 0 35 -30q0 -14 -12 -27q-29 -29 -78 -64q-70 -51 -82 -59q-66 -63 -201 -186q-141 -104 -280 -209 q-223 -168 -228 -211q8 -12 13 -12q27 0 75 15t72 15q31 0 39 -8t8 -33q0 -76 -47 -149q-27 -41 -86 -103q-49 -49 -49 -63q27 -37 63 -37q39 0 156 53q82 37 164 76q18 8 20 2q0 -2 -6 -12q-20 -33 -127 -74q-68 -27 -135 -51q-25 -14 -51.5 -29.5t-48.5 -15.5 q-37 0 -71 24.5t-34 61.5q0 43 74 132t74 122q0 25 -33 41q-29 -2 -86 -12q-106 -33 -195 -142l-86 -114q-66 -84 -98 -84q-14 0 -14 28q0 10 67 105q43 57 84 114q-147 -102 -252 -149q-18 0 -18 6z" />
<glyph unicode="i" horiz-adv-x="350" d="M-35 94q-2 4 12 15q45 25 107 59q76 35 215 121q18 18 42 40.5t38 22.5q20 0 20 -18q0 -8 -87 -94t-89 -127q8 -23 29 -23q35 0 78 25q57 33 71 37l13 -5q-4 -8 -11 -14q-31 -31 -115.5 -74t-113.5 -43q-31 0 -31 41q0 51 33 117q-12 -4 -99 -46t-91 -42q-14 0 -21 8z M410 612q0 47 79 47q12 0 19 -14q0 -23 -15.5 -68t-15.5 -69q0 -27 15.5 -57.5t15.5 -36.5q0 -16 -14 -17q-43 0 -68 90q-16 66 -16 125z" />
<glyph unicode="j" horiz-adv-x="593" d="M-1348 -1087q0 184 297 456q227 205 469 342q180 102 361 205q255 136 345 136q7 0 13 -1l19 6q57 55 178 148.5t174 144.5q25 27 49 51q33 31 59 35q15 2 17 -14q-8 -31 -148 -158q-88 -80 -178 -160q61 -12 125 -12q104 0 180 37q8 -4 9 -8q2 -14 -11 -25 q-31 -27 -153 -35l-152 -8q-43 -8 -74 -20q-158 -160 -403 -400q-102 -88 -303 -270q-291 -281 -354 -334q-260 -221 -400 -221q-49 0 -84 28.5t-35 76.5zM-1251 -1055q0 -68 32 -73q6 -1 13 -1q45 0 121 58q16 12 120 104q74 74 228 213q168 145 501 439q86 70 173 139 q137 112 137 137q0 20 -33 21q-86 0 -410 -195q-279 -166 -405 -266q-319 -252 -451 -494q-27 -49 -26 -82zM791 782q0 100 40 101q41 0 41 -76q0 -39 -19 -67q-17 -24 -47 -24q-4 0 -9 1q-9 1 -9 27q0 15 3 38z" />
<glyph unicode="k" horiz-adv-x="1185" d="M-78 -254q0 37 92 197q82 143 125 196q12 14 33 41q-23 -14 -70 -41q-16 -4 -49 -16q-10 -8 -35 -21q-49 -23 -55 -22q-10 0 -10 14q0 6 45 31l88 47q39 25 78 66q23 25 56.5 79t53.5 76q49 51 101 115q23 31 74 84l18 29q109 154 217 307q156 203 258 248q25 -4 25 -23 q0 -76 -31 -111q-45 -43 -131 -133q-123 -133 -295 -356q-45 -55 -125 -168q14 -33 55 -33q47 0 127 39q45 23 78 94q27 59 84 60q45 0 45 -68v-31q0 -51 -40 -103t-89 -58q-88 -6 -178 -13q-111 -18 -111 -106q0 -70 154 -160q141 -82 219 -82q156 0 412 170q23 16 67 41 q17 6 17 2q0 -6 -8 -18q-59 -78 -299 -197q-102 -51 -218 -51q-80 0 -198 61q-82 43 -162 89.5t-123 136.5l-172 -267q-31 -45 -80 -139q-6 -16 -11 -22t-20 -9q-12 8 -12 25z" />
<glyph unicode="l" horiz-adv-x="827" d="M-43 80q-1 1 -1 2q0 8 22 28q26 22 104 60q88 39 98 45q27 31 86 78q82 133 232 295q129 137 258 272q43 53 135 158q57 63 196.5 163.5t219 140.5t157.5 40q80 0 80 -55q0 -29 -18 -58q-16 -100 -125 -215q-45 -47 -191 -172q-27 -23 -53 -51q-139 -150 -389 -328 q-242 -174 -434 -266q-8 -23 -53 -86q-37 -49 -37 -94q0 -47 51 -78q45 -29 94 -29q12 0 25 7q63 8 184 40q6 2 180 119q55 37 78 41q2 -2 6 -4q0 -14 -74 -67q-162 -117 -208 -140q-106 -53 -248 -53q-186 0 -187 94q0 125 37 193q-63 -12 -194 -72q-2 0 -19 -8 q-10 -4 -12 0zM485 391q4 -12 19 -12q51 0 291 178q217 162 288 234q176 176 195 196q141 152 141 207q0 14 -17.5 24.5t-31.5 10.5q-195 0 -752 -651q-63 -74 -75 -91q-49 -63 -58 -96z" />
<glyph unicode="m" horiz-adv-x="1388" d="M-16 92q0 20 39 43q170 86 505 258q6 4 68 39q55 33 57 33q63 0 64 -33q0 -12 -49 -61q-55 -55 -62 -66q78 2 173 62.5t126 60.5q49 0 49 -33q0 -37 -53 -96t-53 -106h20q43 0 169 110.5t223 110.5q18 0 18 -23q0 -39 -43 -69q-63 -47 -70 -54q-20 -25 -47 -75 q-31 -57 -31 -80q0 -96 84 -97q49 0 134.5 59.5t113.5 61.5q4 -2 4 -8t-10 -16q-72 -49 -143 -99q-84 -55 -164 -55q-94 0 -94 90q0 25 13 69t13 66q0 20 -14 39q-78 -12 -206 -116.5t-183 -104.5q-20 0 -21 12q0 68 35 115q20 25 68 59q35 27 35 43v11q-25 16 -64 16 q-92 0 -223 -65q-72 -37 -201 -123q-98 -66 -119 -66q-12 0 -12 4v5q0 64 47 106q8 8 96 61q55 33 68 76q-66 -25 -133 -49q-76 -31 -125 -64q-29 -20 -94 -53z" />
<glyph unicode="n" horiz-adv-x="983" d="M-45 82q0 14 7 20.5t58 34.5q84 59 170 117q115 78 179 78q84 0 84 -41q0 -18 -36 -62.5t-36 -54.5q0 -33 25 -33q35 0 155.5 77t177.5 77q53 0 54 -43q0 -39 -31 -88t-33 -62l8 -14q31 -6 60 -6q94 0 229 68l2 -3q0 -68 -242 -129q-47 -12 -69 -12q-10 0 -32.5 3 t-35.5 3q-37 0 -43 69t-35 69q-45 0 -225 -117t-199 -117q-35 0 -34 35q0 41 60 100.5t60 95.5q0 29 -2 33t-22 4q-55 0 -100 -20q-6 -4 -86 -53q-20 -10 -60 -33z" />
<glyph unicode="o" horiz-adv-x="559" d="M-74 -49q0 57 90 160q12 10 29 34q4 20 23 60q18 27 49 49q43 25 86 25q70 40 140 40h3q35 0 64 -28q45 31 88 31q16 0 16 -25q0 -41 -23.5 -106.5t-50.5 -86.5l-16 -12h6q12 0 32.5 2t34 2t41 16.5t42.5 16.5q4 -4 4 -8t-4 -8q-20 -39 -140 -58q-57 -10 -90 -30l-74 -58 q-55 -41 -178 -78q-79 -24 -97 -24h-1q-74 0 -74 86zM29 -23q0 -32 37 -32h2q16 0 45 8q117 33 155 55q61 37 109 125q10 19 10 37q0 16 -41 44t-57 28q-23 0 -84 -43q-51 -37 -78 -64q-98 -94 -98 -158z" />
<glyph unicode="p" horiz-adv-x="927" d="M-1329 -1221q0 47 43 60l82 12q49 12 125 100q82 98 121 117q33 39 90 92q80 72 96 88q170 182 524 531q51 45 115 115q18 20 106 90q31 27 95 77q14 10 41 29q6 6 18 21q37 39 57 57q39 37 64 45q59 18 178 66q113 70 223 139q166 100 217 100q37 0 37 -14 q0 -57 -96 -117q31 -25 31 -61q0 -63 -106.5 -154.5t-106.5 -108.5q0 -29 45 -28q23 0 110.5 28.5t110 41t63.5 32.5q17 8 17 0q0 -6 -6 -12q-29 -37 -209 -100q-172 -59 -232 -60q-41 0 -41 25q0 63 121 164.5t121 126.5q0 33 -14 32q-49 0 -115 -34q-53 -33 -107 -64 q-66 -31 -192 -100q-109 -70 -254 -187q-125 -100 -248 -200q-53 -43 -221 -230q-4 -4 -164 -162q-74 -80 -227 -235q-96 -96 -193 -195q-117 -106 -229 -145q-53 -18 -66 -18q-25 0 -24 36z" />
<glyph unicode="q" horiz-adv-x="817" d="M-930 -1067q39 86 144 158q94 55 186 112q141 98 319 269l304 290q49 45 196 152q129 90 189 160q-68 -12 -70 -13q-152 0 -242 91q-23 -6 -62.5 -34t-62.5 -34q-4 0 -10 4q-8 8 0 12q31 14 98 62q39 39 127 112q121 86 189 119q109 55 213 56q49 0 92 -14.5t41 -31.5 q0 -12 -47 -16q-23 -2 -99.5 -2t-170 -50t-142.5 -114q-2 -10 -12 -28q-4 -6 -4 -15q0 -23 26 -41l35 -4h17q12 -2 16 -2q236 0 440 178q82 72 90 72q15 0 15 -10q0 -63 -78 -129q-31 -27 -129 -80q-86 -47 -174 -121q-31 -25 -342 -238q-72 -49 -340 -282 q-233 -203 -240 -209q-135 -119 -229 -217q-55 -59 -109 -119q-61 -55 -149 -55q-29 0 -25 12z" />
<glyph unicode="r" horiz-adv-x="563" d="M-39 92q0 4 8 14q33 23 101 72q63 63 125 129q78 76 155 76q20 0 38 -17.5t18 -39.5q0 -59 -63.5 -152.5t-63.5 -114.5q-6 -18 0 -20t34 -2q96 0 228 84q37 23 57 33q10 4 12 4q2 -1 2 -13q0 -27 -151 -108q-29 -6 -86 -23q-59 -25 -117 -49q-68 -26 -119 -26h-4 q-33 0 -33 32q0 31 156 224l4 14q0 47 -47 47q-29 0 -114 -82t-132 -90q-8 -4 -8 8z" />
<glyph unicode="s" horiz-adv-x="495" d="M-63 -188q0 47 102 110q72 43 149 72q33 61 33 125q0 18 -3 53t-3 51q-27 -10 -129 -82q-90 -61 -121 -63q-10 -4 -10 4q0 4 6 11t43 32q27 16 72 53q23 18 92 90q57 59 100 82q35 70 39 74q29 47 62 47q55 0 55 -33q0 -68 -129 -135q-39 -74 -39 -113q0 -12 4 -37.5 t4 -39.5q0 -41 -18 -101q55 12 164 54q35 25 110 69q6 2 15 6l4 -6q-2 -4 -13 -14q-31 -29 -111.5 -85t-101.5 -63q-33 -10 -100 -28q-51 -92 -101.5 -124t-152.5 -32q-23 0 -22 23z" />
<glyph unicode="t" horiz-adv-x="528" d="M-879 735q0 53 267 109q124 26 319 26h14h101q86 0 261 -12t263 -12q82 0 211 -25q166 -33 211 -39q74 53 221 160q86 74 174 145q109 84 203 84q76 0 76 -41q0 -59 -209 -190q-135 -80 -272 -160q66 -2 210 -18q135 -16 211 -17q109 0 275 21q242 29 276 33 q143 4 428 14q135 6 410 43q123 14 371 51q8 2 110 25q66 16 111 16q63 0 63 -26q0 -4 -2 -9q-8 -25 -45 -28q-66 -10 -196 -33q-391 -61 -828 -78q-141 -6 -477 -45q-305 -37 -477 -37q-96 0 -246 15q-225 23 -246 24q-109 -61 -229 -199q-98 -117 -197 -233 q-96 -104 -252 -236q-80 -78 -157 -153q-123 -117 -162 -117q-41 0 -41 35q0 41 49 84q70 70 221 186q37 23 92 86q84 94 84 95q41 35 115 108q47 53 132 169t132 169q-324 82 -518 82q-53 0 -161.5 12t-161.5 12q-578 0 -578 -114q0 -23 44 -43.5t48 -42.5q-10 -14 -26 -15 q-41 0 -127 41q-94 43 -95 78z" />
<glyph unicode="u" horiz-adv-x="823" d="M-31 41q0 35 11 55q23 43 192.5 138.5t220.5 95.5q12 0 13 -17q0 -37 -164 -125t-164 -145q0 -37 47 -37q186 0 375 156q57 102 149 102q55 0 56 -20q-55 -47 -127 -129q0 -39 36 -39q139 0 222 57q14 0 12 0q1 -1 1 -2q0 -3 -3 -10q-16 -33 -127 -66q-97 -30 -147 -30 h-3q-33 0 -38 5t-5 33q0 14 -10 29h-8q-12 0 -32.5 -13t-37.5 -26q-43 -25 -181 -53.5t-198 -28.5q-90 0 -90 70z" />
<glyph unicode="v" horiz-adv-x="1017" d="M88 170q0 33 4 37q68 84 199 158q137 77 236 77h3q68 0 68 -67q0 -47 -68 -152q-51 -74 -100 -147q63 33 193 98q106 61 215 121q143 74 225 74q43 -1 43 -54q0 -4 -4 -8q-6 -4 -8 0q-12 18 -45 19q-98 0 -416 -181q-66 -49 -207 -135q-51 -20 -147 -65q-35 -20 -72 -43 q-47 -27 -76 -27q-23 0 -22 12q0 20 88 84q57 41 112 82q68 57 133 152q78 111 78 160q0 14 -2 22q-8 10 -26 10q-55 0 -189 -69q-139 -74 -153 -121q-6 -23 -7 -41q0 -43 50 -66q12 -16 -11 -20q-94 37 -94 90z" />
<glyph unicode="w" horiz-adv-x="1087" d="M-39 90q0 5 10 12l60 37q92 55 137 109q12 16 39 45q27 20 78 20q31 0 37 -16q-14 -23 -71.5 -67t-76.5 -68q-35 -45 -35 -103q0 -45 43 -45q35 0 103 41q33 20 164 92q141 78 147 78q33 0 33 -22q0 -14 -77 -65.5t-77 -114.5q0 -43 57 -43q8 0 22.5 7t18.5 9 q143 43 437 305q149 132 149 305v2q0 131 -229 226q-186 77 -340 77h-4h-29q-20 -2 -31 -2q-8 0 -23.5 4.5t-23.5 4.5t-51 -23l-61 -25q-123 -49 -123 -235q0 -57 30 -92q18 -20 60 -41q33 -16 35 -27q-8 -12 -19 -12q-59 0 -111.5 67.5t-52.5 128.5q0 70 25 125 q25 31 80 88q66 53 141 72q51 10 158 10q205 0 485 -104q68 -25 116 -91t48 -136q0 -199 -197 -392q-343 -337 -572 -337h-1q-8 0 -23 -3h-24q-39 0 -39 52q0 20 12 57q-14 10 -24 10q-43 0 -130 -45t-139 -45q-49 0 -49 64q0 14 2 38.5t2 36.5q0 16 -8 41l-12 6 q-12 0 -30.5 -12t-31.5 -12q-14 0 -14 8z" />
<glyph unicode="x" horiz-adv-x="913" d="M-78 -135q0 20 19 29q90 39 135 81q66 61 125 142q80 109 80 162q0 8 -2 12q-29 -12 -162 -119q-117 -94 -150 -94q-14 0 -14 14q0 8 6 8q43 16 98 62q82 66 90 71q31 16 86 58q16 18 36 41.5t36 23.5q45 -27 45 -82q0 -8 -4 -20q33 41 54.5 52t74.5 20q10 2 39 9t45 7 q14 0 14 -27q0 -35 -45 -84t-79 -49q-37 0 -37 33q0 10 47 28.5t59 49.5q-8 2 -24 2q-37 0 -140 -84v-12q0 -70 58 -111q49 -35 123 -35q29 0 75.5 17.5t69.5 19.5q14 0 41 4q37 8 83 49t48 78q0 16 -27 17q-18 0 -32.5 -20.5t-22.5 -20.5q-14 0 -14 14q0 16 25.5 34.5 t41.5 18.5q18 0 43 -18q16 -12 15 -21q4 -16 4 -26q0 -80 -150 -142q-125 -51 -221 -51q-74 0 -137 31q-78 39 -78 104q-35 -57 -127 -147q-150 -147 -235 -148q-14 0 -15 19z" />
<glyph unicode="y" horiz-adv-x="700" d="M-780 -1139q0 70 133 305q20 37 81.5 88.5t81 78t39 52t46.5 37.5q80 80 227 158q41 23 252 123q70 90 221 260q53 49 53 90q-245 0 -245 149q0 69 57 197q63 141 119 146q16 0 18 -17q0 -6 -2 -28q-4 -41 -55 -133.5t-51 -149.5q0 -39 31.5 -68.5t72.5 -29.5q39 0 85 39 t71 39q18 0 32.5 -23.5t14.5 -42.5q0 -39 -62 -106q-100 -109 -176 -211q35 29 109 80q47 20 131 75q51 45 102 92q76 63 117 74q8 4 12 2q2 -2 2 -8q0 -8 -75 -66q-23 -20 -66 -63q-94 -90 -289 -223q-53 -31 -153 -101q-51 -47 -127 -135q-90 -109 -121 -141 q-80 -82 -420 -420q-45 -45 -115 -84q-82 -47 -133 -47q-18 0 -18 12zM-666 -1016q4 -6 7 -14q35 2 96 59q31 33 95.5 94.5t148.5 163.5q51 63 151 158q117 111 156 152q-74 -33 -221 -105q-29 -14 -146 -110q-131 -106 -180 -162q-102 -113 -103 -211q0 4 -4 -25z" />
<glyph unicode="z" horiz-adv-x="673" d="M-578 -1071q0 68 115 201q82 92 166 184q51 66 102 113q41 33 119 96q41 47 129 131q41 37 125 104q29 14 57.5 27.5t36.5 50.5q2 6 2 19q0 27 -23.5 73.5t-23.5 73.5q0 51 109.5 110.5t109.5 118.5q0 41 -106 41q-96 0 -236 -114q-90 -74 -118 -74q-4 0 -9 4q0 2 7 16 q2 4 43 29q92 66 182 129q70 41 231 41q102 0 103 -76q0 -45 -122 -130t-122 -103q0 -6 29.5 -63.5t33.5 -77.5q229 94 357 94q29 0 190 -17q272 -27 516 -133q94 -39 277 -129q11 -6 11 -12q0 -5 -9 -8q-2 -18 -27 -19q-37 0 -94 41q-45 33 -88 66q-63 37 -174 80 q-117 45 -182 53q-10 0 -35 8q-225 45 -381 45q-74 0 -108.5 -12t-53.5 -16q-68 -14 -194 -72q0 -229 -154 -420q-45 -63 -147 -182q-106 -106 -275 -228q-208 -151 -298 -151h-1q-70 0 -70 88zM-500 -1022q0 -49 23 -49q37 0 112 59q51 43 105 86q190 152 229 195 q68 74 162 256q2 2 76 119q47 74 55 131q-207 -109 -426 -369q-96 -106 -190 -213q-145 -168 -146 -215z" />
<glyph unicode="{" horiz-adv-x="987" d="M27 207q0 100 104.5 191t206.5 91q94 0 94 -45q0 -20 -31 -20q-14 0 -49 16.5t-63 16.5q-23 0 -45 -6q-55 -14 -115.5 -80t-60.5 -121q0 -61 28 -98l78 -70q82 -78 291 -102h18q96 0 260 43q113 29 273 114q8 4 12 4q10 0 10 -10q0 -6 -14 -16q-86 -57 -289 -113 q-193 -51 -305 -51q-127 0 -254 65q-150 76 -149 191z" />
<glyph unicode="|" horiz-adv-x="868" d="M23 123q0 12 20 24q135 76 256 162q369 260 432 518q47 188 47 328q0 121 -45 209q-61 121 -153 197q-106 88 -228 88q-156 0 -207 -27q-18 -10 -34 -10q-12 0 -13 10q0 12 23 33q35 33 133 33q74 0 158 -13q113 -16 213 -102q88 -78 145 -190t57 -257q0 -129 -45 -307 q-31 -125 -139 -250q-49 -55 -209 -200q-72 -66 -166 -127q-193 -125 -231 -125q-14 0 -14 6z" />
<glyph unicode="}" horiz-adv-x="1345" d="M-23 111q0 16 43 32q47 31 140 95q188 125 522 124q264 0 385 -69q219 -125 219 -260q0 -104 -115 -178q-104 -68 -213 -68q-39 0 -77 18q-49 20 -50 56q0 12 19 12q20 0 63 -31.5t99 -31.5q53 0 126.5 46t90.5 93q8 25 8 80q0 27 -27 63q-20 29 -43 58q-74 104 -256 169 q-76 27 -280 27q-113 0 -328 -59q-45 -12 -174 -101q-121 -84 -143 -84q-8 0 -9 9z" />
<glyph unicode="~" horiz-adv-x="1249" d="M131 571q0 72 52.5 124.5t121.5 52.5q80 0 173 -80t147 -80q123 0 217 141q12 20 39 64q10 10 28 34q37 49 41 146q6 123 51 123q35 0 60 -52q22 -42 22 -81q0 -131 -181 -293t-316 -162q-84 0 -166 89t-113 89q-82 0 -112 -92q-18 -57 -41 -57t-23 34z" />
<glyph unicode="&#xa1;" horiz-adv-x="882" d="M74 -428q0 4 10 25q74 104 223 356q117 184 338 561q29 68 90 199q47 96 92 192q78 152 113 152q16 0 27 -15h6q37 5 37 -34q0 -20 -62 -125q-76 -131 -78 -138q-41 -90 -129 -262q-53 -94 -190 -286q-41 -76 -129 -222q-104 -152 -211 -323q-18 -35 -37 -70 q-25 -39 -59 -39q-41 0 -41 29zM1075 1389q0 96 92 96q64 -1 64 -107q0 -33 -21 -78q-27 -53 -53 -53q-8 0 -12 2q-25 -2 -25 31q0 10 8 27q-4 2 -14 3t-18 13q-20 31 -21 66z" />
<glyph unicode="&#xa2;" horiz-adv-x="724" d="M33 285q0 115 127 241q104 102 231 160q6 53 29 119q6 27 31 26q29 0 28 -34q0 -14 -6 -42t-6 -42q49 16 94 16q55 0 55 -49q0 -25 -90 -74q-47 -18 -82 -18q-14 -43 -41 -131q-16 -61 -53 -187q121 43 271 136q127 77 143 75q-8 -29 -193 -127q-150 -82 -229 -116 q-10 -47 -18 -95q-14 -53 -45 -86q-16 -18 -35 -18q-20 0 -21 27q0 4 21.5 72.5t23.5 78.5q-92 -10 -112 -10q-37 0 -76 20q-47 25 -47 58zM98 303q0 -66 88 -65q41 0 88 10q25 72 70 221q7 17 27 119h-9q-55 0 -159.5 -115t-104.5 -170z" />
<glyph unicode="&#xa3;" horiz-adv-x="1495" d="M-104 -2q0 98 79.5 166.5t180.5 68.5q117 0 315 -67q78 102 147 209q-49 12 -73 14q-133 12 -133 31q0 25 39 24q68 0 202 -16q25 45 66 137q-106 4 -162 4q-12 0 -36.5 -2t-37.5 -2q-18 0 -18 23q0 41 194 41q47 0 86 -8q31 33 99 190q-57 -6 -172 -41q-2 0 -6 -2 q-8 0 -9 25v8q4 23 101 45q59 14 121 26q174 330 540 330q61 0 62 -24q0 -8 -23 -62q-2 -6 -10 -49q-6 -25 -29 -45q-8 -8 -69 -41q-137 -74 -394 -139q-37 -41 -73 -111q-33 -59 -64 -119l148 -6q10 0 29.5 4t29.5 4q33 0 33 -16q0 -31 -51 -33q-4 0 -11.5 -2t-11.5 -2 q-10 0 -29.5 3t-29.5 3q-14 0 -44 -3t-46 -3q-12 0 -41 4l-90 -141q72 0 219 -4q37 -2 123 -17q78 -14 122 -14q121 0 121 -53q0 -23 -57 -23q-41 0 -121 19.5t-117 19.5q-170 0 -319 15q-41 -86 -152 -220q84 -33 471 -217q59 -20 174 -65q68 -43 211 -115 q53 -20 106.5 -40.5t112.5 -20.5q174 0 373 141q166 119 289 289q4 8 14 18q4 -6 0 -16q-86 -172 -203.5 -275.5t-216.5 -148.5q-117 -53 -258 -53q-37 0 -135 16q-104 18 -125 31q-129 80 -266 131q-129 49 -608 252q-117 -152 -164 -197q-111 -102 -225 -102 q-80 0 -133 73q-45 66 -45 150zM-16 -45q0 -37 24 -80q27 -49 60 -49q88 0 155 63q59 61 117 125q43 41 74 80q-150 55 -230 56q-66 0 -133 -66t-67 -129zM1006 905q168 45 219 68q121 49 180 131q-29 37 -92 37q-78 0 -172 -86q-35 -33 -135 -150z" />
<glyph unicode="&#xa4;" horiz-adv-x="1560" d="M137 115q0 18 25 43q80 76 123 129q-20 43 -21 100q0 139 119 283q100 123 240 202q10 35 28 91q41 117 99 116q27 0 26 -24q0 -10 -47 -133q125 47 201 47q39 0 86 -19h51q207 0 207 -100q0 -16 -2 -25q133 72 151 72q29 0 29 -31q0 -33 -43 -57q-12 -8 -174 -88 q-33 -84 -72 -133q-92 -117 -264 -242q39 -43 39 -78q0 -25 -23.5 -45t-48.5 -20q-18 0 -26 20q-18 41 -39 62q-188 -109 -324 -109q-90 0 -147 49q-123 -141 -162 -141q-31 0 -31 31zM365 426q0 -23 2 -33q29 37 57 74q41 47 70 47q31 0 30 -27q0 -18 -121 -172 q41 -47 119 -47q92 0 236 78q-14 18 -15 37q0 25 26 46.5t50 21.5q18 0 24.5 -15.5t10.5 -29.5q193 127 266 266q-12 -6 -28 -6q-25 0 -25 26q0 43 98 82q9 21 9 33q0 53 -121 53q-10 0 -34 -2t-36 -2t-38.5 9t-43.5 9q-170 0 -348 -137q-188 -145 -188 -311z" />
<glyph unicode="&#xa5;" horiz-adv-x="741" d="M72 150q0 45 49 45q92 0 172 -15q45 109 69 195q-66 16 -75 16q-8 0 -26.5 -2t-29.5 -2q-29 0 -28 35q0 16 14 36.5t31 20.5q51 0 145 -20q10 29 22.5 88t22.5 88q-49 63 -157 178q-104 92 -146 180q-6 16 -20 51q-12 27 -13 39q0 20 16.5 48t37.5 28q33 0 32 -33 q0 -61 103 -196q6 -8 151 -180q20 33 39 65q29 45 51 45q12 0 31 -10t19 -21l-2 -8q-8 -12 -23 -37l-31 -79q88 57 473 294q408 252 418 252q21 1 21 -26q0 -16 -23 -33q-55 -33 -165.5 -102.5t-340.5 -212.5q-104 -61 -207 -123q-123 -74 -200 -136q-25 -115 -41 -169h20 q31 0 90.5 10t87.5 10q20 0 21 -20q0 -12 -10 -27q-4 -45 -117 -45q-14 0 -45 3t-47 3h-10q-8 -2 -13 -2q-12 -37 -40.5 -109.5t-41.5 -109.5q104 -39 195 -39q23 0 22 -19q0 -49 -73 -49q-49 0 -164 31q-25 -86 -66 -176q-59 -133 -102 -133q-23 0 -23 20q0 4 55.5 138.5 t61.5 170.5q-82 23 -115 23h-22q-16 -2 -23 -2q-31 0 -30 23z" />
<glyph unicode="&#xa6;" horiz-adv-x="983" d="M-41 23q0 53 90 151q84 88 141 115q16 6 75 23.5t71 17.5q94 0 94 -39q0 -18 -45 -35q-25 -8 -92 -8q-59 2 -88 -15q-145 -82 -146 -194q0 -43 35 -43q76 0 152 43q25 12 73 37q92 51 209 184q-33 102 -32 168q0 8 -7 51q-12 86 -12 168q0 127 66 295q6 14 78 166 q63 135 63 147.5t15.5 30t27.5 17.5q20 0 98 -54q111 -76 111 -170q0 -27 2 -84v-84q0 -131 -29 -209q-6 -18 -20 -53q-6 -14 -98 -160q-76 -121 -193 -258q18 -39 25 -49q14 -23 41 -37q98 -57 147 -57q6 0 14 2h15q80 0 223 86q98 59 92 60q10 -1 10 -9q0 -12 -80 -71 q-23 -12 -67 -37q-16 -12 -51 -35q-6 -2 -23 -10q-23 -14 -44 -28.5t-54 -14.5q-78 0 -201 59q-78 37 -94 86q-96 -109 -152 -153q-94 -74 -194 -86q-20 -20 -78 -35q-49 -12 -86 -13q-41 0 -64 48q-18 39 -18 86zM553 483q0 -16 12.5 -72.5t12.5 -86.5q168 186 239 383 q39 108 39 276q0 90 -78 184q-66 -10 -160 -295q-66 -199 -65 -389z" />
<glyph unicode="&#xa7;" horiz-adv-x="1681" d="M82 -80q0 59 22 109q27 63 78 63q45 0 45 -20q0 -27 -8 -80t-8 -80q0 -133 35 -178q47 -61 213 -92q121 -25 241 -25q106 0 209 66q117 72 117 172q0 61 -21.5 86.5t-70.5 40.5q-39 8 -78 18q-82 23 -154 92q-57 57 -71 74q-35 45 -35 92q0 57 51 199q41 111 94 166 q66 61 174 73q-82 131 -81 254q0 217 152.5 394.5t367.5 177.5q18 0 49 -11q39 -12 49 -14q84 -16 119 -70q28 -45 28 -137q0 -41 -20 -120.5t-20 -122.5v-113q0 -16 -20.5 -27.5t-37.5 -11.5q-39 0 -39 66q0 20 24.5 98t24.5 160q0 217 -106 217q-94 0 -205 -97 q-31 -23 -92 -69q-29 -33 -86 -99q-102 -115 -102 -208q0 -82 86 -166q127 -125 159 -176q86 -137 86 -353q0 -254 -219 -245q59 -82 60 -162q0 -207 -95 -269q-70 -45 -290 -45q-266 0 -410 58q-215 88 -215 315zM743 381q0 -172 234 -289q12 -6 29 -6q72 0 128 54t56 128 q0 78 -84 187q-68 82 -137 163q-6 0 -21 3h-20q-70 0 -127.5 -83t-57.5 -157z" />
<glyph unicode="&#xa8;" horiz-adv-x="911" d="M260 1473q0 33 16.5 68.5t47.5 35.5h4q39 0 67 -47q21 -35 21 -88l-2 -4q-8 -6 -64 -39q-12 2 -31.5 17.5t-35.5 27.5q-23 14 -23 29zM571 1466q0 51 107 52q39 0 63 -13q0 -10 2 -35v-34v-9q-2 -4 -40.5 -27.5t-45.5 -23.5q-25 0 -55.5 33t-30.5 57z" />
<glyph unicode="&#xa9;" horiz-adv-x="1820" d="M129 6q0 315 160 516q92 115 145 156q68 51 197 86q45 43 112 43q14 0 28.5 -2t34 -24.5t19.5 -41.5q0 -37 -114 -37q-12 0 -39 2.5t-41 2.5q-115 0 -242 -244q-131 -252 -131 -504q0 -178 152 -178q260 0 389 55q262 113 401 232q164 137 275 370q135 285 135 477 q0 96 -82 148q-68 43 -170 43q-4 0 -17 -4q-119 -43 -178 -101q-68 -66 -92 -178q-2 -25 -12 -73q133 90 209 90q39 0 66.5 -26t27.5 -64q0 -113 -79 -200t-189 -87q-113 0 -109 164q-106 -63 -219 -162q-150 -131 -150 -207q0 -154 82 -154q94 0 176 60q35 25 140 129 q23 23 22 39q0 6 -24 6q-39 0 -111 -45t-88 -45q-45 0 -43 26q2 27 82 74t111 47q127 0 127 -59q0 -92 -150 -193q-139 -94 -238 -94q-66 0 -114.5 43t-48.5 109q0 158 159 295q66 57 295 196q14 74 15 80q14 59 28 72q92 326 359 325q348 0 348 -276q0 -254 -211 -555 q-199 -283 -488 -477q-305 -203 -559 -203q-356 0 -356 348zM1049 612q0 -92 49 -92q74 0 139.5 58.5t65.5 130.5q0 59 -21 59q-45 0 -135 -43q-98 -47 -98 -86v-27z" />
<glyph unicode="&#xaa;" horiz-adv-x="403" d="M-35 94q-2 4 12 15q45 25 107 59q76 35 215 121q18 18 42 40.5t38 22.5q20 0 20 -18q0 -8 -87 -94t-89 -127q8 -23 29 -23q84 0 190 57l13 -2q0 -4 -6 -16q-23 -33 -138 -74q-102 -39 -137 -39q-31 0 -31 41q0 51 33 117q-12 -4 -99 -46t-91 -42q-14 0 -21 8zM410 612 q0 47 79 47q12 0 19 -14q0 -23 -15.5 -68t-15.5 -69q0 -27 15.5 -57.5t15.5 -36.5q0 -16 -14 -17q-43 0 -68 90q-16 66 -16 125z" />
<glyph unicode="&#xab;" horiz-adv-x="1013" d="M104 463q0 20 31 59q23 29 45 56q35 49 86 79q68 37 90 60q39 37 86 98q41 51 80 105q23 29 35 28q8 0 8 -14q0 -27 -24.5 -67t-69.5 -111q-8 -12 -113 -121q-86 -90 -86 -115q0 -27 45 -102.5t45 -116.5q0 -18 -17 -48t-34 -30q-6 0 -18 60q-12 41 -84 66.5t-90 66.5 q-14 31 -15 47zM512 440q0 4 4 34t16 87q10 25 80 76q45 33 150.5 65.5t150.5 67.5q18 16 39 33q29 27 37 26q8 0 8 -12q0 -59 -161 -164q-174 -113 -184.5 -140.5t-10.5 -61.5q0 -12 4 -37t4 -37q0 -41 -31 -137q-37 -109 -69 -109q-10 0 -10 16q0 27 13 78t13 76 q0 31 -2 48.5t-26.5 42t-24.5 48.5z" />
<glyph unicode="&#xac;" horiz-adv-x="661" d="M-651 -1018q0 72 125 197q90 88 182 174q59 63 111 104q41 29 124 90q45 43 140 121q43 33 131 96q31 12 60.5 23.5t37.5 48.5q0 2 2 8v11q0 27 -23.5 73.5t-23.5 73.5q0 51 109.5 110.5t109.5 118.5q0 41 -106 41q-90 0 -210 -94t-145 -94l-8 4q0 10 8 18q2 2 41 27 q92 66 183 129q70 41 231 41q102 0 102 -76q0 -45 -121.5 -130t-121.5 -103q0 -8 29.5 -65.5t33.5 -75.5q29 12 84 38q18 10 53 31q90 41 121 41l2 -8q-18 -27 -63 -41q-61 -20 -72 -27q-39 -25 -121 -65q0 -221 -182 -418q-51 -59 -162 -170q-113 -96 -284 -205 q-215 -133 -306 -133q-72 0 -71 86zM-571 -973q0 -45 28 -45q33 0 113 53q53 37 106 76q197 137 242 178q74 70 180 244q2 4 88 115q56 68 64 127q-49 -23 -144 -76q-219 -166 -311 -264q-104 -100 -209 -201q-158 -160 -157 -207z" />
<glyph unicode="&#xad;" horiz-adv-x="772" d="M72 285q0 18 26 28q14 6 191.5 26.5t206.5 20.5q49 0 92 -14q59 -18 59 -55q0 -31 -33 -31q-41 0 -121.5 11.5t-123.5 11.5q-39 0 -119 -13.5t-121 -13.5q-57 0 -57 29z" />
<glyph unicode="&#xae;" horiz-adv-x="1290" d="M117 518q0 188 114 322q170 197 308 223q39 29 149 29q129 0 129 -119q0 -74 -48 -120t-122 -40v-22q0 -193 170 -209q84 82 156 229q74 158 74 266q0 106 -207 107q-94 0 -148 -39q-10 -10 -20 -10q-25 0 -25 51q0 57 244 57q260 0 260 -180q0 -227 -262 -494 q31 -4 33 -4q23 0 64.5 -4t61 -4t55.5 -4t53.5 -4t17.5 -10q0 -12 -15 -23q-8 0 -27.5 -5t-29.5 -5q-16 0 -29 6q-41 -4 -59 -4q-109 0 -162 10q4 -2 -16 0q-248 -225 -486 -225q-233 0 -233 225zM217 487q0 -98 86 -98q266 1 459 146q-186 61 -180 229q-227 -246 -240 -246 q-31 0 -31 29v12q113 121 252 277l-16 -7q-35 0 -35 29t45 37q57 10 66 18q2 0 32 45q20 31 43 31q27 0 27 -28q0 -12 -18.5 -33t-21.5 -30t-13 -30q2 0 6 -2q74 0 74 105q0 63 -101 63q-4 0 -16 -9t-49 -15q-29 -6 -58 -11q-127 -31 -223 -208q-88 -160 -88 -304z" />
<glyph unicode="&#xaf;" horiz-adv-x="833" d="M129 1495q0 29 33 39q33 4 96 10q49 8 148 19q16 2 73 10q45 6 74 6q47 0 92 -16q60 -21 60 -60q0 -43 -37 -43q-39 0 -120 11.5t-122 11.5q-14 0 -78 -13q-84 -16 -149 -16q-70 0 -70 41z" />
<glyph unicode="&#xb0;" horiz-adv-x="614" d="M74 1001q0 63 62.5 125t127.5 62q27 0 27 -10q0 -16 -65.5 -85t-65.5 -106q0 -23 24.5 -40t48.5 -17q43 0 114 57t81 100q6 23 6 46q0 49 -39 65q-14 6 -69 12q-39 4 -39 23q0 25 24.5 47.5t48.5 22.5q76 0 125 -31q58 -37 58 -109q0 -113 -114 -205t-230 -92 q-51 0 -88 41t-37 94z" />
<glyph unicode="&#xb1;" horiz-adv-x="929" d="M125 412q0 18 8 28q6 55 33 101q33 55 82 55q57 0 92 -41t35 -100q0 -25 -16.5 -52.5t-39.5 -27.5q-14 0 -29.5 17.5t-15.5 31.5q0 10 9 10q2 0 13 -13t26 -13q27 0 26 57q0 39 -27.5 70.5t-64.5 31.5q-55 0 -90 -90q0 -20 -7 -61t-7 -64q0 -109 112 -182q41 -20 53 -20 q8 0 52 26q74 45 135 154q6 14 20 39q49 63 66 80q45 41 92 40q61 0 96 -63q27 -51 27 -119q0 -43 -19 -76q-23 -39 -59 -38v-3q-76 0 -94 52h4q6 0 30.5 -15.5t39.5 -15.5q53 0 73 68q6 10 6 22q0 61 -22 105q-31 53 -86 53q-37 0 -80 -60q-31 -45 -59 -90 q-66 -96 -124.5 -144t-92.5 -48q-82 0 -146 106q-51 86 -51 189z" />
<glyph unicode="&#xb2;" horiz-adv-x="624" d="M-45 84q0 8 10 18h-2q6 8 57 35q27 14 124.5 91t115.5 100q125 150 203 383q14 41 31 80q16 47 16 86q0 27 -3 79t-3 76.5t-43 114.5t-62 106q-43 39 -96 39q-23 0 -82 -28q-137 -66 -137 -187q0 -10 9 -30.5t9 -32.5q0 -53 -30 -53q-45 0 -45 79q0 106 101 207t210 101 q119 0 182 -138q51 -108 51 -243q0 -172 -132 -420t-275 -348q-47 -31 -139 -93q-47 -35 -62 -34q-8 0 -8 12z" />
<glyph unicode="&#xb3;" horiz-adv-x="1656" d="M-57 82l2 4q78 51 235 154q102 66 207 133q121 76 213 119q217 92 643 290q242 123 303 123q19 0 19 -6q0 -25 -23 -37q-14 -4 -43 -14q-6 -2 -92 -64q-131 -92 -207 -125q-57 -25 -187 -60.5t-194 -66.5q-106 -51 -274 -143q-211 -117 -271 -147q-43 -18 -129 -62 q-4 -2 -98 -61q-80 -49 -90 -49q-14 0 -14 12z" />
<glyph unicode="&#xb4;" horiz-adv-x="825" d="M279 1604q0 6 8 14q18 14 55 46t113 116q35 51 69 102q45 61 97 62q14 0 30.5 -13.5t16.5 -27.5q0 -8 -25 -64q-16 -37 -74 -78q-82 -55 -92 -63q-121 -113 -129 -113q-2 0 -4 2h-6q-6 0 -17.5 -5t-19.5 -5q-23 0 -22 27z" />
<glyph unicode="&#xb6;" horiz-adv-x="1556" d="M-20 -172q0 57 110 149q70 123 447 469q-164 31 -283 89q-174 86 -174 206q0 78 92 172q84 86 166 111q16 6 160 35q354 74 651 76q68 82 100 82q37 0 37 -35q0 -20 -45 -47q252 -1 252 -103q0 -25 -60.5 -96.5t-86.5 -81.5q-90 -117 -281 -346q51 2 84 26.5t41 24.5 q39 0 39 -33q0 -49 -99 -77q-74 -23 -139 -23q-53 -63 -127 -158q-55 -51 -157 -166q-88 -119 -207 -256q-176 -201 -217 -200q-53 0 -54 32q0 51 217 283q141 154 277 283q49 66 158 182q-147 0 -256 10q-100 -92 -285 -289q-39 -49 -123 -141q-29 -23 -78 -72 q-25 -41 -49 -84q-33 -53 -70 -53q-41 0 -40 31zM195 725q0 -51 192 -111q127 -39 246 -59q25 35 81 96.5t79 93.5q47 70 94 138q53 78 104 129q-156 8 -231 8q-137 0 -289 -64q-158 -66 -244 -165q-33 -39 -32 -66zM723 537q150 -27 250 -29q123 115 246 285q47 79 153 229 q-86 -14 -225 -14q-63 -47 -203 -211q-72 -88 -221 -260z" />
<glyph unicode="&#xb7;" horiz-adv-x="407" d="M164 244q0 20 35 67q6 25 39 25q100 -1 100 -60q0 -35 -46 -68.5t-87 -29.5q-6 12 -19.5 33.5t-21.5 32.5z" />
<glyph unicode="&#xb8;" horiz-adv-x="751" d="M160 -223q10 8 57 8q14 0 140 -34t149 -44q86 -39 86 -113q0 -141 -287 -210q-16 -4 -31 -5q-90 0 -90 72q0 14 11 21q78 20 155 41q111 29 111 96q0 10 -2 14q-8 31 -133 86q-84 33 -166 68z" />
<glyph unicode="&#xb9;" horiz-adv-x="905" d="M-78 -254q0 39 88 191q76 133 123 194q14 16 39 49q-23 -14 -70 -41q-16 -4 -47 -16q-12 -6 -37 -21q-41 -23 -53 -22q-23 0 -12 14q4 8 22 19q47 25 107 55q39 25 82 70q23 23 55.5 77t54.5 78q16 16 136 158q20 20 57 70q170 242 219 305q162 207 258 250q25 -4 25 -23 q0 -76 -33 -111q-45 -45 -131 -133q-125 -135 -295 -356q-43 -53 -125 -168q18 -33 57 -33q49 0 127 39q45 23 78 96q25 57 82 58q45 0 45 -62v-37q0 -51 -40 -103t-89 -58q-88 -6 -178 -13q-111 -18 -111 -106q0 -55 60 -135q55 -72 110 -105q154 -88 316 -131t356 -43 q135 0 352 27q184 23 205 22q21 0 19 -8q-4 -20 -132 -41q-283 -47 -509 -47q-346 0 -644 158q-174 92 -270 295q-57 -90 -172 -267q-29 -45 -80 -139q-8 -16 -12 -22t-18 -9q-14 6 -15 25z" />
<glyph unicode="&#xba;" horiz-adv-x="991" d="M260 1847q0 63 62.5 125t128.5 62q27 0 26 -11q0 -16 -64.5 -83.5t-64.5 -104.5q0 -27 23.5 -43t50.5 -16q41 0 111.5 58t80.5 99q6 23 7 47q0 47 -39 64q-14 6 -70 12q-39 4 -39 23q0 25 24.5 47t49.5 22q76 0 125 -30q59 -37 59 -109q0 -113 -114.5 -205t-231.5 -92 q-51 0 -88 41t-37 94z" />
<glyph unicode="&#xbb;" horiz-adv-x="1198" d="M213 236q0 29 16 61q31 63 95 186q23 41 85 104.5t85 100.5q2 2 2 8q0 25 -57.5 110t-57.5 128q0 16 14.5 44t28.5 28q6 0 14 -27q6 -16 11 -33q20 -43 92.5 -67.5t95 -64.5t22.5 -56q0 -10 -6 -21q-10 -25 -20 -46t-37 -42q-92 -70 -186 -190q-31 -41 -156 -217 q-20 -29 -31 -29q-10 0 -10 23zM702 369q0 49 123 172t129 149q-10 59 -31.5 100t-42 82t-20.5 97q0 18 9.5 46.5t23.5 28.5q33 0 51 -49q12 -37 47 -110q39 -43 88 -129q19 -86 19 -78q0 -27 -54 -84q-37 -39 -133 -90t-133 -96q-14 -20 -26 -39q-23 -31 -31 -31 q-18 0 -19 31z" />
<glyph unicode="&#xbc;" horiz-adv-x="1024" />
<glyph unicode="&#xbd;" horiz-adv-x="1024" />
<glyph unicode="&#xbe;" horiz-adv-x="1501" d="M82 307q0 49 24 82q70 94 209 94q90 0 164 -34q20 -8 146 -84q12 -12 39 -37q133 -117 274 -156q96 -27 106 -27q90 0 209 60q135 68 136 147q0 12 -8.5 35t-8.5 35q0 18 27 18q20 1 20 -28q0 -102 -98 -187q-49 -43 -132 -72.5t-151 -29.5q-63 0 -179 46t-249 142 q-66 51 -131 101q-78 51 -155 51q-8 0 -28 -2t-30 -2q-35 0 -82 -25.5t-66.5 -57.5t-19.5 -75q0 -10 11 -25q47 -70 159 -69l123 24q-47 -35 -164 -34q-55 0 -96 26q-49 31 -49 84z" />
<glyph unicode="&#xbf;" horiz-adv-x="1402" d="M145 188q0 158 72 267q27 41 182 209q23 27 68 77q29 31 147 99q80 39 158 80q123 61 137 84q10 14 66 139q47 104 72 119q18 10 32 10q18 0 19 -21q0 -23 -13 -65q-39 -131 -104 -234q-41 -63 -115 -102q-6 -2 -143 -59q-152 -63 -303 -256q-160 -201 -160 -355 q0 -33 6 -57q20 -86 158 -146q61 -25 221 -65q41 -10 70 -10q96 0 223 71q63 37 197 136q96 72 122 71q43 0 43 -57q0 -53 -215 -215t-401 -162q-72 0 -215 57.5t-205 106.5q-51 41 -84 164q-2 8 -20 57q-14 33 -15 57zM1079 1604q0 25 11.5 54.5t31.5 29.5q18 0 54 -6.5 t57 -6.5q31 0 47 2l6 -10q0 -63 -58.5 -102t-125.5 -39q-23 0 -23 78z" />
<glyph unicode="&#xc0;" d="M92 94q0 12 23 39q10 12 161 121q68 49 101 74q70 53 86 80q12 12 24 36q4 27 -48 27t-52 57q0 37 49 160q57 143 76 172q49 80 143 117l25 6q33 0 77 -60.5t66 -60.5q12 0 331 395.5t353 395.5q27 0 27 -43q0 -88 -150 -396q-174 -356 -194 -426q-2 -10 -21.5 -46.5 t-19.5 -39.5q0 -20 10 -20q55 -6 115 57q12 12 80 101q47 59 82 78q16 8 28 8q31 0 31 -35q0 -6 -6 -17q-35 -33 -64 -79q-49 -82 -51 -86q-49 -70 -102 -111q-43 -29 -133 -72q-25 -10 -74 -34q-10 -6 -72.5 -108.5t-70.5 -123.5q-25 -72 -35 -190q-12 -164 -17 -193 q-6 -41 -32 -96q-39 -88 -41 -94q-121 -319 -344 -482q-23 -16 -33 -16q-20 0 -31.5 16.5t-11.5 55.5q0 61 31 145q41 115 129 342q76 176 241 430q82 127 82 217q0 78 -67 78q-66 0 -140 -24q-29 -10 -223 -209q-180 -184 -266 -185q-72 0 -72 39zM494 610q0 -78 79 -78 q20 0 97.5 88t77.5 111q0 14 -13.5 50t-23.5 36q-70 0 -143.5 -69.5t-73.5 -137.5zM504 -471q0 -90 55 -90q27 0 98 123q66 111 80 157q56 177 62 320q-2 2 -6 2q-12 0 -19.5 -15.5t-155.5 -252.5q-115 -182 -114 -244zM715 557q0 -41 45 -41q57 0 57 49q0 59 -43 60 q-25 0 -42 -21.5t-17 -46.5zM860 745q0 -59 14 -114q20 -80 60 -80q41 0 74 47q66 94 139 301q37 104 72 211q24 41 49 115l-15 14q-37 -14 -182 -213q-162 -223 -194 -256q-16 -16 -17 -25zM1505 2093q0 8 15.5 19.5t23.5 11.5q45 0 76 -66q23 -49 43 -100q29 -49 80 -105 q4 -4 4 -8q0 -23 -23 -22q-2 0 -8 2q-25 12 -49 24q-10 6 -37 43q-29 31 -88 95q-37 41 -37 106z" />
<glyph unicode="&#xc1;" d="M92 94q0 12 23 39q10 12 161 121q68 49 101 74q70 53 86 80q12 12 24 36q4 27 -48 27t-52 57q0 37 49 160q57 143 76 172q49 80 143 117l25 6q33 0 77 -60.5t66 -60.5q12 0 331 395.5t353 395.5q27 0 27 -43q0 -88 -150 -396q-174 -356 -194 -426q-2 -10 -21.5 -46.5 t-19.5 -39.5q0 -20 10 -20q55 -6 115 57q12 12 80 101q47 59 82 78q16 8 28 8q31 0 31 -35q0 -6 -6 -17q-35 -33 -64 -79q-49 -82 -51 -86q-49 -70 -102 -111q-43 -29 -133 -72q-25 -10 -74 -34q-10 -6 -72.5 -108.5t-70.5 -123.5q-25 -72 -35 -190q-12 -164 -17 -193 q-6 -41 -32 -96q-39 -88 -41 -94q-121 -319 -344 -482q-23 -16 -33 -16q-20 0 -31.5 16.5t-11.5 55.5q0 61 31 145q41 115 129 342q76 176 241 430q82 127 82 217q0 78 -67 78q-66 0 -140 -24q-29 -10 -223 -209q-180 -184 -266 -185q-72 0 -72 39zM494 610q0 -78 79 -78 q20 0 97.5 88t77.5 111q0 14 -13.5 50t-23.5 36q-70 0 -143.5 -69.5t-73.5 -137.5zM504 -471q0 -90 55 -90q27 0 98 123q66 111 80 157q56 177 62 320q-2 2 -6 2q-12 0 -19.5 -15.5t-155.5 -252.5q-115 -182 -114 -244zM715 557q0 -41 45 -41q57 0 57 49q0 59 -43 60 q-25 0 -42 -21.5t-17 -46.5zM860 745q0 -59 14 -114q20 -80 60 -80q41 0 74 47q66 94 139 301q37 104 72 211q24 41 49 115l-15 14q-37 -14 -182 -213q-162 -223 -194 -256q-16 -16 -17 -25zM1178 1769q0 6 8 15q18 14 55 46t113 116q35 51 69 102q45 61 97 61 q14 0 30.5 -13.5t16.5 -27.5q0 -8 -25 -63q-16 -37 -74 -78q-82 -55 -92 -63q-121 -113 -129 -113q-2 0 -4 2h-6q-6 0 -17.5 -5t-19.5 -5q-23 0 -22 26z" />
<glyph unicode="&#xc2;" d="M92 94q0 12 23 39q10 12 161 121q68 49 101 74q70 53 86 80q12 12 24 36q4 27 -48 27t-52 57q0 37 49 160q57 143 76 172q49 80 143 117l25 6q33 0 77 -60.5t66 -60.5q12 0 331 395.5t353 395.5q27 0 27 -43q0 -88 -150 -396q-174 -356 -194 -426q-2 -10 -21.5 -46.5 t-19.5 -39.5q0 -20 10 -20q55 -6 115 57q12 12 80 101q47 59 82 78q16 8 28 8q31 0 31 -35q0 -6 -6 -17q-35 -33 -64 -79q-49 -82 -51 -86q-49 -70 -102 -111q-43 -29 -133 -72q-25 -10 -74 -34q-10 -6 -72.5 -108.5t-70.5 -123.5q-25 -72 -35 -190q-12 -164 -17 -193 q-6 -41 -32 -96q-39 -88 -41 -94q-121 -319 -344 -482q-23 -16 -33 -16q-20 0 -31.5 16.5t-11.5 55.5q0 61 31 145q41 115 129 342q76 176 241 430q82 127 82 217q0 78 -67 78q-66 0 -140 -24q-29 -10 -223 -209q-180 -184 -266 -185q-72 0 -72 39zM494 610q0 -78 79 -78 q20 0 97.5 88t77.5 111q0 14 -13.5 50t-23.5 36q-70 0 -143.5 -69.5t-73.5 -137.5zM504 -471q0 -90 55 -90q27 0 98 123q66 111 80 157q56 177 62 320q-2 2 -6 2q-12 0 -19.5 -15.5t-155.5 -252.5q-115 -182 -114 -244zM715 557q0 -41 45 -41q57 0 57 49q0 59 -43 60 q-25 0 -42 -21.5t-17 -46.5zM860 745q0 -59 14 -114q20 -80 60 -80q41 0 74 47q66 94 139 301q37 104 72 211q24 41 49 115l-15 14q-37 -14 -182 -213q-162 -223 -194 -256q-16 -16 -17 -25zM1552 2001q0 39 82 106q102 86 152 86q20 0 38.5 -24.5t20.5 -46.5v-27 q0 -80 -14 -158q-23 -111 -66 -118q-20 0 -20 53q0 10 9 34.5t9 26.5q0 8 -8 27.5t-8 30.5q0 57 -31 57q-27 0 -80 -36t-59 -36q-4 0 -14.5 9.5t-10.5 15.5z" />
<glyph unicode="&#xc3;" d="M92 94q0 12 23 39q10 12 161 121q68 49 101 74q70 53 86 80q12 12 24 36q4 27 -48 27t-52 57q0 37 49 160q57 143 76 172q49 80 143 117l25 6q33 0 77 -60.5t66 -60.5q12 0 331 395.5t353 395.5q27 0 27 -43q0 -88 -150 -396q-174 -356 -194 -426q-2 -10 -21.5 -46.5 t-19.5 -39.5q0 -20 10 -20q55 -6 115 57q12 12 80 101q47 59 82 78q16 8 28 8q31 0 31 -35q0 -6 -6 -17q-35 -33 -64 -79q-49 -82 -51 -86q-49 -70 -102 -111q-43 -29 -133 -72q-25 -10 -74 -34q-10 -6 -72.5 -108.5t-70.5 -123.5q-25 -72 -35 -190q-12 -164 -17 -193 q-6 -41 -32 -96q-39 -88 -41 -94q-121 -319 -344 -482q-23 -16 -33 -16q-20 0 -31.5 16.5t-11.5 55.5q0 61 31 145q41 115 129 342q76 176 241 430q82 127 82 217q0 78 -67 78q-66 0 -140 -24q-29 -10 -223 -209q-180 -184 -266 -185q-72 0 -72 39zM494 610q0 -78 79 -78 q20 0 97.5 88t77.5 111q0 14 -13.5 50t-23.5 36q-70 0 -143.5 -69.5t-73.5 -137.5zM504 -471q0 -90 55 -90q27 0 98 123q66 111 80 157q56 177 62 320q-2 2 -6 2q-12 0 -19.5 -15.5t-155.5 -252.5q-115 -182 -114 -244zM715 557q0 -41 45 -41q57 0 57 49q0 59 -43 60 q-25 0 -42 -21.5t-17 -46.5zM860 745q0 -59 14 -114q20 -80 60 -80q41 0 74 47q66 94 139 301q37 104 72 211q24 41 49 115l-15 14q-37 -14 -182 -213q-162 -223 -194 -256q-16 -16 -17 -25zM1372 1989q12 59 68 86q66 33 123 32q63 0 100 -44t59 -87q12 -25 33 -69 q25 -33 39 -29q20 4 32.5 22.5t22.5 34.5q61 51 58 95q-6 66 41 65q8 0 12 -2q16 -8 16 -10q2 -4 -2 -31q-8 -43 -37 -113q-8 -20 -84 -98q-29 -29 -56.5 -37t-57.5 -4q-35 6 -43 29q-10 47 -31 131q-16 61 -59 76q-74 23 -86 20q-53 -10 -61.5 -38.5t-35.5 -69.5 q-39 -27 -49 -17q-12 10 -2 58z" />
<glyph unicode="&#xc4;" d="M92 94q0 12 23 39q10 12 161 121q68 49 101 74q70 53 86 80q12 12 24 36q4 27 -48 27t-52 57q0 37 49 160q57 143 76 172q49 80 143 117l25 6q33 0 77 -60.5t66 -60.5q12 0 331 395.5t353 395.5q27 0 27 -43q0 -88 -150 -396q-174 -356 -194 -426q-2 -10 -21.5 -46.5 t-19.5 -39.5q0 -20 10 -20q55 -6 115 57q12 12 80 101q47 59 82 78q16 8 28 8q31 0 31 -35q0 -6 -6 -17q-35 -33 -64 -79q-49 -82 -51 -86q-49 -70 -102 -111q-43 -29 -133 -72q-25 -10 -74 -34q-10 -6 -72.5 -108.5t-70.5 -123.5q-25 -72 -35 -190q-12 -164 -17 -193 q-6 -41 -32 -96q-39 -88 -41 -94q-121 -319 -344 -482q-23 -16 -33 -16q-20 0 -31.5 16.5t-11.5 55.5q0 61 31 145q41 115 129 342q76 176 241 430q82 127 82 217q0 78 -67 78q-66 0 -140 -24q-29 -10 -223 -209q-180 -184 -266 -185q-72 0 -72 39zM494 610q0 -78 79 -78 q20 0 97.5 88t77.5 111q0 14 -13.5 50t-23.5 36q-70 0 -143.5 -69.5t-73.5 -137.5zM504 -471q0 -90 55 -90q27 0 98 123q66 111 80 157q56 177 62 320q-2 2 -6 2q-12 0 -19.5 -15.5t-155.5 -252.5q-115 -182 -114 -244zM715 557q0 -41 45 -41q57 0 57 49q0 59 -43 60 q-25 0 -42 -21.5t-17 -46.5zM860 745q0 -59 14 -114q20 -80 60 -80q41 0 74 47q66 94 139 301q37 104 72 211q24 41 49 115l-15 14q-37 -14 -182 -213q-162 -223 -194 -256q-16 -16 -17 -25zM1135 1944q0 16 16 28q25 14 70 51q33 33 49 33q12 0 30.5 -27.5t18.5 -41.5 q0 -18 -53 -95q-6 -29 -41 -28q-90 0 -90 80zM1661 2025q0 8 20 35q8 14 16.5 28.5t22.5 14.5q16 0 49 -30q25 -16 72 -52q14 -12 14 -22q0 -74 -110 -74h-16q-16 2 -31 29q-12 16 -24.5 35.5t-12.5 35.5z" />
<glyph unicode="&#xc5;" d="M92 94q0 12 23 39q10 12 161 121q68 49 101 74q70 53 86 80q12 12 24 36q4 27 -48 27t-52 57q0 37 49 160q57 143 76 172q49 80 143 117l25 6q33 0 77 -60.5t66 -60.5q12 0 331 395.5t353 395.5q27 0 27 -43q0 -88 -150 -396q-174 -356 -194 -426q-2 -10 -21.5 -46.5 t-19.5 -39.5q0 -20 10 -20q55 -6 115 57q12 12 80 101q47 59 82 78q16 8 28 8q31 0 31 -35q0 -6 -6 -17q-35 -33 -64 -79q-49 -82 -51 -86q-49 -70 -102 -111q-43 -29 -133 -72q-25 -10 -74 -34q-10 -6 -72.5 -108.5t-70.5 -123.5q-25 -72 -35 -190q-12 -164 -17 -193 q-6 -41 -32 -96q-39 -88 -41 -94q-121 -319 -344 -482q-23 -16 -33 -16q-20 0 -31.5 16.5t-11.5 55.5q0 61 31 145q41 115 129 342q76 176 241 430q82 127 82 217q0 78 -67 78q-66 0 -140 -24q-29 -10 -223 -209q-180 -184 -266 -185q-72 0 -72 39zM494 610q0 -78 79 -78 q20 0 97.5 88t77.5 111q0 14 -13.5 50t-23.5 36q-70 0 -143.5 -69.5t-73.5 -137.5zM504 -471q0 -90 55 -90q27 0 98 123q66 111 80 157q56 177 62 320q-2 2 -6 2q-12 0 -19.5 -15.5t-155.5 -252.5q-115 -182 -114 -244zM715 557q0 -41 45 -41q57 0 57 49q0 59 -43 60 q-25 0 -42 -21.5t-17 -46.5zM860 745q0 -59 14 -114q20 -80 60 -80q41 0 74 47q66 94 139 301q37 104 72 211q24 41 49 115l-15 14q-37 -14 -182 -213q-162 -223 -194 -256q-16 -16 -17 -25zM1419 2007q0 63 62.5 124.5t128.5 61.5q27 0 26 -10q0 -16 -64.5 -83.5 t-64.5 -104.5q0 -25 24.5 -42.5t49.5 -17.5q41 0 111.5 58.5t81.5 99.5q6 23 6 47q0 47 -39 64q-14 6 -70 12q-39 4 -39 22q0 25 24.5 47.5t49.5 22.5q76 0 125 -31q59 -36 59 -108q0 -113 -114.5 -205t-231.5 -92q-51 0 -88 41t-37 94z" />
<glyph unicode="&#xc6;" horiz-adv-x="2039" d="M88 96q0 47 195.5 172t195.5 178q0 16 -49 26.5t-49 55.5q0 96 98 265q104 182 191 182q23 0 68.5 -59.5t72.5 -59.5q16 0 331.5 393t348.5 393q23 0 22 -22q0 -68 -167 -440q-109 -238 -218 -475l9 -27h14q43 -4 82 27q8 4 67 61q16 180 127 303q-37 37 -36 82 q0 25 19.5 43t43.5 18q14 0 33 -26q10 -20 22 -41q283 252 416 252q59 0 109 -25q59 -33 59 -88q0 -41 -45 -108q-78 -119 -154 -175q-88 -66 -217 -79q-104 35 -112 36q-59 25 -101 68q-27 -27 -51 -55.5t-24 -69.5q0 -248 77 -375q10 -14 11 -26q0 -47 -39 -54 q-18 18 -58 54q-45 35 -170 41q-172 -72 -305 -289q-6 -37 -6 -74q0 -59 14 -139q80 -111 164 -111q344 0 764 219q27 14 88.5 87t81.5 81l14 -12q-78 -207 -444 -356q-317 -129 -580 -129q-139 0 -184 112q-10 -49 -41 -114q-29 -55 -55 -111q-109 -242 -133 -287 q-113 -219 -178 -219q-31 0 -31 41q0 43 29 92q27 39 53 80q33 51 147 320q23 55 74 225q43 141 88 219q82 141 82 219q0 33 -20.5 57.5t-51.5 24.5q-117 0 -178 -53q-109 -106 -215 -211q-162 -152 -233 -152q-66 0 -66 35zM477 610q0 -37 24.5 -60.5t59.5 -23.5 q25 0 101.5 89t76.5 114q0 23 -14 47q6 45 -27 45q-72 0 -146.5 -70.5t-74.5 -140.5zM696 557q0 -47 52 -47q61 0 61 55q0 63 -47 64q-27 0 -46.5 -22.5t-19.5 -49.5zM842 743q0 -55 16 -114q20 -84 62 -84q61 0 120 123q39 78 95 250q51 162 72 195.5t50 109.5l-18 18 q-29 -18 -213 -249.5t-184 -248.5zM1536 1096q92 -121 172 -121q76 0 192.5 96t116.5 170q0 78 -80 78q-59 0 -206 -88q-129 -76 -195 -135z" />
<glyph unicode="&#xc7;" horiz-adv-x="880" d="M-207 135q0 66 29 174q66 246 201 363l192 176q115 102 207 156q45 25 143.5 60.5t145.5 61.5q16 35 65 107q55 82 74 82q12 0 12 -17q0 -10 -31 -57q-41 -63 -40 -63q135 98 180 98q53 -1 53 -64q0 -20 -8 -49q-33 -113 -115 -219q-98 -127 -196 -127q-63 0 -64 74 q0 55 35 156q-109 -55 -318 -183q-57 -41 -131 -112q-59 -61 -121 -123q-55 -53 -102 -115q-33 -43 -64.5 -129t-31.5 -137q0 -160 49 -230q23 -31 59 -61q47 -37 76 -37h17q10 2 14 2v4q0 23 15.5 44.5t35.5 21.5q18 0 27.5 -18.5t17.5 -36.5q135 27 293 155q68 55 145 158 q117 156 133.5 175t26.5 19q27 0 27 -49q0 -45 -62 -131q-49 -59 -96 -119q-147 -188 -422 -270q100 -27 201 -55q127 -43 127 -131q0 -90 -103 -146q-45 -25 -184 -63q-10 -4 -33 -4q-88 0 -88 69q0 16 11 23q18 12 97 27.5t111 31.5q57 27 58 76q0 10 -2 14 q-10 31 -203 101q-59 20 -90 37q-33 -6 -66 -7q-25 0 -109.5 32t-107.5 48q-90 66 -90 207zM702 913q0 -33 29 -32q82 0 158 102t76 186q0 20 -13 21q-53 0 -127.5 -53.5t-93.5 -104.5q-29 -78 -29 -119z" />
<glyph unicode="&#xc8;" horiz-adv-x="1368" d="M92 76q0 104 27 178q53 147 196 258q152 117 301 109q-18 55 -18 112q0 82 36 180.5t91 157.5q-41 41 -74 152q-31 100 -30 170q0 14 11 28.5t23 14.5q18 0 35 -9q57 -121 127 -272q283 250 416 250q63 0 113 -27q61 -31 61 -90q0 -37 -47 -112q-76 -119 -156 -179 q-90 -63 -221 -79q-55 18 -110.5 36.5t-102.5 65.5q-49 -61 -70 -96q2 -12 17 -199q8 -109 59 -195q10 -16 10 -45q0 -39 -43 -43l-12 4q-16 16 -49 50q-43 35 -166 41q-106 -45 -178 -115q-53 -55 -125 -172q-6 -37 -6 -72q0 -59 14 -139q82 -109 160 -109q84 0 199 23 q98 23 196 43q74 16 189 72q133 68 182 84q43 47 88 94q72 74 84 73q20 0 20 -18q-96 -211 -450 -360q-313 -131 -582 -131q-109 0 -166 79q-49 72 -49 187zM848 1098q86 -115 168 -115q74 0 189.5 95t115.5 167t-76 72q-53 0 -205 -88q-133 -80 -192 -131zM1071 1876 q0 8 14.5 20.5t24.5 12.5q45 0 88 -94q57 -123 68 -136q2 -4 26 -26q19 -19 19 -25q0 -20 -21 -20q-8 0 -10 2q-25 12 -49 24q-10 6 -37 43q-4 4 -64 70q-43 45 -49 76q-10 49 -10 53z" />
<glyph unicode="&#xc9;" horiz-adv-x="1368" d="M92 76q0 104 27 178q53 147 196 258q152 117 301 109q-18 55 -18 112q0 82 36 180.5t91 157.5q-41 41 -74 152q-31 100 -30 170q0 14 11 28.5t23 14.5q18 0 35 -9q57 -121 127 -272q283 250 416 250q63 0 113 -27q61 -31 61 -90q0 -37 -47 -112q-76 -119 -156 -179 q-90 -63 -221 -79q-55 18 -110.5 36.5t-102.5 65.5q-49 -61 -70 -96q2 -12 17 -199q8 -109 59 -195q10 -16 10 -45q0 -39 -43 -43l-12 4q-16 16 -49 50q-43 35 -166 41q-106 -45 -178 -115q-53 -55 -125 -172q-6 -37 -6 -72q0 -59 14 -139q82 -109 160 -109q84 0 199 23 q98 23 196 43q74 16 189 72q133 68 182 84q43 47 88 94q72 74 84 73q20 0 20 -18q-96 -211 -450 -360q-313 -131 -582 -131q-109 0 -166 79q-49 72 -49 187zM848 1098q86 -115 168 -115q74 0 189.5 95t115.5 167t-76 72q-53 0 -205 -88q-133 -80 -192 -131zM1063 1665 q0 6 8 14q20 14 57 45q25 25 111 119q35 51 70 103q45 59 98 59q12 0 28.5 -14.5t16.5 -26.5l-25 -63q-12 -31 -43 -54q-43 -27 -122 -88q-123 -113 -129 -112q-2 2 -7 2q-8 0 -20 -5.5t-19 -5.5q-25 0 -24 27z" />
<glyph unicode="&#xca;" horiz-adv-x="1368" d="M92 76q0 104 27 178q53 147 196 258q152 117 301 109q-18 55 -18 112q0 82 36 180.5t91 157.5q-41 41 -74 152q-31 100 -30 170q0 14 11 28.5t23 14.5q18 0 35 -9q57 -121 127 -272q283 250 416 250q63 0 113 -27q61 -31 61 -90q0 -37 -47 -112q-76 -119 -156 -179 q-90 -63 -221 -79q-55 18 -110.5 36.5t-102.5 65.5q-49 -61 -70 -96q2 -12 17 -199q8 -109 59 -195q10 -16 10 -45q0 -39 -43 -43l-12 4q-16 16 -49 50q-43 35 -166 41q-106 -45 -178 -115q-53 -55 -125 -172q-6 -37 -6 -72q0 -59 14 -139q82 -109 160 -109q84 0 199 23 q98 23 196 43q74 16 189 72q133 68 182 84q43 47 88 94q72 74 84 73q20 0 20 -18q-96 -211 -450 -360q-313 -131 -582 -131q-109 0 -166 79q-49 72 -49 187zM848 1098q86 -115 168 -115q74 0 189.5 95t115.5 167t-76 72q-53 0 -205 -88q-133 -80 -192 -131zM1190 1729 q0 18 143.5 120.5t171.5 102.5q27 0 44.5 -28.5t17.5 -57.5q0 -248 -74 -287l-6 -2q-23 0 -23 53q0 10 9.5 30.5t9.5 31.5q0 10 -7.5 28.5t-7.5 28.5q0 57 -32 57q-27 0 -120 -50t-102 -50q-4 0 -14 9t-10 14z" />
<glyph unicode="&#xcb;" horiz-adv-x="1368" d="M92 76q0 104 27 178q53 147 196 258q152 117 301 109q-18 55 -18 112q0 82 36 180.5t91 157.5q-41 41 -74 152q-31 100 -30 170q0 14 11 28.5t23 14.5q18 0 35 -9q57 -121 127 -272q283 250 416 250q63 0 113 -27q61 -31 61 -90q0 -37 -47 -112q-76 -119 -156 -179 q-90 -63 -221 -79q-55 18 -110.5 36.5t-102.5 65.5q-49 -61 -70 -96q2 -12 17 -199q8 -109 59 -195q10 -16 10 -45q0 -39 -43 -43l-12 4q-16 16 -49 50q-43 35 -166 41q-106 -45 -178 -115q-53 -55 -125 -172q-6 -37 -6 -72q0 -59 14 -139q82 -109 160 -109q84 0 199 23 q98 23 196 43q74 16 189 72q133 68 182 84q43 47 88 94q72 74 84 73q20 0 20 -18q-96 -211 -450 -360q-313 -131 -582 -131q-109 0 -166 79q-49 72 -49 187zM848 1098q86 -115 168 -115q74 0 189.5 95t115.5 167t-76 72q-53 0 -205 -88q-133 -80 -192 -131zM895 1679 q0 8 14 23q25 14 72 51q33 33 49 33q12 0 30.5 -28t18.5 -42q0 -16 -20 -47q-31 -45 -33 -47q-14 -29 -31 -29h-18q-82 0 -82 86zM1425 1810q0 8 21 35q8 14 16 28.5t23 14.5q18 0 49 -30q25 -16 72 -52q14 -12 14 -22q0 -74 -111 -74h-16q-16 2 -31 29q-12 16 -24.5 35.5 t-12.5 35.5z" />
<glyph unicode="&#xcc;" horiz-adv-x="1372" d="M29 -43q0 59 202 115q180 47 263 41q127 227 450 600q41 47 160 227q33 41 86 131q-135 51 -270 103q-164 59 -283 59q-117 0 -117 -191q0 -80 37 -109.5t121 -29.5q41 0 117.5 27.5t115.5 27.5q25 0 25 -38q0 -27 -123 -87.5t-160 -60.5q-92 0 -167.5 92t-75.5 187 q0 94 35.5 150t121.5 99q57 29 90 29q84 0 207 -43q100 -39 201 -78q39 -14 195 -43q74 137 106 138q25 0 25 -37q0 -39 -45 -111q53 -6 102 -6q305 0 649 188q12 2 31.5 10.5t28.5 8.5q26 0 26 -37q0 -16 -20 -35q-102 -92 -373 -170q-250 -74 -410 -74q-68 0 -108 13 q-115 -207 -117 -213q-72 -121 -137 -203q-31 -33 -88 -100q-6 -8 -86 -144q-104 -176 -199 -295q688 -211 688 -590q0 -92 -53 -92q-14 0 -31 43q-113 268 -260 383q-156 119 -438 140q-100 -139 -131 -140q-10 0 -19 8l-8 23q4 39 33 113h-18q-193 0 -232 -13 q-10 -2 -62.5 -26.5t-60.5 -24.5q-25 0 -24 35zM1362 1739q0 8 14.5 20.5t24.5 12.5q45 0 88 -95q57 -123 67 -135q2 -4 27 -26q19 -19 19 -25q0 -20 -21 -21q-8 0 -10 3q-25 12 -49 24q-10 6 -37 43q-4 4 -64 70q-43 45 -49 76q-10 49 -10 53z" />
<glyph unicode="&#xcd;" horiz-adv-x="1372" d="M29 -43q0 59 202 115q180 47 263 41q127 227 450 600q41 47 160 227q33 41 86 131q-135 51 -270 103q-164 59 -283 59q-117 0 -117 -191q0 -80 37 -109.5t121 -29.5q41 0 117.5 27.5t115.5 27.5q25 0 25 -38q0 -27 -123 -87.5t-160 -60.5q-92 0 -167.5 92t-75.5 187 q0 94 35.5 150t121.5 99q57 29 90 29q84 0 207 -43q100 -39 201 -78q39 -14 195 -43q74 137 106 138q25 0 25 -37q0 -39 -45 -111q53 -6 102 -6q305 0 649 188q12 2 31.5 10.5t28.5 8.5q26 0 26 -37q0 -16 -20 -35q-102 -92 -373 -170q-250 -74 -410 -74q-68 0 -108 13 q-115 -207 -117 -213q-72 -121 -137 -203q-31 -33 -88 -100q-6 -8 -86 -144q-104 -176 -199 -295q688 -211 688 -590q0 -92 -53 -92q-14 0 -31 43q-113 268 -260 383q-156 119 -438 140q-100 -139 -131 -140q-10 0 -19 8l-8 23q4 39 33 113h-18q-193 0 -232 -13 q-10 -2 -62.5 -26.5t-60.5 -24.5q-25 0 -24 35zM1137 1544q0 6 8 15q18 14 55 45.5t113 115.5q35 51 69 103q45 61 97 61q14 0 30.5 -13.5t16.5 -27.5q0 -8 -25 -63q-16 -37 -74 -78q-82 -55 -92 -64q-121 -113 -129 -112q-2 0 -4 2h-6q-6 0 -17.5 -5t-19.5 -5q-23 0 -22 26 z" />
<glyph unicode="&#xce;" horiz-adv-x="1372" d="M29 -43q0 59 202 115q180 47 263 41q127 227 450 600q41 47 160 227q33 41 86 131q-135 51 -270 103q-164 59 -283 59q-117 0 -117 -191q0 -80 37 -109.5t121 -29.5q41 0 117.5 27.5t115.5 27.5q25 0 25 -38q0 -27 -123 -87.5t-160 -60.5q-92 0 -167.5 92t-75.5 187 q0 94 35.5 150t121.5 99q57 29 90 29q84 0 207 -43q100 -39 201 -78q39 -14 195 -43q74 137 106 138q25 0 25 -37q0 -39 -45 -111q53 -6 102 -6q305 0 649 188q12 2 31.5 10.5t28.5 8.5q26 0 26 -37q0 -16 -20 -35q-102 -92 -373 -170q-250 -74 -410 -74q-68 0 -108 13 q-115 -207 -117 -213q-72 -121 -137 -203q-31 -33 -88 -100q-6 -8 -86 -144q-104 -176 -199 -295q688 -211 688 -590q0 -92 -53 -92q-14 0 -31 43q-113 268 -260 383q-156 119 -438 140q-100 -139 -131 -140q-10 0 -19 8l-8 23q4 39 33 113h-18q-193 0 -232 -13 q-10 -2 -62.5 -26.5t-60.5 -24.5q-25 0 -24 35zM1399 1552q0 18 143.5 121t171.5 103q27 0 44.5 -28.5t17.5 -57.5q0 -248 -74 -287l-6 -2q-23 0 -23 53q0 10 9.5 30.5t9.5 31.5q0 10 -7.5 28.5t-7.5 28.5q0 57 -32 57q-27 0 -120 -50t-102 -50q-4 0 -14 9t-10 13z" />
<glyph unicode="&#xcf;" horiz-adv-x="1372" d="M29 -43q0 59 202 115q180 47 263 41q127 227 450 600q41 47 160 227q33 41 86 131q-135 51 -270 103q-164 59 -283 59q-117 0 -117 -191q0 -80 37 -109.5t121 -29.5q41 0 117.5 27.5t115.5 27.5q25 0 25 -38q0 -27 -123 -87.5t-160 -60.5q-92 0 -167.5 92t-75.5 187 q0 94 35.5 150t121.5 99q57 29 90 29q84 0 207 -43q100 -39 201 -78q39 -14 195 -43q74 137 106 138q25 0 25 -37q0 -39 -45 -111q53 -6 102 -6q305 0 649 188q12 2 31.5 10.5t28.5 8.5q26 0 26 -37q0 -16 -20 -35q-102 -92 -373 -170q-250 -74 -410 -74q-68 0 -108 13 q-115 -207 -117 -213q-72 -121 -137 -203q-31 -33 -88 -100q-6 -8 -86 -144q-104 -176 -199 -295q688 -211 688 -590q0 -92 -53 -92q-14 0 -31 43q-113 268 -260 383q-156 119 -438 140q-100 -139 -131 -140q-10 0 -19 8l-8 23q4 39 33 113h-18q-193 0 -232 -13 q-10 -2 -62.5 -26.5t-60.5 -24.5q-25 0 -24 35zM1120 1636q0 8 17 21q25 16 69 53q31 31 49 31q12 0 31 -28t19 -40q0 -20 -21 -49q-33 -43 -33 -45q-14 -29 -30 -29h-19q-82 0 -82 86zM1694 1688q0 8 20 34q8 14 16.5 28.5t22.5 14.5q18 0 49 -30q25 -16 72 -52 q14 -12 14 -22q0 -74 -110 -74h-17q-16 2 -30 29q-12 16 -24.5 35.5t-12.5 36.5z" />
<glyph unicode="&#xd0;" horiz-adv-x="2056" d="M88 -74q0 119 156 217q139 88 266 88q170 0 297 -59q45 74 102 139q-115 -20 -172 -20q-72 0 -71 39q0 31 32 41q33 4 99 10q117 12 190 25q14 18 43 52t43 50q-190 31 -223 47q-80 39 -131 182q-23 61 -23 109q0 102 103 233q55 72 168 129q102 53 202 74q70 4 207 21 q162 27 174 26q160 0 324 -152.5t164 -312.5q0 -524 -535 -821q-209 -117 -319 -117q-76 0 -191 54l-180 90q-131 -102 -264 -205q-117 -70 -332 -70q-51 0 -90 40t-39 91zM174 -84q0 -41 59 -41q158 0 273 66q28 13 225 163q-80 27 -96 27q-344 0 -430 -137 q-31 -49 -31 -78zM772 834q0 -131 121 -197q96 -51 240 -51q27 29 88 71.5t86 67.5q135 135 196 225q25 45 51 88q35 53 80 54q33 0 33 -29q0 -12 -8 -37q45 23 55 23q63 0 64 -93q0 -186 -148 -288q-100 -68 -315 -119q-45 -16 -141 -41l-74 -92q53 0 180 -29 q143 -35 143 -63q0 -33 -39 -33q-137 0 -358 26q-47 -61 -145 -184q125 -59 149 -70q88 -35 162 -34q123 0 385 186q66 35 180 123q14 14 74 123q98 178 98 180q21 52 21 197q0 104 -14.5 139t-84.5 117q-27 33 -86 88q-23 16 -149 32q-113 14 -164 15q-197 0 -315 -31 q-172 -43 -269 -158q-53 -63 -69 -94q-27 -49 -27 -112zM1317 635q174 59 248 102q143 86 143 205q0 8 -8 21q-4 0 -10 2h-13q-20 0 -37 -17q-33 -37 -96 -110q-113 -125 -227 -203z" />
<glyph unicode="&#xd1;" horiz-adv-x="1527" d="M92 -119q0 27 29 49q27 14 55.5 32t110.5 85q106 88 209 178q143 127 206 187q139 133 181 200q18 29 30 103q43 236 267 440q57 53 100 53q29 0 49.5 -19.5t20.5 -45.5q0 -72 -156 -277q-195 -254 -209 -280q-37 -68 -37 -195v-145q37 23 137 137q152 176 367 346 q225 178 625 377q203 100 333 141q170 51 361 51q289 0 289 -141q0 -63 -63.5 -147t-127.5 -84q-23 0 -22 20q0 41 79.5 89t79.5 100q0 102 -194 102q-432 0 -993 -352q-479 -303 -818 -697q-74 -84 -81 -98q-23 -41 -37 -125q-4 -33 -20.5 -96.5t-80.5 -159.5 q-74 -113 -123 -112q-57 0 -57 67q0 102 68 211q61 94 125 186q68 117 67 236q0 109 -12 160q-100 -84 -330 -291q-119 -113 -368 -324q-10 -8 -25 -8q-10 0 -23 8q-12 18 -12 39zM678 -274l4 -2q18 4 52 57.5t34 73.5q-2 8 -6 18l-12 4q-20 -4 -45 -67q-23 -53 -27 -84z M1042 836q0 -33 21 -33q6 0 35 43q14 33 54 89t40 66q0 27 -27 27q-31 0 -55 -59q-33 -76 -41 -84q-27 -29 -27 -49zM1604 1489q0 41 36.5 72.5t79.5 31.5q59 0 118.5 -73.5t111.5 -73.5q45 0 86 37q12 10 65 71q43 51 67.5 109.5t53.5 58.5q55 0 55 -39q0 -6 -4 -38 q-10 -84 -141 -168q-123 -78 -215 -78q-68 0 -118 75.5t-77 75.5q-43 0 -69.5 -40t-34.5 -40q-14 0 -14 19z" />
<glyph unicode="&#xd2;" horiz-adv-x="1574" d="M129 6q0 135 45 270q47 147 131 240q-51 35 -99 129t-48 156q0 55 41 55q12 0 24 -35q41 -119 47 -133q29 -59 86 -113q117 129 193 189q111 82 242 115q49 35 141 34q12 0 18 -2q127 -25 178 -51q92 -49 93 -145q0 -72 -27 -117q-16 -23 -82 -88q-90 -88 -161.5 -120 t-192.5 -32q-186 0 -355 97q-145 -242 -145 -496q0 -178 152 -178q258 0 389 55q260 109 403 232q166 141 273 370q135 293 135 477q0 70 -57.5 127.5t-127.5 57.5q-281 0 -346 -43q-4 -2 -44 -37t-48 -35q-27 0 -26 66q0 53 192 90q145 29 242 28q348 0 348 -276 q0 -254 -211 -555q-199 -283 -488 -477q-305 -203 -559 -203q-356 0 -356 348zM440 524q125 -49 297 -49q393 0 393 236q0 59 -71 86q-6 0 -121 22l-14 -4q-51 -14 -125 -21.5t-109 -19.5q-55 -18 -115 -72q-66 -59 -135 -178zM938 1663q0 8 14.5 20.5t24.5 12.5 q45 0 88 -94q57 -123 68 -136q2 -4 26 -26q19 -19 19 -25q0 -20 -21 -20q-8 0 -10 2q-25 12 -49 24q-10 6 -37 43q-4 4 -64 70q-43 45 -49 76q-10 49 -10 53z" />
<glyph unicode="&#xd3;" horiz-adv-x="1574" d="M129 6q0 135 45 270q47 147 131 240q-51 35 -99 129t-48 156q0 55 41 55q12 0 24 -35q41 -119 47 -133q29 -59 86 -113q117 129 193 189q111 82 242 115q49 35 141 34q12 0 18 -2q127 -25 178 -51q92 -49 93 -145q0 -72 -27 -117q-16 -23 -82 -88q-90 -88 -161.5 -120 t-192.5 -32q-186 0 -355 97q-145 -242 -145 -496q0 -178 152 -178q258 0 389 55q260 109 403 232q166 141 273 370q135 293 135 477q0 70 -57.5 127.5t-127.5 57.5q-281 0 -346 -43q-4 -2 -44 -37t-48 -35q-27 0 -26 66q0 53 192 90q145 29 242 28q348 0 348 -276 q0 -254 -211 -555q-199 -283 -488 -477q-305 -203 -559 -203q-356 0 -356 348zM440 524q125 -49 297 -49q393 0 393 236q0 59 -71 86q-6 0 -121 22l-14 -4q-51 -14 -125 -21.5t-109 -19.5q-55 -18 -115 -72q-66 -59 -135 -178zM1001 1391q0 6 9 14q18 14 57 45 q47 45 111 117q35 51 69 102q45 61 96 62q14 0 31 -13.5t17 -27.5q0 -8 -25 -64q-16 -37 -74 -78q-82 -55 -92 -63q-121 -113 -129 -113q-2 0 -4 2h-6q-6 0 -17.5 -5t-19.5 -5q-23 0 -23 27z" />
<glyph unicode="&#xd4;" horiz-adv-x="1574" d="M129 6q0 135 45 270q47 147 131 240q-51 35 -99 129t-48 156q0 55 41 55q12 0 24 -35q41 -119 47 -133q29 -59 86 -113q117 129 193 189q111 82 242 115q49 35 141 34q12 0 18 -2q127 -25 178 -51q92 -49 93 -145q0 -72 -27 -117q-16 -23 -82 -88q-90 -88 -161.5 -120 t-192.5 -32q-186 0 -355 97q-145 -242 -145 -496q0 -178 152 -178q258 0 389 55q260 109 403 232q166 141 273 370q135 293 135 477q0 70 -57.5 127.5t-127.5 57.5q-281 0 -346 -43q-4 -2 -44 -37t-48 -35q-27 0 -26 66q0 53 192 90q145 29 242 28q348 0 348 -276 q0 -254 -211 -555q-199 -283 -488 -477q-305 -203 -559 -203q-356 0 -356 348zM440 524q125 -49 297 -49q393 0 393 236q0 59 -71 86q-6 0 -121 22l-14 -4q-51 -14 -125 -21.5t-109 -19.5q-55 -18 -115 -72q-66 -59 -135 -178zM1298 1511q0 23 150.5 135.5t183.5 112.5 q27 0 44.5 -28.5t17.5 -57.5q0 -248 -74 -287l-6 -2q-23 0 -23 54q0 10 9.5 30.5t9.5 30.5t-7.5 28.5t-7.5 28.5q0 57 -32 58q-29 0 -130.5 -62.5t-109.5 -62.5q-4 0 -14.5 9t-10.5 13z" />
<glyph unicode="&#xd5;" horiz-adv-x="1574" d="M129 6q0 135 45 270q47 147 131 240q-51 35 -99 129t-48 156q0 55 41 55q12 0 24 -35q41 -119 47 -133q29 -59 86 -113q117 129 193 189q111 82 242 115q49 35 141 34q12 0 18 -2q127 -25 178 -51q92 -49 93 -145q0 -72 -27 -117q-16 -23 -82 -88q-90 -88 -161.5 -120 t-192.5 -32q-186 0 -355 97q-145 -242 -145 -496q0 -178 152 -178q258 0 389 55q260 109 403 232q166 141 273 370q135 293 135 477q0 70 -57.5 127.5t-127.5 57.5q-281 0 -346 -43q-4 -2 -44 -37t-48 -35q-27 0 -26 66q0 53 192 90q145 29 242 28q348 0 348 -276 q0 -254 -211 -555q-199 -283 -488 -477q-305 -203 -559 -203q-356 0 -356 348zM440 524q125 -49 297 -49q393 0 393 236q0 59 -71 86q-6 0 -121 22l-14 -4q-51 -14 -125 -21.5t-109 -19.5q-55 -18 -115 -72q-66 -59 -135 -178zM1204 1397q0 45 33 77.5t78 32.5 q53 0 113.5 -53t99.5 -53q94 0 170 143q12 12 45 88q25 55 53 56q33 0 33 -31q0 -59 -66 -137q-53 -59 -116 -103q-90 -59 -146 -59q-53 0 -107.5 59.5t-78.5 59.5q-20 0 -43 -23.5t-29 -44.5q-10 -31 -29 -31q-10 0 -10 19z" />
<glyph unicode="&#xd6;" horiz-adv-x="1574" d="M129 6q0 135 45 270q47 147 131 240q-51 35 -99 129t-48 156q0 55 41 55q12 0 24 -35q41 -119 47 -133q29 -59 86 -113q117 129 193 189q111 82 242 115q49 35 141 34q12 0 18 -2q127 -25 178 -51q92 -49 93 -145q0 -72 -27 -117q-16 -23 -82 -88q-90 -88 -161.5 -120 t-192.5 -32q-186 0 -355 97q-145 -242 -145 -496q0 -178 152 -178q258 0 389 55q260 109 403 232q166 141 273 370q135 293 135 477q0 70 -57.5 127.5t-127.5 57.5q-281 0 -346 -43q-4 -2 -44 -37t-48 -35q-27 0 -26 66q0 53 192 90q145 29 242 28q348 0 348 -276 q0 -254 -211 -555q-199 -283 -488 -477q-305 -203 -559 -203q-356 0 -356 348zM440 524q125 -49 297 -49q393 0 393 236q0 59 -71 86q-6 0 -121 22l-14 -4q-51 -14 -125 -21.5t-109 -19.5q-55 -18 -115 -72q-66 -59 -135 -178zM711 1458q0 16 16 29q25 14 70 51q33 33 49 33 q12 0 30.5 -28t18.5 -42q0 -18 -53 -94q-6 -29 -41 -29q-90 0 -90 80zM1503 1651q0 8 21 35q8 14 16 28.5t23 14.5q18 0 49 -31q23 -16 69 -51q17 -13 17 -23q0 -74 -111 -74h-16q-14 2 -31 31q-12 16 -24.5 34.5t-12.5 35.5z" />
<glyph unicode="&#xd7;" horiz-adv-x="841" d="M152 147q0 14 13 24.5t48 25.5q43 16 53 22q80 45 117 82q-199 121 -199 160q0 27 31 26q6 0 16 -4q27 -18 78 -55q39 -27 119 -82q172 172 215 172q29 0 29 -29q0 -8 -8 -20q-25 -23 -72 -66q-49 -49 -109 -96q135 -90 135 -170q0 -37 -34 -37q-14 0 -95 99 q-35 45 -59 63l-106 -98q-68 -55 -127 -55q-45 0 -45 38z" />
<glyph unicode="&#xd8;" horiz-adv-x="1574" d="M129 6q0 301 176 506q270 313 486 367q14 14 30 14q29 0 29 -37q0 -49 -102.5 -69.5t-172.5 -84.5q-59 -53 -172 -247q-145 -252 -145 -496q0 -178 152 -178h55q80 203 182 383q156 270 443 602q61 70 241 332q-209 -16 -252 -41q-6 -4 -45 -38t-47 -34q-27 0 -26 66 q0 53 186 90q131 25 235 28q217 299 334 299q27 0 27 -12t-51 -39q-70 -37 -232 -250q283 -24 283 -274q0 -256 -209 -553q-197 -283 -487 -477q-303 -203 -558 -205q-8 -20 -55 -168q-18 -55 -35 -55q-12 0 -29.5 27.5t-17.5 41.5q0 6 31 72q35 78 37 86q-291 27 -291 344z M541 -215q145 6 258 51q246 98 401 232q170 145 275 370q135 291 135 477q0 76 -60.5 130.5t-138.5 54.5q-145 -201 -438 -598q-272 -360 -432 -717z" />
<glyph unicode="&#xd9;" horiz-adv-x="1251" d="M72 -205q0 168 112 445q102 254 219 405q-20 0 -61 2h-63q-63 0 -64 31q0 37 76 37q12 0 34.5 -4t34.5 -4q25 0 107 14q20 25 61 72t60 69q14 49 120.5 134t155.5 85q88 0 88 -125q0 -102 -149 -208q-141 -100 -250 -101h-27q-18 -2 -28 -2q-53 -80 -156 -242 q-74 -131 -154 -532l-2 -10q23 -59 95 -60q51 0 153 13l12 14q250 100 547 578q72 109 142 217q82 129 122 227q23 66 48 133q29 78 61 125q6 6 16 27q10 35 23 71q18 49 45 49q27 1 27 -30q0 -59 -131 -330q-12 -20 -35 -66q-10 -31 -33 -92q-35 -82 -137 -233 q-225 -330 -330 -455q-227 -272 -422 -344q-94 -35 -209 -35q-109 0 -108 125zM582 748q260 75 260 233q0 8 -27 8q-8 0 -23.5 -8t-104.5 -107.5t-105 -125.5zM848 1630q0 8 14.5 20.5t24.5 12.5q45 0 88 -94q57 -123 67 -135q2 -4 27 -27q18 -19 18 -25q0 -20 -20 -20 q-8 0 -10 2q-25 12 -49 25q-10 6 -37 43q-4 4 -64 69q-43 45 -49 76q-10 49 -10 53z" />
<glyph unicode="&#xda;" horiz-adv-x="1251" d="M72 -205q0 168 112 445q102 254 219 405q-20 0 -61 2h-63q-63 0 -64 31q0 37 76 37q12 0 34.5 -4t34.5 -4q25 0 107 14q20 25 61 72t60 69q14 49 120.5 134t155.5 85q88 0 88 -125q0 -102 -149 -208q-141 -100 -250 -101h-27q-18 -2 -28 -2q-53 -80 -156 -242 q-74 -131 -154 -532l-2 -10q23 -59 95 -60q51 0 153 13l12 14q250 100 547 578q72 109 142 217q82 129 122 227q23 66 48 133q29 78 61 125q6 6 16 27q10 35 23 71q18 49 45 49q27 1 27 -30q0 -59 -131 -330q-12 -20 -35 -66q-10 -31 -33 -92q-35 -82 -137 -233 q-225 -330 -330 -455q-227 -272 -422 -344q-94 -35 -209 -35q-109 0 -108 125zM582 748q260 75 260 233q0 8 -27 8q-8 0 -23.5 -8t-104.5 -107.5t-105 -125.5zM1075 1348q0 6 8 14q18 14 55.5 46t112.5 116l70 102q45 61 96 62q14 0 30.5 -13.5t16.5 -27.5q0 -8 -24 -64 q-16 -37 -74 -78q-82 -55 -92 -63q-121 -113 -129 -113q-2 0 -4 2h-6q-6 0 -17.5 -5t-19.5 -5q-23 0 -23 27z" />
<glyph unicode="&#xdb;" horiz-adv-x="1251" d="M72 -205q0 168 112 445q102 254 219 405q-20 0 -61 2h-63q-63 0 -64 31q0 37 76 37q12 0 34.5 -4t34.5 -4q25 0 107 14q20 25 61 72t60 69q14 49 120.5 134t155.5 85q88 0 88 -125q0 -102 -149 -208q-141 -100 -250 -101h-27q-18 -2 -28 -2q-53 -80 -156 -242 q-74 -131 -154 -532l-2 -10q23 -59 95 -60q51 0 153 13l12 14q250 100 547 578q72 109 142 217q82 129 122 227q23 66 48 133q29 78 61 125q6 6 16 27q10 35 23 71q18 49 45 49q27 1 27 -30q0 -59 -131 -330q-12 -20 -35 -66q-10 -31 -33 -92q-35 -82 -137 -233 q-225 -330 -330 -455q-227 -272 -422 -344q-94 -35 -209 -35q-109 0 -108 125zM582 748q260 75 260 233q0 8 -27 8q-8 0 -23.5 -8t-104.5 -107.5t-105 -125.5zM1083 1571q0 41 80 102.5t119 61.5q27 0 44 -29.5t17 -58.5q0 -246 -73 -285l-6 -2q-23 0 -23 53q0 12 9.5 32.5 t9.5 31.5q0 8 -7.5 27.5t-7.5 29.5q0 55 -33 55q-23 0 -60.5 -23.5t-41.5 -23.5q-8 0 -17.5 10.5t-9.5 18.5z" />
<glyph unicode="&#xdc;" horiz-adv-x="1251" d="M72 -205q0 168 112 445q102 254 219 405q-20 0 -61 2h-63q-63 0 -64 31q0 37 76 37q12 0 34.5 -4t34.5 -4q25 0 107 14q20 25 61 72t60 69q14 49 120.5 134t155.5 85q88 0 88 -125q0 -102 -149 -208q-141 -100 -250 -101h-27q-18 -2 -28 -2q-53 -80 -156 -242 q-74 -131 -154 -532l-2 -10q23 -59 95 -60q51 0 153 13l12 14q250 100 547 578q72 109 142 217q82 129 122 227q23 66 48 133q29 78 61 125q6 6 16 27q10 35 23 71q18 49 45 49q27 1 27 -30q0 -59 -131 -330q-12 -20 -35 -66q-10 -31 -33 -92q-35 -82 -137 -233 q-225 -330 -330 -455q-227 -272 -422 -344q-94 -35 -209 -35q-109 0 -108 125zM582 748q260 75 260 233q0 8 -27 8q-8 0 -23.5 -8t-104.5 -107.5t-105 -125.5zM784 1495q0 8 17 21q25 16 69 53q31 31 50 30q12 0 30.5 -27.5t18.5 -39.5q0 -20 -21 -49q-33 -43 -33 -45 q-14 -29 -30 -29h-19q-82 0 -82 86zM1413 1647q0 8 21 34q8 14 16 29.5t23 15.5q16 0 49 -32q23 -16 69 -52q15 -12 15 -22q0 -74 -111 -74q-39 0 -45 31q-37 49 -37 70z" />
<glyph unicode="&#xdd;" horiz-adv-x="1935" d="M90 -952q0 43 49 145q72 150 113 213q70 115 154 184q113 94 428 232q98 43 348 90q219 201 477 573q-205 -133 -336 -133q-156 0 -156 64q0 80 102.5 231.5t102.5 284.5q0 43 -45 72q-39 23 -86 22q-18 0 -58 -4t-61 -4q-80 0 -168 -68q-96 -70 -96 -147q0 -35 43 -58 q35 -18 72 -18q16 0 60 59.5t67 59.5q12 0 12 -19q0 -41 -45 -108q-47 -74 -86 -74q-61 0 -129 52.5t-68 111.5q0 70 88 162q121 127 345 127q281 0 280 -154q0 -78 -96 -249t-96 -220q180 18 372 174q178 145 262 320q33 68 54 67q61 0 63 -37q-43 -66 -125 -194 q-78 -143 -245 -426q-59 -90 -170 -225q-141 -174 -175 -220q274 39 502 146q162 76 164 76q4 0 4 -9q0 -23 -55 -47q-78 -41 -234 -120q-102 -51 -204 -82q-41 -12 -308 -119q-186 -207 -501 -481q-406 -354 -535 -355q-37 0 -60.5 34t-23.5 71zM203 -934q174 115 383 299 q178 164 356 330q-162 -8 -518 -266q-219 -158 -221 -363zM1735 1325q0 8 8 14q51 35 168 164q35 51 69 101q43 61 97 61q12 0 29.5 -14.5t17.5 -26.5l-25 -63q-12 -31 -43 -54q-43 -27 -123 -88q-121 -113 -129 -112q4 0 -8 2q-8 0 -19.5 -5.5t-17.5 -5.5q-25 0 -24 27z " />
<glyph unicode="&#xde;" horiz-adv-x="927" d="M-1028 -1018q0 53 70 86q33 39 90 92q78 70 96 88q170 182 524 531q61 55 115 115q33 37 190 157q18 12 52 39q33 35 65 70q43 43 74 53q59 18 178 66q20 10 117 73q131 84 385 264q29 25 59 52q41 33 64 32q45 0 45 -16q0 -43 -103 -133l-32 -29q-8 -6 -11 -6l-2 -2 q31 -27 31 -61q0 -102 -117 -234q-14 -16 -113.5 -79.5t-99.5 -67.5v-9q0 -20 29 -20q86 0 215 61q25 16 78 39v-6q0 -57 -338 -149q-31 -6 -94 -21q-33 -10 -45 -10q-80 0 -152 20q-33 10 -33 27q0 43 43 43q14 0 39 -5t37 -5h29q68 0 92 31q31 39 121 94q100 59 133 96 q63 63 63 150q0 14 -14 32q-49 -6 -178 -98q-164 -115 -185 -127q-66 -31 -192 -100q-106 -72 -254 -189q-125 -100 -248 -198q-51 -41 -221 -230q-8 -8 -164 -162q-100 -106 -203 -210q-166 -170 -198 -170q-16 0 -31 6q-6 8 -6 20z" />
<glyph unicode="&#xdf;" horiz-adv-x="1597" d="M88 -143q0 27 74 73l98 62q49 39 299 282q258 252 266 277q2 12 0 14q-31 -6 -30 -6q-59 0 -162 23q-127 27 -127 61q0 31 57 31q47 0 137.5 -9.5t135.5 -9.5q57 0 147 58q80 49 127 100q29 31 94 154q20 39 39 80q33 59 51 59q54 0 54 -29q0 -8 -9 -24 q-80 -223 -278 -410q-4 -4 -4 -6q0 -4 23.5 -18.5t21.5 -30.5q-2 -29 -33 -50.5t-61 -21.5q-33 0 -84 14q-197 -197 -396 -393q-324 -315 -391 -315q-49 0 -49 35zM666 133q0 12 23.5 28.5t37.5 16.5q8 0 10 -4q25 -25 59.5 -86t61.5 -84q39 -35 100 -35q207 0 359 166 q70 76 69 293q0 184 -73 231q-4 2 -47 13q-25 6 -25 35q0 35 59 53q47 16 95 31q68 37 130 156.5t62 199.5q0 66 -53 86q-31 12 -111 12q-94 0 -238.5 -60.5t-137.5 -60.5q-18 0 -59.5 19.5t-41.5 36.5q0 16 43 16q55 0 201.5 66.5t210.5 66.5q104 0 178 -29 q104 -43 104 -129q0 -162 -81.5 -287.5t-231.5 -183.5q115 -115 115 -338q0 -123 -58.5 -230t-160.5 -169q-111 -66 -152 -84q-78 -33 -170 -33q-279 0 -278 287z" />
<glyph unicode="&#xe0;" horiz-adv-x="604" d="M-41 -4q0 51 108.5 213t145.5 174q12 4 31 4q20 0 33.5 -20.5t23.5 -20.5q16 0 42 25.5t34 25.5q33 0 33 -26q0 -23 -42 -106t-42 -122q0 -96 57 -96h57q35 6 93.5 41t101.5 43q6 2 12 -14q-39 -18 -112 -62q-33 -23 -78 -55q-37 -18 -95 -18q-23 0 -53 10 q-39 12 -48 30.5t-19 18.5q-23 0 -78 -76t-107 -76q-98 0 -98 107zM53 25q0 -43 33 -43q31 0 109.5 119.5t78.5 166.5q0 41 -32 41q-31 0 -35 -2q-23 -12 -83.5 -104t-62.5 -115q0 -6 -4 -30.5t-4 -32.5zM301 848q-4 23 0 26q18 29 37 25q39 -6 70 -55q14 -39 49 -111 q16 -29 32 -57q3 -6 46 -47q4 -4 4 -11q0 -20 -21 -20q-6 0 -10 2q-35 23 -53 25q-4 2 -33 43q-29 31 -86 94q-25 27 -27 51q0 2 -8 35z" />
<glyph unicode="&#xe1;" horiz-adv-x="559" d="M-12 37q0 51 108.5 213t145.5 174q12 4 30 4q20 0 33.5 -20.5t24.5 -20.5q16 0 41.5 25.5t34.5 25.5q33 0 32 -26q0 -23 -42 -106t-42 -122q0 -96 58 -96h57q12 2 57 18q61 29 68 29q6 2 10 -16q-2 -6 -80 -43q-25 -8 -61 -29q-49 -25 -72 -24q-23 0 -53 10 q-39 12 -48 30.5t-20 18.5q-23 0 -78 -76t-106 -76q-98 0 -98 107zM82 66q0 -43 33 -43q31 0 109.5 119.5t78.5 166.5q0 39 -33 39h-6q-6 -2 -10 -3t-84 -114.5t-82 -121.5q-6 -37 -6 -43zM260 672q0 8 7 14t44 55q4 6 84 138q18 49 56 131q20 35 30 43q18 18 54 22 q6 2 22.5 -10t20.5 -18q4 -4 -3 -31q-8 -37 -8 -41q-2 -31 -30 -62q-37 -33 -103 -110q-29 -43 -86 -121q-4 -6 -26 -16q-6 -2 -18.5 -10.5t-18.5 -8.5q-25 0 -25 25z" />
<glyph unicode="&#xe2;" horiz-adv-x="622" d="M-31 41q0 61 136.5 216t191.5 155q4 0 20.5 4t22.5 2t17.5 -10.5t21.5 -8.5q18 0 46 -20.5t42 -16.5q8 4 37 23q23 16 41 16q27 0 26 -30q0 -55 -34 -109q-33 -29 -93 -96q-6 -10 -2 -31q4 -20 15 -24q66 -25 61 -25q33 0 70 18q12 8 37.5 18.5t31.5 4.5q8 -10 -54 -52 t-97 -42q-27 0 -74 20q-57 25 -72 29q-37 -45 -137 -93t-157 -48q-39 0 -68 29.5t-29 70.5zM94 74q0 -23 43 -23q78 0 139 41q51 33 73.5 123.5t53.5 108.5l-24 14q-72 0 -141.5 -55.5t-106.5 -130t-37 -78.5zM492 778q-6 10 8 38t39 48q109 88 149 86q20 -2 41 -25t21 -46 q4 -96 -13 -179q-6 -29 -24 -71q-23 -53 -43 -54q-23 0 -23 54q4 20 19 57q-8 23 -15 68q2 31 -20 47q-8 8 -39 -2q-31 -18 -72 -41q-12 -6 -28 20z" />
<glyph unicode="&#xe3;" horiz-adv-x="643" d="M-18 45q0 61 59 138t156 161q90 80 120 88q14 2 39 2q27 0 44.5 -21.5t29.5 -21.5q20 0 43 17.5t35 17.5q41 0 41 -29q0 -25 -44 -102.5t-44 -118.5q0 -102 74 -102q23 0 70.5 28.5t60.5 32.5l10 -10q0 -18 -78 -72q-63 -43 -106 -43q-88 0 -113 37q-10 20 -25 21 q-29 0 -99.5 -80t-135.5 -80q-63 0 -107 47q-31 35 -30 90zM78 45q0 -35 41 -35q20 0 41 15q45 31 135 129q102 112 102 155q0 20 -17.5 40t-31.5 20q8 0 -41 -17q-6 -2 -96 -96t-96 -104q-37 -51 -37 -107zM176 809q-8 10 10 55q25 57 82 72q100 25 144 4q35 -16 43 -25 q18 -12 30 -32q25 -43 41 -97q6 -27 21 -75q14 -37 33 -37q20 0 36 18l27 29q70 37 74 82q4 57 47 57q12 0 18 -6q14 -10 15 -12q-1 -4 -9 -29q-20 -55 -57 -104q-14 -20 -102 -80q-35 -25 -62 -27q-84 -8 -94 43q-2 49 -6 135q-4 63 -43 86q-66 37 -82 37 q-53 0 -66.5 -26.5t-48.5 -61.5q-43 -16 -51 -6z" />
<glyph unicode="&#xe4;" horiz-adv-x="917" d="M20 33q0 98 9 106q29 33 188 148q102 74 268 102q12 2 56 2q37 0 62.5 -18.5t41.5 -18.5q29 0 76 23.5t65 23.5q57 0 58 -24q0 -20 -78 -96t-78 -111q0 -90 107 -90q35 0 76.5 23.5t60.5 27.5l12 -8q0 -23 -78 -63t-110 -40q-37 0 -97 11q-70 12 -88 28.5t-32 16.5 q-41 0 -143.5 -69.5t-194.5 -69.5q-180 0 -181 96zM162 121q0 -20 7 -46l7 -26q0 -29 78 -29q55 0 199.5 111t144.5 152q0 37 -59 36q-20 0 -32.5 -1t-156.5 -58q-152 -63 -170 -84.5t-18 -54.5zM414 741q0 14 16 29q47 29 70 51q31 33 49 33q14 0 22.5 -15.5t17.5 -30 t9 -24.5q0 -20 -53 -94q-6 -27 -29 -28q-92 -6 -102 79zM750 895q0 8 20 35q8 14 16.5 28.5t22.5 14.5q18 0 49 -31q20 -20 72 -51q16 -15 14 -29q-10 -76 -127 -67q-23 2 -31 28q-37 51 -36 72z" />
<glyph unicode="&#xe5;" horiz-adv-x="557" d="M-31 20q0 88 146 265q137 168 182 168q4 0 20.5 4t22.5 2t17.5 -11.5t21.5 -9.5q18 0 46 -24.5t42 -18.5q8 4 37 27q23 18 41 18q27 0 26 -34q0 -66 -34 -127q-33 -35 -93 -113q-6 -10 -2 -33q4 -25 15 -31q4 -2 30 -2q37 0 70 21q12 10 37 22q10 6 18 11q8 4 12.5 -3.5 t4.5 -11.5q0 -10 -23 -22q-43 -25 -45 -27q-76 -53 -86 -53q-33 0 -61 12q-8 4 -54 19q-37 -53 -137 -108.5t-157 -55.5q-39 0 -68 34.5t-29 81.5zM96 59q0 -27 43 -26q76 0 137 47q49 39 80 131t62 115l-39 41q-72 0 -141.5 -64.5t-105.5 -152t-36 -91.5zM338 743 q0 68 69.5 131.5t135.5 55.5q12 -2 12 -10q0 -12 -80 -101q-55 -59 -49 -94q8 -53 74 -53q39 0 110.5 57t81.5 100q6 27 6 48q0 49 -41 65q-6 2 -73 10q-37 6 -31 31q14 61 72 61q80 0 132 -35.5t52 -103.5q0 -22 -6 -47q-27 -102 -133.5 -176t-206.5 -74q-51 0 -88 41 t-37 94z" />
<glyph unicode="&#xe6;" horiz-adv-x="847" d="M-31 61q0 43 150.5 177.5t202.5 144.5q10 2 30 2q33 0 56.5 -16.5t33.5 -16.5q23 0 56.5 20.5t54.5 20.5q74 68 172 68q133 0 133 -78q0 -47 -98 -127q-84 -70 -144 -94q-43 -16 -129 -60q-4 -12 -4 -20q0 -20 35 -35q29 -12 53 -12q94 0 232 59q98 43 102 43q6 0 6 -8 q0 -18 -55 -49q-6 -4 -22 -14q-129 -86 -287 -86q-88 0 -131 83q-6 14 -15 31q-6 6 -24 6q-47 0 -125 -62.5t-148 -62.5q-135 0 -135 86zM100 86q0 -35 45 -35q41 0 151 98.5t110 137.5q0 33 -44 32q-16 0 -23 -2t-118.5 -95t-114.5 -99q-6 -20 -6 -37zM502 203q0 -2 2 -4 v-6l14 -7q35 0 66 25q45 18 125 74q10 10 45 55v6q0 39 -47 39q-55 0 -87 -20.5t-73 -71.5q-45 -59 -45 -90z" />
<glyph unicode="&#xe7;" horiz-adv-x="659" d="M33 -63q0 178 209 370q197 180 336 180q49 0 49 -61q0 -35 -80 -90q-33 -23 -72 -25q35 2 -74 2q-49 0 -180 -143t-131 -211q0 -80 80 -80q10 0 43 4q0 25 6 31q0 2 19 8q29 2 28 -22q37 14 90 47q92 55 289 180q43 27 53 27q7 -1 7 -7q4 -14 -9.5 -23t-44.5 -30 q-35 -29 -102 -67q-39 -25 -109 -70q-145 -92 -161 -92q4 -12 5 -32.5t19 -45.5q29 -33 59 -66q33 -39 33 -65q0 -16 -8 -31q-23 -37 -72 -37q-25 0 -106 21q-27 6 -41 37q-6 14 -2 22q4 12 18 6q68 -20 90 -20q31 0 48 20q-6 37 -39 80q-41 53 -52 76q0 4 -8 18 q-57 -8 -82 -8q-33 0 -67 25q-41 31 -41 72z" />
<glyph unicode="&#xe8;" horiz-adv-x="600" d="M-29 94q12 20 71.5 51t76 47.5t39.5 67.5q20 45 47 64q53 37 106 75q41 23 131 23q154 0 154 -74q0 -45 -96 -112q-84 -59 -152 -82q-49 -14 -145 -58q-4 -8 -4 -18q0 -20 39 -35q33 -10 59 -10q82 0 231 45q29 6 78 22q20 8 49 25q18 10 23 8q12 -8 12 -10 q0 -12 -90 -62q-147 -82 -330 -81q-145 0 -153 176q-23 -10 -68 -37q-53 -35 -69 -35q-4 4 -9 10zM219 193q0 -2 2 -9l15 -6q45 0 77 23q37 12 111 55l51 51v6q0 37 -53 37q-61 0 -70 -4q-35 -18 -84 -70.5t-49 -82.5zM367 958q16 25 36 25q39 -6 72 -55q14 -39 49 -113 q35 -57 73 -117.5t85 -103.5q4 -4 4 -10q0 -20 -20 -21q-6 0 -11 2q-51 33 -90 84t-76 103q-29 31 -86 94q-25 27 -26 51q0 4 -8 35q-6 23 -2 26z" />
<glyph unicode="&#xe9;" horiz-adv-x="489" d="M-29 100q4 12 27 31q35 27 38 29t52 76q10 16 27.5 67t38.5 72l96 96q45 35 115 35q121 0 120 -84q0 -51 -88 -139q-76 -76 -131 -105q-39 -18 -114 -65q0 -2 -2.5 -10.5t-2.5 -12.5q0 -23 29 -37t49 -14q86 0 158 31q35 12 94 36q53 29 55 29q11 0 11 -12q0 -6 -29 -27 q-35 -20 -51 -30q-125 -88 -258 -89q-121 0 -125 199q-8 -14 -33 -45q-31 -35 -67 -43q-10 4 -9 12zM164 223q0 -10 14 -18q33 0 60 26q41 25 112 82q14 17 41 62v6q0 43 -43 43q-49 0 -78.5 -21.5t-67.5 -83t-38 -96.5zM256 596q0 6 6 12q25 25 39 81t27 73q25 29 68.5 83 t95.5 62q10 2 27 -15.5t13 -35.5q-25 -16 -49 -53q-2 -27 -47 -60q-16 -10 -33 -20q-20 -29 -43 -55q-8 -10 -26 -47q-14 -29 -41 -48q-6 -2 -10 -2q-27 0 -27 25z" />
<glyph unicode="&#xea;" horiz-adv-x="636" d="M-29 80q8 14 35 29q41 23 47 26q23 10 62 41q12 16 33.5 61.5t46.5 65.5q51 57 100 111.5t131 64.5q31 4 53 4q100 0 109 -82q6 -59 -99 -172q-96 -104 -157 -131q-47 -18 -139 -69q-4 -12 -5 -23q0 -25 37 -41q31 -12 58 -12q66 0 155 51q49 35 127 86q63 35 66.5 36 t11.5 8t12 7q5 0 7 -6q6 -18 -39 -47q-31 -16 -62 -35q-74 -53 -145 -106q-92 -59 -160 -60q-141 0 -152 238q-18 -2 -61 -23q-33 -27 -61 -32q-10 6 -11 10zM207 145q0 -8 18 -18q41 0 74 29q51 31 135 102q14 27 43 76l-2 8q-4 45 -57 41q-66 -12 -97.5 -40t-70.5 -91 q-43 -70 -43 -107zM283 705q4 16 20 49q8 4 37 49q12 23 31.5 72t23.5 57q10 18 56 29q43 10 57 -29q16 -45 24 -64q23 -45 50 -63q76 -55 102 -49q78 14 92 26q8 8 23 9q12 -1 16 -7q2 -4 -6 -21.5t-14 -19.5q-16 -8 -54 -26q-74 -25 -110 -15q-2 0 -47 7q-25 4 -41 20 q-37 35 -74 74q-6 8 -11 15t-18 5q-29 -4 -28 -20q0 -4 -43 -66q-12 -23 -35 -51q-6 -6 -13.5 -12t-19.5 -2q-25 10 -18 33z" />
<glyph unicode="&#xeb;" horiz-adv-x="415" d="M-29 106q33 16 92 64q12 10 29 33q10 18 22.5 76.5t28.5 78.5q37 51 74 101q35 39 90 39q94 0 94 -90q0 -53 -69 -146q-59 -80 -101 -108q-29 -12 -86 -58v-10q-2 -8 -2 -12q0 -25 20.5 -45.5t37.5 -20.5q51 0 137 51l65 50q25 18 35 18q19 0 19 -8q0 -10 -37 -43 q-25 -23 -35 -33q-92 -100 -203 -100q-51 0 -78 75q-25 66 -18 144q-14 -23 -53 -48.5t-56 -17.5q-8 4 -6 10zM115 756q-2 14 16 26q10 10 34.5 26.5t35.5 27.5q31 31 49 30q12 0 21.5 -15.5t17.5 -29.5q20 -27 20 -33q0 -20 -37 -71q-8 -27 -30 -29q-117 -8 -127 68z M152 199q2 -12 2 -11l10 -6q27 0 45 27q12 18 44 42.5t45.5 44t29.5 62.5v9q0 43 -33 43q-35 0 -59.5 -22.5t-54 -86t-29.5 -102.5zM406 864q-2 16 16 29q10 10 34.5 26.5t35.5 26.5q31 31 49 31q12 0 21.5 -15.5t17.5 -29.5q20 -27 20 -33q0 -20 -37 -72q-8 -27 -31 -28 q-117 -8 -126 65z" />
<glyph unicode="&#xec;" horiz-adv-x="460" d="M-45 94q0 12 68 39q43 18 86 35q70 29 139 57q78 35 131 72q14 14 29.5 27.5t35.5 15.5q25 2 29 -14q0 -8 -98.5 -94.5t-98.5 -125.5l9 -16q18 -6 28 -6q47 0 109 27q82 37 98 41l19 -5q-10 -27 -151.5 -90t-180.5 -63q-14 0 -27.5 14.5t-13.5 26.5q0 45 63 139 q-74 -27 -231 -84q-4 0 -8 -2t-8 -2q-14 0 -27 8zM375 860q16 25 37 25q39 -6 71 -56q14 -39 49 -112q16 -29 31 -55q4 -7 47 -48q4 -4 4 -10q0 -20 -20 -20q-6 0 -10 2q-35 23 -54 24q-2 0 -32 43q-29 31 -86 95q-25 27 -27 51q0 4 -8 35q-6 23 -2 26z" />
<glyph unicode="&#xed;" horiz-adv-x="360" d="M-35 94q0 8 119 74q92 51 211 170q4 4 37 51q25 35 39 35q20 0 20 -25q0 -10 -84 -127.5t-84 -173.5l6 -20q25 -8 21 -8q35 0 80 32q55 37 76 43l12 -4q-8 -27 -110.5 -99.5t-131.5 -72.5t-29 54q0 80 31 157q-57 -31 -180 -90q-2 0 -6 -2t-6 -2q-12 0 -21 8zM274 668 q0 10 9 14q31 16 58.5 68.5t41.5 64.5q31 23 87 65t108 38q18 -4 36 -39q2 -4 -10 -29q-16 -31 -18 -39q-6 -14 -45 -51q-14 -12 -45 -17q-20 -2 -62 -32q-59 -43 -129 -68q-31 -10 -31 25z" />
<glyph unicode="&#xee;" horiz-adv-x="342" d="M-31 94q-2 10 62 41q37 16 73 35q10 6 60 33q80 43 121 78q20 29 65 59q14 4 19 -12q0 -6 -69 -87t-69 -120l9 -12q14 -6 18 -5q33 2 71 17.5t72 30.5l13 -5q-6 -27 -101 -69q-84 -41 -116 -45q-25 0 -31 33q-2 51 20 104q-31 -8 -90 -31q-31 -18 -96 -51q-2 0 -6 -2 t-6 -2q-16 0 -19 10zM227 479q-4 2 0 17q2 33 126 116.5t171 83.5q60 0 60 -49q0 -51 -17 -119q-20 -90 -53 -90q-20 0 -22 11q-2 12 4 37.5t6 35.5q0 57 -49 58q-47 0 -127 -50.5t-99 -50.5z" />
<glyph unicode="&#xef;" horiz-adv-x="497" d="M-31 113q0 14 68 49q37 18 88 43q96 43 281 143q16 14 48.5 45t55.5 31q29 0 29 -25q0 -8 -37 -43q-29 -29 -78 -71q-37 -33 -84 -97q-57 -78 -57 -112l8 -17q16 -8 28 -8q45 0 99 29q82 41 94 45l18 -8q-12 -35 -161 -105q-115 -53 -152 -53q-16 0 -29.5 18.5 t-13.5 32.5q0 72 68 195q-70 -29 -224 -90q-8 -8 -20 -13q-20 0 -29 11zM285 698q-2 14 16 27q10 10 34.5 26.5t35.5 26.5q31 31 49 31q12 0 21.5 -15.5t17.5 -29.5q20 -27 20 -33q0 -20 -37 -72q-8 -27 -30 -28q-117 -8 -127 67zM575 807q-2 16 17 29q10 8 29.5 20t40.5 33 q31 31 49 31q12 0 21.5 -16t17.5 -30q20 -27 20 -32q0 -20 -37 -72q-8 -27 -31 -29q-117 -8 -127 66z" />
<glyph unicode="&#xf0;" horiz-adv-x="897" d="M-10 57q0 53 90 150q84 90 141 117q12 6 73.5 23.5t72.5 17.5q94 0 94 -39q0 -16 -45 -35q-27 -10 -89.5 -8t-90.5 -15q-55 -31 -99 -82q-47 -57 -47 -112q0 -43 35 -43q74 0 151 43q25 12 74 37q106 59 254 237q133 162 203 295h-39q8 0 -74 -14.5t-141 -14.5 q-70 0 -70 39q0 29 33 41q33 4 98 11q47 6 146 18q29 6 86 12q41 119 41 285q0 131 -129 231q-27 20 -27 43q0 12 8.5 28.5t18.5 16.5q18 0 98 -55q59 -41 80 -67q31 -41 31 -101q0 -27 2 -84v-84q0 -164 -29 -211q35 0 77 -21t42 -52q0 -43 -37 -43q-76 0 -131 16 q-8 -12 -70 -113q-70 -111 -205 -272q-156 -184 -235 -229q-70 -39 -145 -50q-20 -20 -78 -34q-49 -12 -86 -13q-41 0 -64 47q-18 37 -18 84z" />
<glyph unicode="&#xf1;" horiz-adv-x="983" d="M-45 82q0 16 8 18q2 2 60 37q84 59 167 117q117 78 179 78q86 0 86 -41q0 -18 -33 -58q-37 -45 -41 -59q4 -33 25 -33q33 0 155.5 77t177.5 77q53 0 54 -43q0 -39 -31 -89t-31 -61l6 -12q41 -8 60 -8q100 0 186 43q20 12 43 25l4 -3q-8 -63 -244 -129q-23 -6 -135 -6 q-39 0 -45 69t-35 69q-43 0 -225 -117t-196 -117q-35 0 -35 35q0 41 59 100.5t59 95.5v17q-2 10 -2 16q-6 4 -20 4q-68 0 -127 -34q-104 -63 -110.5 -67.5t-10.5 -4.5t-8 4zM330 524q0 47 34.5 82t81.5 35q41 0 78 -23q8 -6 62 -51q39 -33 73 -32q98 0 170 137q20 25 29 41 q16 31 19 78q2 41 -77 80.5t-79 46.5q0 23 22 22q6 0 20.5 3t22.5 3q68 -2 123.5 -53.5t55.5 -108.5q0 -61 -66 -139q-51 -61 -117 -104q-88 -59 -149 -60q-53 0 -131 84q-35 37 -53 35q-57 -6 -76 -61q-4 -14 -19 -35q-25 -14 -24 20z" />
<glyph unicode="&#xf2;" horiz-adv-x="552" d="M-74 -90q0 43 60 118l59 76q-2 2 -6 2q-8 0 -39 -10q-10 0 -16 8q14 23 61 56q57 41 72 53q49 25 86 25q74 41 143 41q35 0 64 -29q45 31 88 31q16 0 16 -25q0 -74 -43 -147q6 -2 23 -3q16 0 43.5 16.5t42.5 14.5v-14q-16 -33 -140 -60q-74 -63 -149 -126 q-68 -53 -193 -89q-90 -25 -98 -24q-74 0 -74 86zM29 -63l2 -7q-4 -27 37 -26q18 0 45 8q125 37 155 55q53 33 109 125q10 17 10 37q0 14 -41 43t-57 29q-68 -29 -158 -113q-102 -96 -102 -151zM244 891q18 29 37 24q39 -6 71 -55q14 -39 47 -110q16 -29 33 -58q2 -4 47 -47 q4 -4 4 -10q0 -20 -20 -21q-6 0 -10 2q-35 23 -54 25q-4 2 -32 43q-29 31 -88 94q-20 23 -25 53q0 4 -8 33q-6 23 -2 27z" />
<glyph unicode="&#xf3;" horiz-adv-x="559" d="M-74 -49q0 43 56 117q33 39 63 77q2 16 23 60q10 16 49 49q49 25 86 25q74 41 143 40q35 0 64 -28q45 31 88 31q16 0 16 -25q0 -80 -43 -147q-6 -16 -31 -46l-16 -12h25q4 0 22 2t23 2q18 0 44.5 16.5t41.5 16.5q4 -4 4 -8t-4 -8q-14 -29 -140 -58q-45 -4 -78 -22 q-8 -4 -24 -15q-33 -29 -62 -51q-55 -41 -178 -78q-84 -25 -98 -24q-74 0 -74 86zM29 -23q10 -33 39 -32q18 0 45 8q125 37 155 55q53 33 109 125q10 17 10 37q0 14 -42 44t-56 28q-74 -23 -162 -107q-98 -94 -98 -158zM401 612q0 8 7.5 14.5t44.5 55.5q4 6 84 137 q18 49 55 131q20 35 31 43q18 18 53 23q6 2 22.5 -10.5t20.5 -18.5q4 -4 -2 -31q-8 -37 -8 -41q-2 -31 -31 -61q-37 -33 -103 -111q-29 -43 -86 -120q-4 -6 -26 -17q-6 -2 -18.5 -10t-18.5 -8q-25 0 -25 24z" />
<glyph unicode="&#xf4;" horiz-adv-x="557" d="M-33 88q-6 6 72 62q53 39 78 57q6 14 8 16q14 23 14 37q4 27 47 80q57 29 84 31q84 53 148 53q27 0 57 -23q45 37 84 37q21 0 21 -47q0 -31 -19 -96q-20 -76 -39 -76q-6 0 -20 -16q-23 -31 -84 -88q25 -25 49 -25q-14 0 86 23q8 8 20 0v-15q-8 -8 -22 -18 q-66 -39 -123 -39q-51 0 -63 27q-80 -61 -165 -94t-104 -33q-33 0 -53 26.5t-20 61.5q0 29 30 82q-47 -27 -69 -27q-12 0 -17 4zM123 63q0 -37 41 -36q16 0 47 12q55 23 149 72q0 4 2 8l-2 4q0 6 -2 16.5t-2 14.5q1 62 64 168q-35 20 -51 20q-43 0 -144.5 -113.5 t-101.5 -165.5zM213 725q2 14 16 53q6 4 31 53q20 59 49 144q6 16 45 29q37 12 49.5 -31t22.5 -70q18 -49 39 -69q66 -61 88 -56q63 14 80 31q6 8 18 8q11 2 13 -4t-4.5 -24.5t-12.5 -22.5q-31 -20 -45 -29q-47 -20 -74 -20q-12 0 -20 4q-18 4 -38.5 8t-37.5 23 q-25 33 -61 79q-6 8 -10.5 16.5t-14.5 6.5q-23 -4 -24 -23l-37 -71q-8 -25 -29 -55q-6 -8 -12 -15.5t-15 -1.5q-23 8 -16 37zM428 188q8 -4 37 41.5t31 61.5q2 20 -29 20q-6 0 -27 -47q-29 -66 -12 -76z" />
<glyph unicode="&#xf5;" horiz-adv-x="598" d="M-20 -49q0 43 52 111l52 67l-23 -4q-12 8 -24 20q12 25 61 58q59 41 72 51q49 25 86 25q74 41 143 40q35 0 64 -28q45 31 88 31q16 0 16 -25q0 -84 -43 -147q-6 -23 -30 -46q-74 -63 -150 -127q-68 -53 -192 -88q-90 -25 -99 -24q-74 0 -73 86zM82 -23l2 -6 q-4 -27 37 -26q18 0 45 8q125 37 156 55q53 33 108 125q12 23 10 37q-2 25 -40 48.5t-58 23.5q-68 -29 -158 -113q-102 -96 -102 -152zM86 475q0 45 33 79t78 34q53 0 113.5 -53.5t99.5 -53.5q96 0 170 142q12 12 43 88q25 57 55 57q33 0 33 -33q0 -59 -66 -137 q-51 -57 -117 -102q-84 -57 -145 -58q-53 0 -107.5 59.5t-78.5 59.5q-20 0 -43 -24.5t-29 -45.5q-10 -31 -29 -30q-10 0 -10 18z" />
<glyph unicode="&#xf6;" horiz-adv-x="483" d="M-35 -10q0 57 27 98q10 20 26 62q6 23 45 78t64 73q35 27 86 31q80 53 145 53q29 0 60 -23q43 39 84 39q18 0 18 -49q0 -25 -18 -90q-20 -72 -35 -82q-23 -18 -14 -30q14 -20 55 -9q25 8 27 4q2 -2 2 -6q0 -6 -6.5 -11t-9.5 -8t-36 -28q-41 -14 -100 -37q-31 -12 -57 -12 q-100 -76 -185.5 -108.5t-105.5 -32.5q-72 0 -72 88zM66 27q0 -39 40 -39q2 0 46 12q57 23 149 72q10 61 82 100q23 56 23 68q0 16 -39 39.5t-56 23.5q-25 0 -76 -37t-92 -84q-78 -92 -77 -155zM211 758q0 12 23.5 45t33.5 33q14 0 73.5 -41t61.5 -64q6 -74 -110 -74 q-39 0 -47 31q-35 47 -35 70zM467 682q4 35 63 72q53 33 72 32q10 0 35 -33.5t25 -43.5q0 -23 -37 -72q-10 -31 -47 -31q-43 0 -74 17q-41 20 -37 59z" />
<glyph unicode="&#xf7;" horiz-adv-x="899" d="M119 446q0 41 41 41q39 0 115.5 -11t115.5 -11q6 0 103 14q152 23 235 23q59 0 59 -39q0 -31 -31.5 -38t-97.5 -13q-104 -14 -241 -27q-172 -16 -148 -16q-47 0 -92 16q-59 23 -59 61zM324 735q0 37 14 68q18 39 49 39h4q39 0 68 -47q18 -31 18 -78v-17q-20 -12 -63 -36 q-12 0 -35 18q-18 12 -36.5 24.5t-18.5 28.5zM422 176q0 27 41 41q29 12 61 12q45 0 68 -12q0 -25 4 -78q-4 -8 -42 -29.5t-46 -21.5q-25 0 -55.5 33t-30.5 55z" />
<glyph unicode="&#xf8;" horiz-adv-x="559" d="M-74 -49q0 49 47 102q61 72 69.5 92.5t25.5 59.5l49 49q53 25 86 25q6 4 33 14q29 57 96 164q35 47 94 90q68 53 113 53q18 0 18 -10q0 -14 -49 -43q-25 -14 -72 -74q-55 -72 -69 -86q-12 -33 -31 -68q45 0 74 -28q41 31 88 31q16 0 16 -25q0 -135 -90 -205q2 -2 8 -2 q10 0 30.5 3t34 3t40 17.5t43.5 15.5l4 -8q-29 -43 -103 -58q-96 -18 -118.5 -30.5t-106.5 -73.5q-51 -37 -123 -59q-33 -82 -70 -203q-16 -55 -34 -55q-12 0 -28.5 26.5t-16.5 40.5q0 4 32 76q33 80 37 90q-27 -10 -53 -10q-74 0 -74 86zM29 -23q0 -33 45 -32h4 q41 112 98 231q-147 -113 -147 -199zM162 -33q156 47 215 166q10 21 10 37q0 14 -37 43q-33 23 -53 29q-47 -90 -135 -275z" />
<glyph unicode="&#xf9;" horiz-adv-x="561" d="M-31 31q0 63 8 88q23 66 98 158t109 96q18 2 29 -17q4 -10 4 -20q0 -31 -81 -125t-81 -168q0 -49 37 -49q145 0 293 217q18 53 50 99t61 46q51 0 51 -28q0 -4 -45 -76q-49 -78 -56 -107q0 -61 39 -61q12 0 31 13.5t26 15.5t44 28q18 6 24 4q2 0 2 -20q0 -4 -80 -53 q-88 -53 -92 -54q-27 0 -30.5 7.5t-3.5 46.5t-9 41q-14 6 -30.5 -14.5t-30.5 -39.5q-41 -37 -144.5 -76.5t-152.5 -39.5q-70 0 -70 88zM55 807q0 35 33 35q18 0 28.5 8t37.5 8q125 0 231 -205q6 -12 51 -61q39 -44 39 -64q0 -16 -29 -16q-8 0 -26 12q-164 150 -203 162 q-49 33 -145 94q-16 10 -17 27z" />
<glyph unicode="&#xfa;" horiz-adv-x="561" d="M-31 133l6 12q12 12 47 31t50 33q23 23 73 65q18 18 41 40t39 22q20 0 21 -19q0 -8 -88 -93t-88 -126l6 -16q12 -6 22 -6q68 0 207 96q115 82 182 152q18 25 35 49q27 35 43 35q18 0 19 -23q0 -12 -84 -129t-84 -172q0 -8 6 -21l20 -10q37 0 82 33q53 39 74 45l12 -6 q-8 -23 -111.5 -97.5t-129.5 -74.5q-29 0 -29 55q0 72 31 158q-90 -47 -181 -94q-139 -70 -170 -70t-30 41q0 37 16 76l-2 10q-10 -6 -20 -6q-14 0 -15 10zM258 631q-8 14 16 39q63 41 191 127q18 12 47 49q49 57 145 190q29 47 62 47q49 0 49 -45q0 -43 -82 -143 q-43 -51 -170 -137q-23 -23 -65 -68q-12 -12 -64 -26q-57 -16 -78 -33q-37 -29 -51 0z" />
<glyph unicode="&#xfb;" horiz-adv-x="741" d="M-31 35q0 45 11 61q25 41 131 133q59 51 79 64q10 6 46 12q12 2 16 -16q6 -31 -12 -49l-82 -70q-80 -72 -80 -127q0 -37 47 -37q186 0 375 156q20 37 62 69.5t79 32.5q63 0 64 -20q0 -2 -58.5 -55.5t-68.5 -73.5q0 -39 36 -39q45 0 86 22q43 16 74 39l12 -2q7 -2 7 -14 q-2 -8 -27 -21q-45 -23 -55 -28q-98 -47 -142 -47q-33 0 -39 5t-6 33q0 18 -8 29q-20 0 -39.5 -13t-38.5 -26q-51 -27 -184 -54.5t-195 -27.5q-90 0 -90 64zM436 733q-4 23 23 33q59 20 116 41q76 29 111 57q10 8 70 90q49 70 73 74q14 2 23.5 -7t19.5 -7q25 4 29 -29 q6 -45 -10 -129q-16 -96 -17 -135q0 -25 15 -90q4 -29 -27 -33q-29 -4 -59 94q-20 68 -31 129q-82 -53 -205 -110q-29 0 -98 -6q-29 -4 -33 28z" />
<glyph unicode="&#xfc;" horiz-adv-x="569" d="M-31 51q0 41 8 58q18 39 140 112l10 6q84 51 117 52q10 0 10 -17q0 -27 -27 -49q-14 -10 -84 -51q-113 -68 -106 -111q2 -16 26.5 -30.5t36.5 -14.5q158 0 269 141q72 92 98 93q47 0 47 -19q0 -2 -41 -50t-49 -67q0 -35 25 -34q12 0 40 10q53 20 111 57q18 12 18 -4 q0 -18 -116 -78q-66 -33 -84 -32q-25 0 -29 5t-4 29.5t-6 26.5q-14 4 -28.5 -9.5t-26.5 -25.5q-35 -25 -130.5 -50.5t-140.5 -25.5q-25 0 -54.5 23.5t-29.5 54.5zM240 551q0 20 24 39q8 25 41 24q10 6 21 7q29 0 28 -41q0 -29 -14 -41q-27 -27 -55 -27q-45 0 -45 39z M451 584q0 53 59 96q12 8 25 8q39 0 40 -35q23 -10 23 -32q0 -31 -28.5 -53.5t-59.5 -22.5q-59 0 -59 39z" />
<glyph unicode="&#xfd;" horiz-adv-x="700" d="M-780 -1139q0 70 133 305q20 37 81.5 88.5t81 78t39 52t46.5 37.5q80 80 227 158q41 23 252 123q70 90 221 260q53 49 53 90q-246 0 -245 150q0 70 57 198q61 143 119 144q25 0 24 -45q0 -51 -52 -139.5t-52 -141.5q0 -41 26.5 -70.5t67.5 -29.5q31 0 80 39t76 39 q18 0 32.5 -23.5t14.5 -42.5q0 -39 -62 -106q-100 -109 -176 -211q35 29 109 80q45 23 131 75q55 49 110 99q82 68 121 69q0 -2 2 -4v-4q0 -10 -75 -66q-23 -20 -66 -63q-94 -90 -289 -223q-53 -31 -153 -101q-51 -47 -127 -135q-90 -109 -121 -141q-80 -82 -420 -420 q-45 -45 -115 -84q-82 -47 -133 -47q-18 0 -18 12zM-662 -991q0 -27 3 -39q66 31 96.5 61.5t95 92t148.5 163.5q51 63 151 158q117 111 156 152q-74 -33 -221 -105q-29 -14 -146 -110q-131 -106 -180 -162q-102 -113 -103 -211zM502 733q0 6 8 15q18 14 57 45q47 45 111 116 q35 51 70 103q45 61 96 61q14 0 30.5 -13.5t16.5 -27.5q0 -8 -25 -63q-16 -37 -73 -78q-82 -55 -93 -64q-121 -113 -129 -112q-2 0 -4 2h-6q-6 0 -17.5 -5t-19.5 -5q-23 0 -22 26z" />
<glyph unicode="&#xfe;" horiz-adv-x="927" d="M-1028 -1018q0 53 70 86q33 39 90 92q78 70 96 88q170 182 524 531q55 49 115 115q37 41 192 159q18 12 50 37q33 35 65 70q43 43 74 53q59 18 178 66q35 18 117 71q227 147 370 262q92 76 185 152q154 125 170 125q45 -1 45 -17q0 -29 -445 -432q-18 -18 -61 -53 q31 -27 31 -61q0 -63 -106.5 -154.5t-106.5 -108.5q0 -29 45 -28q20 0 110 28q84 27 111 42.5t80 37.5v-6q0 -57 -338 -149q-31 -6 -94 -21q-33 -10 -45 -10q-80 0 -152 20q-33 10 -33 27q0 43 43 43q14 0 39 -5t37 -5q49 0 86 37t41 37q49 41 96 82q74 66 74 88 q0 14 -14 32q-49 -4 -115 -39q-53 -31 -107 -59q-66 -31 -192 -100q-106 -70 -256 -189q-123 -100 -246 -198q-51 -41 -221 -230q-8 -8 -164 -162q-100 -106 -203 -210q-166 -170 -198 -170q-16 0 -31 6q-6 8 -6 20z" />
<glyph unicode="&#xff;" horiz-adv-x="700" d="M-780 -1139q0 70 133 305q20 37 81.5 88.5t81 78t39 52t46.5 37.5q80 80 227 158q41 23 252 123q70 90 221 260q53 49 53 90q-246 0 -245 150q0 70 57 198q61 143 119 144q25 0 24 -45q0 -51 -52 -139.5t-52 -141.5q0 -41 26.5 -70.5t67.5 -29.5q31 0 80 39t76 39 q18 0 32.5 -23.5t14.5 -42.5q0 -39 -62 -106q-100 -109 -176 -211q35 29 109 80q45 23 131 75q55 49 110 99q82 68 121 69q0 -2 2 -4v-4q0 -10 -75 -66q-23 -20 -66 -63q-94 -90 -289 -223q-53 -31 -153 -101q-51 -47 -127 -135q-90 -109 -121 -141q-80 -82 -420 -420 q-45 -45 -115 -84q-82 -47 -133 -47q-18 0 -18 12zM-662 -991q0 -27 3 -39q66 31 96.5 61.5t95 92t148.5 163.5q51 63 151 158q117 111 156 152q-74 -33 -221 -105q-29 -14 -146 -110q-131 -106 -180 -162q-102 -113 -103 -211zM422 774q0 8 16 21q25 16 70 53q31 31 49 31 q12 0 30.5 -28t18.5 -40q0 -20 -20 -49q-33 -43 -33 -45q-14 -29 -31 -29h-18q-82 0 -82 86zM795 872q0 8 20 35q8 14 16.5 29.5t22.5 15.5t45 -26q39 -35 46 -39t25.5 -17.5t18.5 -23.5q0 -74 -110 -74h-17q-14 2 -31 31q-12 16 -24 34.5t-12 34.5z" />
<glyph unicode="&#x152;" horiz-adv-x="2715" d="M129 6q0 135 45 270q47 147 131 240q-51 35 -99 129t-48 156q0 55 41 55q12 0 24 -35q43 -125 47 -133q27 -59 86 -113q117 129 193 189q111 82 242 115q49 35 141 34q100 0 186 -49q102 -57 103 -149q0 -74 -27 -117q-14 -20 -82 -88q-90 -88 -158 -119 q-76 -33 -196 -33q-186 0 -355 97q-145 -242 -145 -496q0 -178 152 -178q262 0 389 55q264 115 401 230q164 139 275 372q135 287 135 477q0 70 -57.5 127.5t-127.5 57.5q-279 0 -346 -43q-6 -4 -45 -38t-47 -34q-27 0 -26 66q0 53 192 90q145 29 242 28q348 0 348 -276 q0 -152 -82 -330q115 63 223 58q-16 49 -16 112q0 80 37 183.5t88 154.5l88 74q311 260 420 260q45 0 110 -35q74 -39 72 -80q12 -45 12 -53q-2 -4 -17.5 -21.5t-25.5 -19.5q-8 -2 -18 0q-14 4 -21 4q-16 0 -22 31q-6 43 -15 55q-16 31 -63 31q-45 0 -244 -127 q-188 -121 -231 -170q-37 -41 -70 -96q2 -6 17 -201q8 -119 59 -193q12 -16 10 -36q2 -4 2 -11q0 -39 -43 -39q-8 0 -12 2q-16 16 -49 50q-80 37 -166 41q-154 -63 -264 -224q-14 -20 -39 -63q-8 -23 -8 -72q0 -29 14 -139q86 -109 162 -109q84 0 198 23q96 23 195 43 q76 16 188 72q133 68 185 84q154 168 170 167q29 0 28 -12q0 -2 -67 -104q-139 -168 -447 -285q-287 -109 -526 -108q-109 0 -166 79q-49 72 -49 187q0 20 4 57q-182 -193 -399 -321q-258 -154 -480 -154q-356 0 -356 348zM440 524q125 -49 297 -49q393 0 393 236 q0 49 -65 82q-55 27 -109 26q-16 0 -32 -4q-92 -14 -183.5 -29.5t-162 -80t-138.5 -181.5z" />
<glyph unicode="&#x153;" horiz-adv-x="864" d="M-74 -49q0 55 86 153q12 12 33 41q6 20 23 60q20 33 49 49q41 25 86 25q72 41 143 40q35 0 64 -28q29 20 55 26q12 16 20 23q76 70 105 88q55 33 131 33q133 0 133 -78q0 -47 -100 -127q-82 -68 -144 -94q-43 -16 -127 -60q-4 -12 -4 -20q0 -20 35 -35q27 -12 51 -12 q82 0 221 53q127 49 113 49q8 0 8 -8q0 -16 -55 -49q-166 -100 -311 -100q-100 0 -133 94q-23 -23 -43 -41q-2 -2 -27 -15q-20 -18 -62 -51q-53 -39 -178 -78q-80 -25 -98 -24q-74 0 -74 86zM29 -23q0 -33 39 -32q16 0 45 8q117 33 155 55q61 37 109 125q10 19 10 37 q0 16 -41 44t-57 28q-23 0 -84 -43q-51 -37 -78 -64q-98 -94 -98 -158zM496 205q0 -10 16 -19q35 0 68 25q45 20 125 74q8 8 45 55q0 45 -48 45q-53 0 -86.5 -18.5t-76.5 -74.5t-43 -87z" />
<glyph unicode="&#x178;" horiz-adv-x="1695" d="M-150 -952q0 43 50 145q72 150 112 213q70 115 154 184q113 94 428 232q98 43 348 90q219 201 477 573q-205 -133 -336 -133q-156 0 -155 64q0 80 102.5 231.5t102.5 284.5q0 43 -46 72q-39 23 -86 22q-18 0 -58 -4t-60 -4q-80 0 -168 -68q-96 -70 -97 -147q0 -35 44 -58 q35 -18 71 -18q16 0 60.5 59.5t66.5 59.5q12 0 12 -19q0 -41 -45 -108q-47 -74 -86 -74q-61 0 -128.5 52.5t-67.5 111.5q0 70 88 162q121 127 344 127q281 0 280 -154q0 -78 -96 -249t-96 -220q180 18 373 174q178 145 262 320q33 68 53 67q62 0 64 -37q-43 -66 -125 -194 q-78 -143 -246 -426q-59 -90 -170 -225q-141 -174 -174 -220q274 39 502 146q162 76 163 76q4 0 5 -9q0 -23 -56 -47q-78 -41 -233 -120q-102 -51 -205 -82q-41 -12 -307 -119q-186 -207 -502 -481q-406 -354 -535 -355q-37 0 -60.5 34t-23.5 71zM-37 -934q174 115 383 299 q178 164 356 330q-162 -8 -518 -266q-219 -158 -221 -363zM1143 1546q0 16 16 29q25 14 70 51q33 33 49 33q12 0 30.5 -28t18.5 -42q0 -18 -53 -94q-6 -29 -41 -29q-90 0 -90 80zM1769 1686q0 8 21 34q8 14 16.5 28.5t22.5 14.5q18 0 49 -30q25 -16 72 -52q14 -12 14 -22 q0 -74 -111 -74h-16q-16 2 -31 29q-12 16 -24.5 35.5t-12.5 36.5z" />
<glyph unicode="&#x2c6;" horiz-adv-x="827" d="M225 1552q0 18 143.5 121t174.5 103q20 0 38.5 -25t20.5 -47v-27q0 -80 -14 -157q-23 -111 -66 -119q-20 2 -20 53q0 12 8 31.5t8 30.5q0 10 -7 28.5t-7 28.5q0 57 -31 57q-29 0 -121 -50t-100 -50q-6 0 -16.5 8t-10.5 14z" />
<glyph unicode="&#x2dc;" horiz-adv-x="866" d="M121 1481q0 14 16 41q39 84 176 84q82 0 125 -72q23 -35 49 -131q20 -72 43 -72q20 0 37 19q25 27 29 28q37 25 45 33q23 18 27 49q10 57 47 58q33 -1 33 -21q0 6 -9 -27q-20 -51 -57 -104q-16 -25 -102 -80q-41 -27 -74 -26q-72 0 -82 43q-2 10 -6 110q-2 84 -43 111 q-57 37 -82 37q-57 0 -76 -35q-23 -45 -39 -53q-31 -14 -37 -15q-20 0 -20 23z" />
<glyph unicode="&#x2000;" horiz-adv-x="1154" />
<glyph unicode="&#x2001;" horiz-adv-x="2308" />
<glyph unicode="&#x2002;" horiz-adv-x="1154" />
<glyph unicode="&#x2003;" horiz-adv-x="2308" />
<glyph unicode="&#x2004;" horiz-adv-x="769" />
<glyph unicode="&#x2005;" horiz-adv-x="577" />
<glyph unicode="&#x2006;" horiz-adv-x="384" />
<glyph unicode="&#x2007;" horiz-adv-x="384" />
<glyph unicode="&#x2008;" horiz-adv-x="288" />
<glyph unicode="&#x2009;" horiz-adv-x="461" />
<glyph unicode="&#x200a;" horiz-adv-x="128" />
<glyph unicode="&#x2010;" horiz-adv-x="772" d="M72 285q0 18 26 28q14 6 191.5 26.5t206.5 20.5q49 0 92 -14q59 -18 59 -55q0 -31 -33 -31q-41 0 -121.5 11.5t-123.5 11.5q-39 0 -119 -13.5t-121 -13.5q-57 0 -57 29z" />
<glyph unicode="&#x2011;" horiz-adv-x="772" d="M72 285q0 18 26 28q14 6 191.5 26.5t206.5 20.5q49 0 92 -14q59 -18 59 -55q0 -31 -33 -31q-41 0 -121.5 11.5t-123.5 11.5q-39 0 -119 -13.5t-121 -13.5q-57 0 -57 29z" />
<glyph unicode="&#x2012;" horiz-adv-x="772" d="M72 285q0 18 26 28q14 6 191.5 26.5t206.5 20.5q49 0 92 -14q59 -18 59 -55q0 -31 -33 -31q-41 0 -121.5 11.5t-123.5 11.5q-39 0 -119 -13.5t-121 -13.5q-57 0 -57 29z" />
<glyph unicode="&#x2013;" horiz-adv-x="559" d="M4 117q0 23 76 47q66 20 98 20q98 0 160.5 -53t87.5 -53q43 0 84 19.5t80 37.5l6 -2l4 -6q0 -2 -4 -8q-23 -29 -86 -47q-53 -16 -100 -17q-47 0 -113 50.5t-123 50.5q-51 0 -72 -9q-6 -2 -45 -22.5t-43 -20.5q-10 0 -10 13z" />
<glyph unicode="&#x2014;" horiz-adv-x="1241" d="M14 385q0 31 47 31q33 0 68 -25q49 -35 61 -41q125 -53 367 -53q49 0 143.5 5t141.5 5q135 0 198 35q6 4 25 25q14 14 31 14q12 0 34.5 -4t32.5 -4q20 0 35 8q31 -12 31 -39q0 -20 -29 -27q-133 -31 -287 -43q-285 -25 -348 -24q-55 0 -83.5 2t-91 12t-95.5 10t-78 15 q-55 18 -76 20q-61 8 -82 17q-45 18 -45 61z" />
<glyph unicode="&#x2018;" horiz-adv-x="444" d="M23 1063q0 33 63 119q45 57 90 116l86 140q53 78 109 123q6 6 14 6q14 -1 14 -15q0 -6 -4 -10q-74 -96 -186 -305q-31 -61 -59 -125q-39 -68 -101 -88h-4q-23 0 -22 39z" />
<glyph unicode="&#x2019;" horiz-adv-x="622" d="M262 1176q0 2 39 56t43 62q18 37 57 113q12 29 41 88q12 25 44 52.5t55 27.5q26 0 26 -31q0 -23 -49 -86q-68 -82 -67 -84q-33 -53 -68 -108q-41 -59 -84 -92q-10 -8 -20 -9q-16 0 -17 11z" />
<glyph unicode="&#x201a;" horiz-adv-x="325" d="M-37 -233q0 4 4 8q70 90 137 221q10 31 39 90q12 23 45 51.5t54 28.5q26 0 26 -33q0 -23 -49 -84q-35 -43 -67 -86q-133 -209 -172 -209q-16 0 -17 13z" />
<glyph unicode="&#x201c;" horiz-adv-x="526" d="M0 1071q0 35 63 119q45 59 91 117q41 68 82 135q49 74 102 117q8 4 12 4q17 -1 17 -15q0 -6 -5 -10q-72 -92 -178 -295q-29 -61 -57 -125q-39 -68 -100 -88h-4q-23 0 -23 41zM242 1057q0 23 49 86q68 82 67 84q117 188 152 188q16 0 16 -12q0 -4 -4 -8q-33 -43 -116 -201 q-12 -29 -39 -88q-12 -25 -43 -49q-33 -31 -56 -31q-8 0 -17 7t-9 24z" />
<glyph unicode="&#x201d;" horiz-adv-x="870" d="M340 1176q0 6 4 10q66 82 137 221q12 29 39 88q12 25 44 52.5t54 27.5q27 0 27 -33q0 -20 -49 -84q-66 -80 -68 -84q-129 -209 -172 -209q-16 0 -16 11zM479 1038q0 6 4 11q84 111 187 305q29 61 59 125q41 70 98 88h7q22 0 22 -39q0 -35 -65 -121q-45 -57 -91 -117 q-43 -70 -86 -139q-53 -78 -108 -123q-8 -4 -12 -4q-14 0 -15 14z" />
<glyph unicode="&#x201e;" horiz-adv-x="659" d="M55 -221q0 6 4 10q66 82 138 221q12 29 39 88q12 25 43.5 52.5t54.5 27.5q26 0 26 -31q0 -23 -49 -86q-35 -41 -67 -84q-131 -209 -172 -208q-16 0 -17 10zM195 -356q0 4 30 45l39 49q23 33 121 219q29 61 59 123q41 72 99 90h6q20 0 20 -41q0 -35 -63 -119 q-45 -57 -90 -116l-86 -140q-53 -78 -109 -123q-8 -4 -12 -4q-14 0 -14 17z" />
<glyph unicode="&#x2022;" horiz-adv-x="595" d="M186 336q0 160 160 256q82 49 133 49q31 0 33 -10q-2 -6 -12 -21q23 -2 44 -23t21 -44q0 -57 -49 -146q-12 -78 -80 -110q-25 -12 -139 -39q-6 -2 -20.5 -9.5t-28.5 -7.5q-29 0 -37 43q-25 18 -25 62zM254 297q0 -12 35 -12l2 2q0 10 -37 10zM268 365q18 43 68.5 92 t91.5 55q4 2 14 2h13l4 2q-4 10 -23 10q-51 0 -110.5 -55t-57.5 -106zM270 449q80 115 172 114q70 0 76 -65q2 8 2 24q0 53 -51 53q-127 0 -199 -126zM299 348q0 -12 25 -12q61 0 90 55q-39 -53 -88 -53q-18 0 -19 16q0 14 8 35q-16 -6 -16 -41zM377 412l4 -2q2 0 22 20v4 q-12 -8 -26 -22z" />
<glyph unicode="&#x2026;" horiz-adv-x="911" d="M57 27q0 12 17.5 37.5t19.5 29.5q12 25 37 25q100 -1 100 -60q0 -18 -47 -59t-65 -41q-16 0 -33 10l14 -6q-2 2 -43 64zM340 45q0 33 16.5 69t46.5 36q41 0 72 -48q18 -29 19 -79v-13q-8 -6 -64 -39q-12 0 -35 19q-18 12 -36.5 24.5t-18.5 30.5zM651 37q0 27 41 43 q31 12 64 12q47 0 63 -16q4 -12 4 -39v-37q-4 -8 -42 -29.5t-46 -21.5q-23 0 -53.5 32.5t-30.5 55.5z" />
<glyph unicode="&#x202f;" horiz-adv-x="461" />
<glyph unicode="&#x2039;" horiz-adv-x="632" d="M158 823q0 4 12 58q6 29 66 75q41 33 139 66t139 68q16 16 33 32q25 27 33 27q12 0 12 -27q0 -55 -135 -155q-147 -109 -160 -136q2 -29 20.5 -89t18.5 -93q0 -31 -33 -207q-16 -84 -49 -84q-12 0 -12 48q0 276 -72 389q-12 18 -12 28z" />
<glyph unicode="&#x203a;" horiz-adv-x="632" d="M166 248q0 57 133 155q145 109 158 138q-4 55 -47 176q-39 111 -39 174q0 2 28 199q12 84 47 84q12 0 13 -29v-152q0 -176 18 -231q8 -20 62 -78q47 -49 47 -96v-17q-2 -12 -2 -18t2 -21v-20q0 -43 -66 -96q-39 -33 -138 -65t-140 -68q-16 -16 -31 -33q-25 -27 -33 -27 q-12 0 -12 25z" />
<glyph unicode="&#x205f;" horiz-adv-x="577" />
<glyph unicode="&#x2122;" horiz-adv-x="1611" d="M143 565q0 29 70 92q49 39 98 80q35 12 166 170q84 100 166 203q-115 29 -174 29q-115 0 -115 -86q0 -6 26 -19.5t28 -34.5q-12 -16 -25 -16q-27 0 -82 29q-61 31 -61 53q0 129 284 129q43 0 178 -33q39 25 117 80q53 45 107 90q66 51 125 51q55 0 55 -34 q0 -51 -264 -203q29 -2 110 -10q68 -8 109 -9h63q10 0 41 -4q27 -2 41 0q283 47 281 47q18 0 37.5 -12t19.5 -22q0 -29 -135 -43q-86 -9 -172 -17q-25 -6 -74 -4q-90 -4 -189.5 6t-195.5 21q-63 -39 -133 -119q-59 -70 -117 -137q-47 -53 -176 -170q-150 -137 -174 -137 q-35 0 -35 30zM602 633q0 33 72 82q94 63 98 69q49 53 154 123q49 0 49 -28q0 -18 -53 -64q25 4 78 37t77 33q41 0 41 -29q0 -25 -29.5 -58.5t-33.5 -52.5q23 0 98.5 66t128.5 66q29 0 29 -23t-57.5 -73t-57.5 -95q0 -47 41 -47q23 0 59.5 20.5t55.5 22.5q18 -6 0 -33 q-35 -23 -70 -44t-84 -21q-68 0 -68 63q0 14 8.5 41t8.5 41q0 4 -4 12q-39 -8 -116 -70.5t-109 -62.5q-25 0 -25 19q0 43 25 75q8 10 57 56q-12 6 -29 6q-68 0 -184.5 -76t-140.5 -78l-17 11q-2 4 -2 12z" />
<glyph unicode="&#x25fc;" horiz-adv-x="358" d="M0 0v358h358v-358h-358z" />
</font>
</defs>
</svg>
